{"glyphs":{"0":{"ha":463,"x_min":19,"x_max":440,"o":"m 290 701 q 408 614 374 701 q 439 346 439 535 q 418 113 439 190 q 291 -11 385 -11 q 163 113 197 -11 q 142 346 142 190 q 161 574 142 494 q 150 574 156 574 q 115 578 132 574 q 83 592 99 582 q 57 613 69 600 q 36 639 44 625 q 25 671 28 654 q 24 706 21 688 q 54 763 28 740 q 82 779 67 774 q 115 784 99 785 q 144 776 131 783 q 157 768 151 772 q 168 758 163 764 q 168 744 175 751 q 157 744 163 739 q 114 758 136 760 q 78 739 93 756 q 71 725 74 732 q 97 725 85 729 q 122 707 114 721 q 131 681 129 696 q 125 675 131 675 q 119 679 121 675 q 110 699 117 692 q 93 707 103 706 q 75 703 83 707 q 65 694 69 700 q 79 667 68 679 q 93 653 85 660 q 110 643 101 647 q 146 640 126 638 q 186 656 164 644 q 201 663 190 657 q 290 701 236 701 m 243 135 q 290 72 260 72 q 338 135 321 72 q 351 224 347 169 q 351 224 351 224 q 349 224 350 224 q 333 221 339 224 q 319 211 325 218 q 315 208 317 210 l 314 206 q 313 204 314 206 q 310 197 311 201 q 307 178 306 188 q 313 160 307 168 q 329 146 319 151 l 331 144 q 333 135 336 142 q 325 132 331 131 q 297 144 310 135 q 279 169 285 154 q 274 203 272 185 q 276 219 274 211 q 278 224 276 221 q 279 228 279 226 q 283 235 281 232 q 304 263 290 251 q 336 281 318 274 q 340 282 336 281 q 322 300 328 289 q 315 332 313 315 q 329 360 318 346 q 336 360 332 364 q 338 354 339 357 l 338 353 q 331 331 331 342 q 338 311 331 319 q 354 300 344 303 q 356 300 354 300 q 356 346 356 322 q 331 583 356 518 q 316 607 324 599 q 303 617 308 615 q 290 618 299 618 l 290 618 q 271 614 278 618 q 267 611 269 613 q 250 583 258 603 q 225 346 225 518 q 243 135 225 201 z "},"1":{"ha":339,"x_min":21,"x_max":317,"o":"m 311 -21 q 315 -32 314 -26 q 317 -43 317 -36 q 313 -65 317 -54 q 300 -84 308 -76 q 281 -96 292 -92 q 257 -99 269 -100 q 246 -96 251 -97 q 240 -94 242 -94 l 238 -93 l 235 -93 q 201 -65 215 -85 q 197 -60 200 -64 q 194 -76 196 -69 q 179 -126 189 -106 q 167 -151 174 -140 q 146 -175 157 -165 q 132 -185 139 -181 q 117 -192 125 -189 q 85 -194 101 -196 q 53 -182 67 -192 q 32 -158 40 -172 q 22 -129 24 -144 q 25 -99 21 -112 q 42 -74 31 -83 q 54 -64 47 -68 q 61 -61 57 -62 q 64 -60 63 -61 l 67 -60 l 68 -60 q 85 -68 82 -56 q 75 -85 88 -81 l 75 -85 l 74 -85 q 72 -86 74 -85 q 68 -89 69 -87 q 63 -94 65 -90 q 57 -107 58 -100 q 58 -124 56 -114 q 65 -137 60 -132 q 76 -146 69 -143 q 88 -149 82 -149 q 100 -144 94 -149 q 106 -141 104 -143 q 111 -137 108 -139 q 125 -107 119 -126 q 132 -67 131 -90 q 133 -24 133 -47 l 142 556 l 101 531 q 69 525 86 521 q 44 544 53 529 q 38 575 35 558 q 57 601 42 592 l 164 667 q 206 668 185 681 q 228 631 228 656 l 222 419 q 232 422 228 421 q 258 424 244 426 q 264 424 261 424 l 265 422 l 267 422 q 269 421 267 422 q 282 415 276 419 q 299 399 292 408 q 306 376 304 388 q 300 354 306 365 q 293 353 299 350 q 290 358 290 354 l 292 358 q 290 374 293 367 q 282 386 288 382 q 271 393 278 392 q 264 394 267 394 q 263 394 264 394 l 261 394 q 257 394 258 394 q 236 382 244 393 q 221 357 229 374 l 214 14 q 218 -17 215 -3 q 249 -65 228 -54 q 274 -69 261 -72 q 292 -56 286 -68 q 296 -43 294 -50 q 296 -36 296 -39 q 294 -31 296 -33 q 286 -21 292 -25 q 279 -17 283 -18 q 276 -15 278 -15 q 272 -14 275 -14 q 267 -4 264 -11 q 275 1 268 3 q 281 0 278 1 q 285 -1 283 0 q 294 -6 290 -3 q 311 -21 306 -11 z "},"2":{"ha":372,"x_min":18,"x_max":350,"o":"m 342 263 q 349 240 349 253 q 346 219 350 231 q 339 217 343 215 q 336 222 336 218 q 335 238 338 231 q 326 250 332 244 q 314 257 321 254 q 307 257 310 257 q 306 257 307 257 l 304 257 q 300 257 301 257 q 283 247 290 254 q 192 82 254 151 q 175 64 183 72 l 261 54 q 289 39 278 53 q 297 8 300 25 q 284 -18 296 -7 q 256 -29 272 -29 q 251 -28 254 -29 l 60 -6 q 35 6 44 -4 q 22 29 25 15 q 47 74 18 61 q 132 140 92 94 q 221 386 217 236 q 222 410 222 394 q 224 429 222 426 q 206 419 215 424 q 167 421 186 413 q 138 442 150 426 q 139 451 133 447 q 147 450 143 454 q 172 438 160 439 q 197 442 185 435 q 214 458 207 447 q 226 528 232 490 q 208 594 221 565 q 176 644 194 624 q 171 647 175 644 q 165 649 168 649 q 154 653 161 650 q 115 651 133 657 q 113 640 113 646 q 117 621 111 629 q 133 607 122 611 q 157 606 143 603 q 163 601 161 607 q 160 596 164 597 q 129 593 143 590 q 101 610 113 596 q 90 635 93 619 q 81 621 83 629 q 76 579 69 600 q 108 546 83 558 q 114 526 121 539 q 97 521 108 515 q 68 538 81 528 q 46 565 54 550 q 38 601 38 582 q 43 638 36 619 q 90 690 57 672 q 79 713 83 701 q 81 757 72 736 q 107 790 88 776 q 118 789 113 794 q 118 778 122 783 q 103 750 106 764 q 107 724 100 736 q 126 706 114 713 q 133 703 129 704 q 163 703 149 706 q 181 700 172 701 q 189 697 185 699 q 197 694 196 696 q 231 676 215 688 q 257 650 244 665 q 275 619 267 636 q 278 610 276 615 q 283 599 281 604 q 304 385 308 524 q 293 286 303 333 q 299 286 296 286 q 306 286 303 286 l 307 285 l 308 285 q 311 285 308 285 q 324 279 318 282 q 342 263 335 272 z "},"3":{"ha":394,"x_min":21,"x_max":374,"o":"m 357 642 q 371 613 367 629 q 369 579 374 596 q 364 564 368 571 q 361 560 363 563 q 358 556 360 557 q 354 549 357 553 q 328 526 343 535 q 293 515 313 518 q 261 514 279 514 q 243 515 253 515 l 224 467 q 267 451 247 465 q 310 385 297 431 q 322 256 322 339 q 321 214 322 233 q 321 189 321 200 q 303 107 317 142 q 281 67 294 85 q 249 35 267 49 q 210 14 231 22 q 189 7 200 11 q 168 3 178 4 q 146 1 156 1 q 124 4 135 3 q 82 19 101 8 q 29 86 43 43 q 22 128 21 107 q 33 169 24 150 q 58 201 42 188 q 75 214 65 208 q 93 222 83 218 q 104 217 101 225 q 100 206 107 210 q 57 158 67 188 q 60 99 46 129 q 88 65 69 79 q 86 78 86 72 q 101 110 88 96 q 129 125 111 121 q 135 121 133 126 q 132 115 136 117 q 113 100 118 110 q 106 78 106 90 q 114 57 107 67 q 119 51 117 54 q 160 53 139 47 q 174 57 165 54 q 188 64 182 60 q 211 81 201 71 q 239 129 231 99 q 246 190 246 154 q 244 225 246 196 q 244 231 244 229 q 243 249 243 240 q 238 329 243 297 q 228 371 232 361 q 219 382 224 381 q 171 374 210 389 q 126 382 146 363 q 117 428 106 401 l 186 599 l 81 608 q 52 624 63 611 q 43 655 42 638 q 58 683 44 672 q 89 692 71 693 l 250 676 q 282 656 271 674 q 285 619 293 639 l 269 581 q 291 574 282 575 q 307 574 300 572 q 324 579 315 574 q 328 582 325 581 l 329 583 q 329 584 329 583 q 331 585 329 585 q 336 592 333 588 q 342 610 340 600 q 339 629 343 621 q 325 646 335 639 l 325 647 q 324 657 319 651 q 332 658 326 661 q 357 642 347 653 z "},"4":{"ha":449,"x_min":15,"x_max":426,"o":"m 242 154 l 64 157 q 28 178 40 158 q 26 218 17 197 l 272 692 q 293 711 279 706 q 321 713 307 717 q 344 698 335 710 q 351 671 353 686 l 346 569 q 353 569 350 569 q 358 568 357 568 l 360 568 l 363 568 q 365 567 363 567 q 376 561 371 564 q 393 543 388 554 q 400 521 400 533 q 396 500 400 511 q 389 497 393 496 q 386 503 386 499 q 385 519 388 513 q 378 532 383 526 q 365 539 372 536 q 358 540 363 540 q 357 540 357 540 l 356 540 q 351 539 354 540 q 344 538 349 539 l 329 238 l 374 236 q 402 224 390 236 q 414 194 414 211 q 401 165 414 176 q 372 153 389 153 l 329 154 q 332 60 331 104 q 332 49 332 53 q 333 22 333 36 q 333 20 333 22 q 333 17 333 18 q 357 -14 343 -6 q 382 -19 371 -21 q 400 -4 394 -17 q 404 8 404 1 q 404 15 404 13 q 403 21 404 18 q 394 31 400 26 q 389 35 392 33 q 385 36 386 36 q 382 38 383 36 l 381 38 q 375 47 374 39 q 383 53 378 54 q 389 51 386 53 q 394 50 392 51 q 404 46 400 49 q 419 31 414 40 q 424 19 422 25 q 425 8 425 14 q 422 -14 425 -3 q 410 -33 418 -25 q 389 -44 401 -42 q 365 -47 378 -49 q 354 -44 361 -46 q 350 -43 350 -43 l 347 -42 l 344 -42 q 329 -32 336 -37 q 313 -83 324 -61 q 296 -108 306 -97 q 271 -129 285 -121 q 264 -133 268 -131 q 257 -136 260 -135 q 242 -140 250 -139 q 210 -143 226 -144 q 179 -131 193 -140 q 157 -106 165 -121 q 147 -76 150 -93 q 147 -62 147 -69 q 150 -47 147 -54 q 157 -32 153 -39 q 167 -19 161 -25 q 179 -11 172 -15 q 186 -8 182 -10 q 189 -7 188 -7 l 192 -6 l 193 -6 q 210 -15 207 -3 q 200 -31 213 -28 l 200 -31 l 199 -32 q 197 -32 199 -32 q 193 -35 194 -33 q 188 -40 190 -37 q 182 -54 182 -47 q 181 -62 181 -58 q 183 -71 182 -67 q 190 -86 186 -79 q 214 -97 200 -97 q 229 -94 221 -97 q 236 -90 233 -93 q 238 -90 236 -90 q 239 -89 239 -89 q 243 -86 242 -86 q 260 -60 254 -78 q 267 -22 265 -44 q 265 19 268 -4 q 261 38 264 28 q 261 40 261 40 q 257 57 260 46 l 257 58 l 257 60 q 256 69 256 64 q 250 154 253 100 l 242 154 m 258 483 l 132 240 l 246 238 l 258 483 z "},"5":{"ha":428,"x_min":18,"x_max":406,"o":"m 179 3 q 150 0 164 0 q 75 19 110 0 q 26 71 40 39 q 25 103 19 86 q 47 126 31 119 q 78 127 63 133 q 101 106 94 121 q 125 88 107 96 q 163 85 143 81 q 225 157 207 94 q 224 168 225 163 q 207 174 215 174 q 186 167 196 174 q 174 149 178 161 q 167 144 171 143 q 164 151 163 147 q 176 178 167 168 q 206 193 189 190 q 215 193 210 193 q 196 211 208 204 q 192 213 193 213 l 189 214 q 188 214 189 214 q 178 215 183 215 q 158 211 168 215 q 144 199 150 207 q 136 179 138 190 q 131 175 135 174 q 126 179 126 175 q 131 206 125 194 q 149 228 136 219 q 175 240 160 238 q 190 242 183 242 q 194 242 194 242 l 196 240 l 199 240 q 206 239 201 240 q 233 226 221 235 q 235 225 233 226 q 236 224 236 224 q 236 226 236 225 q 236 228 236 226 q 210 438 242 426 q 161 417 189 446 q 119 358 133 388 q 72 336 104 329 q 49 351 58 340 q 40 378 40 363 l 40 657 q 53 686 40 674 q 82 699 65 699 l 185 699 q 193 700 190 699 q 217 703 204 701 q 240 708 229 706 q 279 728 265 717 q 290 740 286 733 q 292 744 292 742 q 294 749 293 747 q 296 758 296 754 q 292 797 301 781 q 280 809 288 804 q 262 815 272 814 q 240 813 251 815 q 235 811 238 813 l 232 811 l 229 810 q 221 804 225 807 q 208 788 213 799 q 204 775 206 782 q 203 769 203 772 q 201 764 201 767 l 201 763 q 193 756 200 756 q 186 763 186 757 q 186 771 186 767 q 186 779 186 775 q 189 793 186 786 q 203 822 193 810 q 215 833 208 829 l 219 836 l 224 838 q 231 842 228 840 q 261 849 246 847 q 296 842 281 849 q 325 819 314 835 q 340 788 336 806 q 343 754 344 771 q 340 736 343 744 q 339 729 340 733 q 336 719 338 724 q 317 689 329 703 q 290 667 306 676 q 279 661 285 664 q 293 656 286 658 q 311 644 304 651 q 317 635 314 640 q 321 624 319 629 q 321 603 324 614 q 315 585 319 594 q 308 582 314 579 q 306 588 304 583 q 308 604 308 597 q 307 621 310 614 q 286 638 303 633 q 253 642 272 642 q 233 640 244 642 l 215 638 q 203 635 208 636 q 174 631 189 632 q 160 631 165 631 q 159 631 160 631 q 158 629 158 631 l 126 625 l 124 494 q 238 517 181 536 q 317 374 306 493 q 319 368 318 371 q 335 339 328 349 q 356 325 343 328 q 358 325 357 325 l 360 325 q 361 324 361 325 q 361 324 361 324 q 368 325 365 324 q 381 332 375 326 q 390 343 388 336 q 392 360 392 350 l 390 360 q 396 365 390 364 q 400 363 399 365 q 404 340 406 351 q 396 318 403 329 q 378 303 389 308 q 367 297 372 299 q 364 297 364 297 l 361 296 l 360 296 q 354 296 357 296 q 329 299 342 294 q 321 301 325 300 q 319 225 321 268 q 301 119 317 164 q 262 51 286 74 q 218 17 238 28 q 179 3 199 7 z "},"6":{"ha":399,"x_min":15,"x_max":376,"o":"m 375 181 q 324 28 375 79 q 206 -17 281 -17 q 88 25 128 -17 q 22 331 15 99 q 42 479 25 411 q 61 546 49 514 q 71 568 65 556 q 236 717 135 711 q 276 711 258 718 q 285 708 278 711 q 294 703 293 704 q 310 692 301 699 q 332 663 322 679 q 354 597 347 636 q 347 586 357 589 q 338 593 340 585 q 310 649 326 626 q 290 668 300 660 q 278 675 283 674 q 275 676 278 675 q 272 678 272 678 q 270 678 272 678 q 267 679 268 679 q 217 669 243 685 q 197 656 207 664 q 183 639 192 650 q 192 639 189 639 q 232 614 217 635 q 244 572 244 596 q 240 567 244 567 q 235 571 235 567 q 219 606 232 592 q 190 619 208 619 q 165 614 178 621 q 106 328 113 518 q 106 324 106 325 q 215 350 154 350 q 298 333 264 350 q 348 288 332 315 q 369 234 364 260 q 375 181 375 208 m 265 86 q 292 181 292 114 q 256 260 292 246 q 229 243 239 251 q 211 214 214 229 q 210 210 211 211 l 210 207 q 210 206 210 207 q 210 204 210 206 q 211 196 210 200 q 220 181 214 188 q 236 172 226 174 q 257 172 246 169 q 263 168 261 174 q 260 163 264 164 q 235 157 247 157 q 208 165 221 157 q 189 186 196 174 q 183 200 185 193 q 182 204 183 201 l 182 207 q 181 214 181 211 q 185 244 179 229 q 196 265 189 254 q 108 219 142 258 q 149 83 115 115 q 206 67 164 67 l 206 67 q 265 86 246 67 z "},"7":{"ha":350,"x_min":21,"x_max":331,"o":"m 171 18 q 157 -5 168 4 q 131 -14 146 -14 q 121 -12 126 -14 q 95 6 104 -8 q 90 38 86 21 l 154 296 q 142 296 147 294 q 136 296 139 296 l 135 296 l 132 297 q 129 297 132 297 q 118 303 124 299 q 100 318 107 308 q 92 340 93 329 q 96 363 92 351 q 101 365 97 367 q 106 360 106 364 q 106 343 104 350 q 115 332 108 336 q 128 325 121 326 q 135 324 131 324 q 135 324 135 324 q 136 325 135 325 l 138 325 q 140 325 139 325 q 161 339 153 328 q 168 351 165 343 l 239 635 q 224 631 232 631 l 222 631 l 217 629 l 210 629 q 197 629 200 629 q 172 626 185 628 q 149 622 161 625 q 125 617 138 619 q 88 599 100 608 q 75 585 79 592 q 74 582 75 583 q 72 576 72 579 q 69 567 71 572 q 74 529 65 544 q 85 516 78 521 q 103 510 93 511 q 126 513 114 510 q 131 514 128 514 l 133 515 l 136 515 q 144 521 140 518 q 158 539 153 528 q 163 550 160 543 q 164 556 163 553 q 164 561 164 558 l 164 563 q 172 569 165 571 q 179 563 179 568 q 181 554 181 558 q 179 547 181 550 q 178 532 179 539 q 163 503 174 515 q 150 492 157 497 l 146 490 l 143 488 q 135 485 139 486 q 104 478 119 478 q 69 483 85 476 q 40 506 53 490 q 25 538 31 519 q 22 572 21 554 q 25 589 24 581 q 26 597 25 593 q 29 606 28 601 q 50 638 36 622 q 76 658 61 649 q 88 665 81 661 q 74 669 79 667 q 56 682 63 675 q 49 690 51 685 q 44 701 46 696 q 44 722 43 711 q 50 740 46 731 q 57 743 51 746 q 60 738 61 742 q 57 721 57 728 q 58 706 57 713 q 81 688 63 693 q 113 683 93 683 q 138 686 124 685 l 149 688 q 163 690 156 689 q 192 694 176 693 q 206 696 200 696 l 285 707 q 318 691 306 707 q 325 656 331 675 l 201 140 q 203 140 203 140 q 210 142 207 142 l 211 143 l 214 143 q 218 143 214 143 q 233 142 225 143 q 260 131 247 139 q 278 108 272 121 q 282 81 282 96 q 276 76 281 76 q 272 81 272 76 q 264 101 269 93 q 249 114 258 108 q 231 117 240 117 q 221 115 225 117 q 219 115 221 115 l 217 114 q 213 113 215 114 q 193 94 200 107 q 203 94 197 94 q 231 79 219 92 q 244 53 240 69 q 240 46 246 47 q 235 50 236 46 q 221 68 229 63 q 201 75 213 75 q 185 69 193 75 l 171 18 z "},"8":{"ha":428,"x_min":22,"x_max":406,"o":"m 317 486 q 293 417 311 444 q 278 396 286 406 q 285 386 282 392 q 321 215 321 333 q 296 68 321 118 q 172 -11 260 -11 q 46 68 83 -11 q 22 215 22 118 q 58 386 22 333 q 65 396 61 392 q 49 417 56 406 q 22 533 22 457 q 61 669 22 626 q 172 710 99 710 q 281 669 244 710 q 319 551 317 631 q 320 551 319 551 q 321 550 321 551 q 335 521 328 531 q 356 507 343 510 q 358 507 357 507 l 361 506 q 363 506 363 506 q 368 507 365 506 q 381 513 375 508 q 390 525 388 518 q 392 540 393 532 l 392 542 q 396 547 392 546 q 401 543 400 547 q 404 522 406 532 q 396 500 404 510 q 378 483 389 490 q 367 479 372 481 q 364 478 364 478 l 361 478 l 360 478 q 354 478 357 478 q 329 481 342 476 q 317 486 324 482 m 122 613 q 106 533 106 594 q 120 460 106 478 q 171 442 135 442 q 222 460 207 442 q 238 533 238 478 q 219 613 238 594 q 172 626 208 626 q 122 613 135 626 m 149 75 q 153 74 149 75 q 171 72 157 72 q 193 75 185 72 q 213 90 201 78 q 231 133 225 101 q 238 215 238 165 q 236 249 238 233 q 225 246 231 247 q 219 246 222 246 l 218 246 l 215 246 q 213 246 215 246 q 200 249 207 246 q 180 261 189 253 q 167 281 171 269 q 167 303 164 290 q 172 307 168 307 q 176 301 176 306 q 181 286 176 293 q 192 276 185 279 q 206 272 199 272 q 213 274 208 272 q 214 274 213 274 l 215 274 q 218 275 217 275 q 232 288 228 279 q 215 340 228 322 q 172 358 204 358 q 126 340 139 358 q 106 215 106 308 q 111 133 106 165 q 129 90 117 101 q 149 75 142 78 z "},"9":{"ha":476,"x_min":21,"x_max":456,"o":"m 453 500 q 451 496 453 499 l 450 493 q 447 486 449 489 q 431 463 442 472 q 407 446 421 453 q 375 433 393 439 q 375 368 375 403 q 357 219 372 288 q 336 153 350 185 q 328 132 333 143 q 161 -18 263 -14 q 121 -12 138 -19 q 113 -10 119 -12 q 104 -4 104 -6 q 89 7 97 0 q 65 36 75 19 q 43 101 51 63 q 50 113 40 110 q 60 106 57 114 q 88 50 72 72 q 107 31 97 39 q 119 24 115 25 q 123 22 121 24 q 125 21 125 21 q 128 20 125 21 q 131 19 131 19 q 181 29 154 14 q 214 60 197 39 q 206 60 210 60 q 167 85 181 64 q 153 126 153 103 q 158 132 153 132 q 163 128 163 132 q 178 93 165 107 q 207 79 190 79 q 232 85 219 78 q 292 371 286 181 q 292 375 292 374 q 182 349 243 349 q 99 366 133 349 q 50 411 65 383 q 28 465 35 439 q 22 518 22 490 q 74 671 22 619 q 192 715 118 715 l 193 715 q 310 674 269 715 q 374 481 364 618 q 393 483 385 481 q 421 500 411 488 q 424 504 422 503 l 425 507 q 426 508 426 508 q 429 517 428 513 q 428 533 431 525 q 418 549 425 543 q 400 558 411 556 q 396 564 394 560 q 400 568 397 568 q 426 563 415 568 q 446 543 439 556 q 454 515 453 531 q 453 500 454 507 m 182 433 q 290 479 250 433 q 250 617 282 583 q 193 632 233 632 l 192 632 q 132 613 153 632 q 106 518 106 585 q 126 449 106 465 q 182 433 146 433 z "},"\u000b":{"ha":732,"x_min":69,"x_max":663,"o":"m 69 972 l 663 972 l 663 0 l 69 0 l 69 972 m 108 944 l 365 515 l 624 944 l 108 944 m 349 486 l 99 903 l 99 68 l 349 486 m 367 457 l 110 29 l 624 29 l 367 457 m 383 486 l 635 65 l 635 906 l 383 486 z "},"\f":{"ha":732,"x_min":69,"x_max":663,"o":"m 69 972 l 663 972 l 663 0 l 69 0 l 69 972 m 108 944 l 365 515 l 624 944 l 108 944 m 349 486 l 99 903 l 99 68 l 349 486 m 367 457 l 110 29 l 624 29 l 367 457 m 383 486 l 635 65 l 635 906 l 383 486 z "},"¤":{"ha":732,"x_min":69,"x_max":663,"o":"m 69 972 l 663 972 l 663 0 l 69 0 l 69 972 m 108 944 l 365 515 l 624 944 l 108 944 m 349 486 l 99 903 l 99 68 l 349 486 m 367 457 l 110 29 l 624 29 l 367 457 m 383 486 l 635 65 l 635 906 l 383 486 z "},"¦":{"ha":732,"x_min":69,"x_max":663,"o":"m 69 972 l 663 972 l 663 0 l 69 0 l 69 972 m 108 944 l 365 515 l 624 944 l 108 944 m 349 486 l 99 903 l 99 68 l 349 486 m 367 457 l 110 29 l 624 29 l 367 457 m 383 486 l 635 65 l 635 906 l 383 486 z "},"¨":{"ha":732,"x_min":69,"x_max":663,"o":"m 69 972 l 663 972 l 663 0 l 69 0 l 69 972 m 108 944 l 365 515 l 624 944 l 108 944 m 349 486 l 99 903 l 99 68 l 349 486 m 367 457 l 110 29 l 624 29 l 367 457 m 383 486 l 635 65 l 635 906 l 383 486 z "},"ª":{"ha":732,"x_min":69,"x_max":663,"o":"m 69 972 l 663 972 l 663 0 l 69 0 l 69 972 m 108 944 l 365 515 l 624 944 l 108 944 m 349 486 l 99 903 l 99 68 l 349 486 m 367 457 l 110 29 l 624 29 l 367 457 m 383 486 l 635 65 l 635 906 l 383 486 z "},"¬":{"ha":732,"x_min":69,"x_max":663,"o":"m 69 972 l 663 972 l 663 0 l 69 0 l 69 972 m 108 944 l 365 515 l 624 944 l 108 944 m 349 486 l 99 903 l 99 68 l 349 486 m 367 457 l 110 29 l 624 29 l 367 457 m 383 486 l 635 65 l 635 906 l 383 486 z "},"¯":{"ha":732,"x_min":69,"x_max":663,"o":"m 69 972 l 663 972 l 663 0 l 69 0 l 69 972 m 108 944 l 365 515 l 624 944 l 108 944 m 349 486 l 99 903 l 99 68 l 349 486 m 367 457 l 110 29 l 624 29 l 367 457 m 383 486 l 635 65 l 635 906 l 383 486 z "},"´":{"ha":732,"x_min":69,"x_max":663,"o":"m 69 972 l 663 972 l 663 0 l 69 0 l 69 972 m 108 944 l 365 515 l 624 944 l 108 944 m 349 486 l 99 903 l 99 68 l 349 486 m 367 457 l 110 29 l 624 29 l 367 457 m 383 486 l 635 65 l 635 906 l 383 486 z "},"µ":{"ha":732,"x_min":69,"x_max":663,"o":"m 69 972 l 663 972 l 663 0 l 69 0 l 69 972 m 108 944 l 365 515 l 624 944 l 108 944 m 349 486 l 99 903 l 99 68 l 349 486 m 367 457 l 110 29 l 624 29 l 367 457 m 383 486 l 635 65 l 635 906 l 383 486 z "},"¶":{"ha":732,"x_min":69,"x_max":663,"o":"m 69 972 l 663 972 l 663 0 l 69 0 l 69 972 m 108 944 l 365 515 l 624 944 l 108 944 m 349 486 l 99 903 l 99 68 l 349 486 m 367 457 l 110 29 l 624 29 l 367 457 m 383 486 l 635 65 l 635 906 l 383 486 z "},"¸":{"ha":732,"x_min":69,"x_max":663,"o":"m 69 972 l 663 972 l 663 0 l 69 0 l 69 972 m 108 944 l 365 515 l 624 944 l 108 944 m 349 486 l 99 903 l 99 68 l 349 486 m 367 457 l 110 29 l 624 29 l 367 457 m 383 486 l 635 65 l 635 906 l 383 486 z "},"º":{"ha":732,"x_min":69,"x_max":663,"o":"m 69 972 l 663 972 l 663 0 l 69 0 l 69 972 m 108 944 l 365 515 l 624 944 l 108 944 m 349 486 l 99 903 l 99 68 l 349 486 m 367 457 l 110 29 l 624 29 l 367 457 m 383 486 l 635 65 l 635 906 l 383 486 z "},"¼":{"ha":732,"x_min":69,"x_max":663,"o":"m 69 972 l 663 972 l 663 0 l 69 0 l 69 972 m 108 944 l 365 515 l 624 944 l 108 944 m 349 486 l 99 903 l 99 68 l 349 486 m 367 457 l 110 29 l 624 29 l 367 457 m 383 486 l 635 65 l 635 906 l 383 486 z "},"½":{"ha":732,"x_min":69,"x_max":663,"o":"m 69 972 l 663 972 l 663 0 l 69 0 l 69 972 m 108 944 l 365 515 l 624 944 l 108 944 m 349 486 l 99 903 l 99 68 l 349 486 m 367 457 l 110 29 l 624 29 l 367 457 m 383 486 l 635 65 l 635 906 l 383 486 z "},"¾":{"ha":732,"x_min":69,"x_max":663,"o":"m 69 972 l 663 972 l 663 0 l 69 0 l 69 972 m 108 944 l 365 515 l 624 944 l 108 944 m 349 486 l 99 903 l 99 68 l 349 486 m 367 457 l 110 29 l 624 29 l 367 457 m 383 486 l 635 65 l 635 906 l 383 486 z "},"Æ":{"ha":732,"x_min":69,"x_max":663,"o":"m 69 972 l 663 972 l 663 0 l 69 0 l 69 972 m 108 944 l 365 515 l 624 944 l 108 944 m 349 486 l 99 903 l 99 68 l 349 486 m 367 457 l 110 29 l 624 29 l 367 457 m 383 486 l 635 65 l 635 906 l 383 486 z "},"Ð":{"ha":732,"x_min":69,"x_max":663,"o":"m 69 972 l 663 972 l 663 0 l 69 0 l 69 972 m 108 944 l 365 515 l 624 944 l 108 944 m 349 486 l 99 903 l 99 68 l 349 486 m 367 457 l 110 29 l 624 29 l 367 457 m 383 486 l 635 65 l 635 906 l 383 486 z "},"Þ":{"ha":732,"x_min":69,"x_max":663,"o":"m 69 972 l 663 972 l 663 0 l 69 0 l 69 972 m 108 944 l 365 515 l 624 944 l 108 944 m 349 486 l 99 903 l 99 68 l 349 486 m 367 457 l 110 29 l 624 29 l 367 457 m 383 486 l 635 65 l 635 906 l 383 486 z "},"æ":{"ha":732,"x_min":69,"x_max":663,"o":"m 69 972 l 663 972 l 663 0 l 69 0 l 69 972 m 108 944 l 365 515 l 624 944 l 108 944 m 349 486 l 99 903 l 99 68 l 349 486 m 367 457 l 110 29 l 624 29 l 367 457 m 383 486 l 635 65 l 635 906 l 383 486 z "},"ð":{"ha":732,"x_min":69,"x_max":663,"o":"m 69 972 l 663 972 l 663 0 l 69 0 l 69 972 m 108 944 l 365 515 l 624 944 l 108 944 m 349 486 l 99 903 l 99 68 l 349 486 m 367 457 l 110 29 l 624 29 l 367 457 m 383 486 l 635 65 l 635 906 l 383 486 z "},"þ":{"ha":732,"x_min":69,"x_max":663,"o":"m 69 972 l 663 972 l 663 0 l 69 0 l 69 972 m 108 944 l 365 515 l 624 944 l 108 944 m 349 486 l 99 903 l 99 68 l 349 486 m 367 457 l 110 29 l 624 29 l 367 457 m 383 486 l 635 65 l 635 906 l 383 486 z "},"―":{"ha":732,"x_min":69,"x_max":663,"o":"m 69 972 l 663 972 l 663 0 l 69 0 l 69 972 m 108 944 l 365 515 l 624 944 l 108 944 m 349 486 l 99 903 l 99 68 l 349 486 m 367 457 l 110 29 l 624 29 l 367 457 m 383 486 l 635 65 l 635 906 l 383 486 z "},"‖":{"ha":732,"x_min":69,"x_max":663,"o":"m 69 972 l 663 972 l 663 0 l 69 0 l 69 972 m 108 944 l 365 515 l 624 944 l 108 944 m 349 486 l 99 903 l 99 68 l 349 486 m 367 457 l 110 29 l 624 29 l 367 457 m 383 486 l 635 65 l 635 906 l 383 486 z "},"‗":{"ha":732,"x_min":69,"x_max":663,"o":"m 69 972 l 663 972 l 663 0 l 69 0 l 69 972 m 108 944 l 365 515 l 624 944 l 108 944 m 349 486 l 99 903 l 99 68 l 349 486 m 367 457 l 110 29 l 624 29 l 367 457 m 383 486 l 635 65 l 635 906 l 383 486 z "},"‚":{"ha":732,"x_min":69,"x_max":663,"o":"m 69 972 l 663 972 l 663 0 l 69 0 l 69 972 m 108 944 l 365 515 l 624 944 l 108 944 m 349 486 l 99 903 l 99 68 l 349 486 m 367 457 l 110 29 l 624 29 l 367 457 m 383 486 l 635 65 l 635 906 l 383 486 z "},"‛":{"ha":732,"x_min":69,"x_max":663,"o":"m 69 972 l 663 972 l 663 0 l 69 0 l 69 972 m 108 944 l 365 515 l 624 944 l 108 944 m 349 486 l 99 903 l 99 68 l 349 486 m 367 457 l 110 29 l 624 29 l 367 457 m 383 486 l 635 65 l 635 906 l 383 486 z "},"‟":{"ha":732,"x_min":69,"x_max":663,"o":"m 69 972 l 663 972 l 663 0 l 69 0 l 69 972 m 108 944 l 365 515 l 624 944 l 108 944 m 349 486 l 99 903 l 99 68 l 349 486 m 367 457 l 110 29 l 624 29 l 367 457 m 383 486 l 635 65 l 635 906 l 383 486 z "},"\u0000":{"ha":0,"x_min":0,"x_max":0,"o":""},"\n":{"ha":0,"x_min":0,"x_max":0,"o":""},"\r":{"ha":0,"x_min":0,"x_max":0,"o":""}," ":{"ha":208,"x_min":0,"x_max":0,"o":""},"!":{"ha":342,"x_min":26,"x_max":314,"o":"m 197 12 q 192 6 197 12 q 171 0 186 0 q 144 12 156 0 q 133 40 133 24 q 144 67 133 56 q 171 79 156 79 q 197 67 186 79 q 208 40 208 56 q 197 12 208 24 m 310 693 q 313 672 313 683 q 311 661 313 665 q 307 650 310 656 q 292 635 301 640 q 282 631 286 632 q 276 629 279 629 q 271 628 274 628 q 263 635 264 626 q 268 643 261 640 q 272 644 271 643 q 275 646 274 644 q 282 649 279 647 q 290 658 288 653 q 292 665 292 661 q 292 671 292 667 q 288 685 290 679 q 269 699 282 697 q 244 693 258 701 q 221 663 229 686 q 221 660 221 663 q 221 657 221 658 q 219 632 221 644 q 218 618 219 625 l 218 613 l 218 608 l 217 607 l 217 604 q 215 600 217 603 q 213 150 196 344 q 203 120 214 133 q 174 106 192 107 q 171 106 172 106 q 142 117 154 106 q 129 143 131 128 q 124 235 125 188 q 122 233 124 235 q 83 224 104 222 q 64 226 74 224 q 44 236 53 229 q 28 274 28 251 q 32 293 28 285 q 42 311 35 304 q 58 322 49 318 q 68 324 63 324 q 74 324 71 324 q 76 324 75 324 q 79 324 78 324 q 85 315 86 322 q 79 308 83 310 l 76 308 l 75 308 q 74 308 75 308 q 74 307 74 307 q 71 307 72 307 q 64 306 67 307 q 56 299 60 303 q 51 288 53 294 q 50 275 50 282 q 51 274 50 275 q 51 272 51 274 q 51 269 51 271 q 54 265 54 265 q 61 257 57 260 q 82 253 69 251 q 94 256 88 253 q 104 261 99 258 q 118 281 113 268 q 122 288 121 283 q 129 507 119 406 q 149 639 139 608 q 149 643 149 640 q 151 661 151 653 q 154 703 154 683 q 147 740 153 725 q 131 767 142 757 q 126 768 129 767 q 124 771 124 771 q 117 775 119 772 q 101 778 108 778 q 78 765 86 778 q 71 751 72 760 q 69 742 69 746 q 69 735 68 738 q 75 721 69 726 q 81 715 78 718 q 85 713 82 714 q 86 711 86 713 l 88 711 l 88 711 q 97 694 100 707 q 81 686 93 682 l 79 686 l 76 688 q 74 688 75 688 q 67 692 69 689 q 54 700 60 694 q 44 713 49 706 q 38 726 39 719 q 35 742 35 735 q 35 757 35 749 q 44 786 38 774 q 67 811 53 801 q 97 822 79 819 q 129 821 113 825 q 144 817 138 819 q 151 814 146 815 q 158 810 156 811 q 183 789 172 801 q 200 764 193 778 q 215 713 211 742 q 232 721 224 718 l 235 722 l 236 724 q 242 725 238 724 q 253 726 249 726 q 276 725 265 728 q 297 713 288 721 q 310 693 306 704 z "},"\"":{"ha":215,"x_min":28,"x_max":188,"o":"m 39 695 q 44 701 39 695 q 65 707 50 707 q 92 695 81 707 q 103 667 103 683 q 97 644 103 658 q 86 618 92 629 l 82 607 q 58 592 75 592 q 49 594 53 592 q 35 608 39 599 q 35 626 31 617 l 40 638 q 28 667 28 650 q 39 695 28 683 m 123 695 q 128 701 123 695 q 149 707 133 707 q 176 695 165 707 q 188 667 188 683 q 182 644 188 658 q 171 618 176 629 l 165 607 q 142 592 158 592 q 132 594 138 592 q 119 608 124 599 q 119 626 115 617 l 124 638 q 113 667 113 650 q 123 695 113 683 z "},"”":{"ha":215,"x_min":28,"x_max":188,"o":"m 39 695 q 44 701 39 695 q 65 707 50 707 q 92 695 81 707 q 103 667 103 683 q 97 644 103 658 q 86 618 92 629 l 82 607 q 58 592 75 592 q 49 594 53 592 q 35 608 39 599 q 35 626 31 617 l 40 638 q 28 667 28 650 q 39 695 28 683 m 123 695 q 128 701 123 695 q 149 707 133 707 q 176 695 165 707 q 188 667 188 683 q 182 644 188 658 q 171 618 176 629 l 165 607 q 142 592 158 592 q 132 594 138 592 q 119 608 124 599 q 119 626 115 617 l 124 638 q 113 667 113 650 q 123 695 113 683 z "},"#":{"ha":529,"x_min":26,"x_max":501,"o":"m 458 258 q 488 246 475 258 q 500 216 500 233 q 488 187 500 199 q 458 175 475 175 l 385 175 l 378 44 q 365 17 376 28 q 336 6 353 6 q 333 6 335 6 q 305 19 317 6 q 294 49 293 32 l 297 86 q 283 97 292 94 q 258 101 272 104 q 235 89 246 100 l 233 89 q 225 89 229 85 q 225 97 222 93 q 254 119 238 113 q 293 119 274 126 q 299 117 296 118 l 301 175 l 189 175 l 151 15 q 137 -8 149 1 q 111 -17 125 -17 q 101 -15 107 -17 q 76 3 85 -11 q 71 35 67 18 l 104 175 l 69 175 q 40 187 53 175 q 28 216 28 199 q 40 246 28 233 q 69 258 53 258 l 124 258 l 153 383 l 93 386 q 64 399 75 386 q 53 428 53 411 q 67 458 54 446 q 96 469 79 469 l 172 465 l 217 654 q 235 680 221 671 q 267 685 250 689 q 292 666 283 681 q 297 635 301 651 l 257 463 l 318 460 l 331 685 q 344 713 332 701 q 374 724 357 725 q 403 710 392 722 q 414 679 415 697 l 401 457 l 440 456 q 470 442 458 454 q 481 411 482 429 q 468 383 481 394 q 439 372 456 372 q 438 372 438 372 l 396 374 l 394 338 q 396 336 396 336 q 415 322 404 325 q 419 322 418 322 l 421 321 q 422 321 422 321 q 429 322 426 321 q 442 328 436 324 q 451 340 449 333 q 451 357 453 347 q 456 363 451 361 q 461 360 460 363 q 465 338 465 349 q 457 315 464 326 q 439 299 450 306 q 428 294 433 296 q 425 293 425 293 l 422 293 l 421 293 q 415 292 418 293 q 392 294 404 292 l 390 258 l 458 258 m 307 258 l 313 376 l 238 379 l 208 258 l 307 258 z "},"$":{"ha":307,"x_min":18,"x_max":282,"o":"m 171 363 q 210 331 196 344 q 245 290 225 318 q 273 221 265 263 q 278 124 281 179 q 214 15 272 51 l 214 -12 q 201 -42 214 -31 q 172 -54 189 -54 q 142 -42 154 -54 q 131 -12 131 -31 l 131 -10 q 101 -11 117 -11 q 85 -11 93 -11 q 56 3 67 -10 q 46 34 44 17 q 60 63 47 51 q 90 72 72 74 q 157 81 128 69 q 194 129 192 93 q 194 147 194 139 q 193 150 193 150 q 176 168 188 163 q 151 172 165 175 q 126 160 139 169 q 118 160 122 156 q 118 168 114 164 q 147 189 131 183 q 185 189 165 196 q 193 186 189 188 q 179 238 190 215 q 157 269 168 260 q 122 294 146 279 q 81 326 96 313 q 49 369 67 339 q 29 440 32 400 q 72 631 19 576 q 131 664 96 654 l 131 682 q 142 711 131 699 q 172 724 154 724 q 201 711 189 724 q 214 682 214 699 l 214 667 q 236 667 228 667 q 265 654 253 667 q 278 624 278 642 q 265 595 278 607 q 236 583 253 583 q 207 585 226 583 q 132 572 147 588 q 113 454 107 546 q 119 442 117 446 q 140 428 128 429 q 144 426 142 426 l 146 426 q 147 426 147 426 q 154 428 150 426 q 167 433 161 429 q 175 446 172 439 q 176 461 178 453 l 176 463 q 181 467 175 467 q 186 464 185 468 q 189 443 190 454 q 182 421 189 431 q 164 404 175 411 q 151 400 158 401 q 149 399 149 399 l 147 399 l 146 399 q 140 397 143 397 q 129 397 135 397 q 171 363 139 385 z "},"%":{"ha":510,"x_min":28,"x_max":482,"o":"m 214 440 q 128 374 190 374 q 42 440 65 374 q 28 547 28 476 q 47 671 28 632 q 128 719 72 719 q 207 671 183 719 q 228 547 228 632 q 214 440 228 476 m 124 636 q 111 547 111 621 q 125 457 111 467 q 128 457 126 457 q 131 457 129 457 q 144 547 144 468 q 132 636 144 621 q 128 636 131 636 q 124 636 125 636 m 461 282 q 481 157 481 242 q 468 50 481 88 q 381 -17 444 -17 q 294 50 318 -17 q 282 157 282 88 q 301 282 282 242 q 381 329 326 329 q 461 282 436 329 m 383 67 q 397 157 397 78 q 385 246 397 231 q 381 246 383 246 q 378 246 379 246 q 365 157 365 231 q 379 67 365 76 q 381 67 381 67 q 383 67 383 67 m 336 426 l 282 321 q 279 315 281 318 l 113 -7 q 76 -29 101 -29 q 57 -25 65 -29 q 36 0 42 -17 q 39 32 31 17 l 82 115 q 63 122 71 117 q 36 150 43 132 q 32 186 29 167 q 39 192 33 193 q 44 186 44 190 l 44 185 q 51 158 44 169 q 72 143 58 147 q 96 142 83 139 l 364 663 q 389 683 372 678 q 421 681 406 689 q 441 657 436 674 q 439 625 446 640 l 378 507 q 390 506 383 506 q 406 500 399 503 q 419 493 413 497 q 441 469 433 483 q 450 439 449 454 q 446 410 450 425 q 440 397 443 403 q 432 385 436 390 q 420 375 426 379 q 407 369 414 371 q 393 367 400 367 q 386 367 389 367 q 382 368 383 367 q 378 368 381 368 q 372 378 369 369 q 379 385 374 383 l 382 385 q 383 385 383 385 q 386 385 385 385 q 390 386 389 385 q 400 389 396 386 q 413 400 407 393 q 415 408 414 404 q 418 418 418 413 q 418 435 419 426 q 411 450 417 443 q 399 458 406 456 q 392 461 396 460 q 385 461 389 461 q 376 461 379 461 q 374 461 375 461 q 372 461 372 461 q 369 460 371 460 q 351 447 361 457 q 375 436 365 444 q 390 410 386 426 q 388 404 392 406 q 381 406 383 403 q 365 424 375 418 q 346 429 357 431 q 336 426 340 428 z "},"&":{"ha":485,"x_min":25,"x_max":460,"o":"m 454 290 q 403 156 433 222 q 397 144 400 150 q 443 75 421 108 q 449 44 453 61 q 432 18 446 28 q 401 12 418 8 q 374 29 383 15 q 350 64 365 42 q 256 3 306 3 q 151 42 188 3 q 108 169 114 82 q 108 190 108 179 q 106 199 107 196 q 88 217 99 211 q 63 221 76 224 q 39 208 50 218 l 38 208 q 29 208 33 204 q 29 217 26 213 q 58 238 42 232 q 97 238 78 244 q 115 229 107 235 q 185 344 129 283 q 140 476 142 432 q 185 647 133 600 q 294 675 222 683 q 362 649 336 669 q 394 604 388 629 q 405 552 401 579 q 404 507 408 525 q 383 442 403 475 q 347 389 364 408 q 293 335 329 369 q 290 333 292 335 q 288 329 289 331 q 344 231 313 283 q 375 314 363 275 q 394 339 379 331 q 426 342 410 347 q 451 321 443 336 q 454 290 460 306 m 303 551 q 307 529 307 540 q 299 507 306 518 q 281 492 292 497 q 269 486 275 488 q 267 485 267 486 l 264 485 l 263 485 q 257 485 260 485 q 232 488 244 483 q 222 490 228 488 q 224 481 224 483 q 247 407 224 458 q 321 513 319 476 q 315 578 324 563 q 285 592 310 589 q 265 593 274 593 q 242 586 249 593 q 226 549 231 576 q 238 528 232 536 q 257 514 246 517 q 261 514 260 514 l 263 513 q 264 513 264 513 q 271 514 268 513 q 283 521 278 515 q 292 532 289 525 q 293 549 294 539 q 297 554 293 553 q 303 551 301 554 m 256 86 q 301 142 272 92 q 261 207 281 175 q 228 265 243 238 q 192 175 189 217 q 199 124 193 143 q 215 97 204 104 q 233 88 225 89 q 256 86 240 86 z "},"'":{"ha":132,"x_min":28,"x_max":104,"o":"m 39 695 q 44 701 39 695 q 65 707 50 707 q 92 695 81 707 q 103 667 103 683 q 97 644 103 658 q 86 618 92 629 l 82 607 q 58 592 75 592 q 49 594 53 592 q 35 608 39 599 q 35 626 31 617 l 40 638 q 28 667 28 650 q 39 695 28 683 z "},"’":{"ha":132,"x_min":28,"x_max":104,"o":"m 39 695 q 44 701 39 695 q 65 707 50 707 q 92 695 81 707 q 103 667 103 683 q 97 644 103 658 q 86 618 92 629 l 82 607 q 58 592 75 592 q 49 594 53 592 q 35 608 39 599 q 35 626 31 617 l 40 638 q 28 667 28 650 q 39 695 28 683 z "},"(":{"ha":356,"x_min":25,"x_max":328,"o":"m 286 54 q 315 42 303 54 q 328 12 328 29 q 315 -17 328 -6 q 286 -29 303 -29 q 144 68 194 -29 q 106 203 118 121 q 83 200 94 199 q 47 214 63 200 q 28 244 35 225 q 32 253 26 250 q 39 249 38 254 l 40 249 q 58 228 47 235 q 83 222 69 221 q 103 231 93 224 q 97 344 97 283 q 99 429 97 390 q 108 513 101 468 q 128 593 114 558 q 162 658 142 628 q 213 703 182 688 q 286 719 244 719 q 315 708 303 719 q 328 678 328 696 q 315 649 328 661 q 286 636 303 636 q 218 593 242 636 q 192 508 201 561 q 197 510 196 510 q 213 513 204 513 q 228 513 221 513 q 258 500 244 510 q 279 478 272 490 q 289 450 286 464 q 289 435 289 442 q 286 421 289 428 q 281 406 285 413 q 272 395 276 400 q 260 388 267 390 q 254 385 257 385 q 250 383 251 383 q 246 382 249 382 q 236 388 239 379 q 240 397 235 393 l 242 399 q 243 399 242 399 q 246 400 244 400 q 250 403 247 401 q 257 410 254 406 q 263 425 263 417 q 263 435 263 429 q 261 443 263 439 q 253 460 257 453 q 239 469 247 465 q 225 472 233 472 q 218 471 221 472 q 210 468 214 471 q 203 464 206 467 q 201 463 203 464 q 200 461 200 463 q 197 460 199 461 q 188 440 192 454 q 214 440 200 444 q 239 425 228 438 q 239 418 243 421 q 232 417 236 414 q 211 426 221 425 q 190 421 200 428 q 182 414 186 418 q 181 344 181 381 q 219 106 181 182 q 286 54 244 54 z "},")":{"ha":356,"x_min":28,"x_max":329,"o":"m 325 251 q 328 244 329 250 q 308 214 321 225 q 272 200 293 200 q 250 203 261 199 q 211 67 238 121 q 69 -31 161 -31 q 40 -18 53 -31 q 28 12 28 -6 q 40 42 28 29 q 69 54 53 54 q 136 106 111 54 q 175 344 175 182 q 174 414 175 381 q 165 421 169 418 q 144 426 156 428 q 124 417 135 425 q 117 418 119 414 q 117 425 114 422 q 142 440 128 438 q 168 440 156 444 q 158 460 164 454 q 156 461 157 461 q 154 463 156 461 q 153 464 153 464 q 144 468 150 467 q 138 471 142 471 q 131 472 133 472 q 115 469 122 472 q 103 460 108 465 q 94 443 97 453 q 93 435 93 439 q 93 425 93 429 q 99 410 93 417 q 106 403 101 406 q 110 400 107 401 q 113 399 111 400 q 114 399 114 399 l 115 397 q 118 386 122 393 q 110 382 115 381 q 106 383 107 382 q 101 385 104 383 q 96 388 99 385 q 84 395 89 390 q 75 406 79 400 q 68 421 71 413 q 67 435 67 428 q 67 450 67 442 q 76 478 69 464 q 97 500 83 490 q 126 513 110 510 q 143 513 135 513 q 158 510 150 513 q 164 508 160 510 q 138 593 154 561 q 69 636 114 636 q 40 649 53 636 q 28 678 28 661 q 40 708 28 696 q 69 719 53 719 q 142 703 110 719 q 194 658 174 688 q 228 593 214 628 q 248 513 242 558 q 256 429 254 468 q 258 344 258 390 q 253 231 258 283 q 272 222 263 224 q 297 228 286 221 q 315 249 308 235 q 325 251 319 254 z "},"*":{"ha":304,"x_min":26,"x_max":278,"o":"m 257 597 q 273 585 268 594 q 275 565 278 576 q 250 547 269 547 q 242 549 246 547 l 175 569 l 175 518 q 167 499 175 507 q 149 492 160 492 q 131 499 139 492 q 124 518 124 507 l 124 549 l 69 503 q 53 497 63 497 q 33 507 42 497 q 28 525 26 514 q 38 543 29 536 l 99 594 l 65 604 q 51 617 56 607 q 49 637 46 626 q 61 652 51 647 q 81 653 71 657 l 124 640 l 124 707 q 131 725 124 718 q 149 732 139 732 q 167 725 160 732 q 175 707 175 718 l 175 658 l 211 689 q 230 694 219 696 q 247 685 240 693 q 253 667 254 678 q 244 650 253 656 l 203 615 l 257 597 z "},"+":{"ha":304,"x_min":28,"x_max":276,"o":"m 233 344 q 263 332 250 344 q 275 302 275 319 q 263 273 275 285 q 233 261 250 261 l 193 261 l 193 221 q 181 191 193 203 q 151 179 168 179 q 122 191 135 179 q 110 221 110 203 l 110 261 l 69 261 q 40 273 53 261 q 28 302 28 285 q 40 332 28 319 q 69 344 53 344 l 110 344 l 110 385 q 122 414 110 401 q 151 426 135 426 q 181 414 168 426 q 193 385 193 401 l 193 344 l 233 344 z "},",":{"ha":132,"x_min":28,"x_max":104,"o":"m 39 67 q 44 73 39 67 q 65 79 50 79 q 92 67 81 79 q 103 40 103 56 l 82 -19 q 58 -35 75 -35 q 49 -33 53 -35 q 35 -19 39 -29 q 35 0 31 -10 l 40 11 q 28 40 28 22 q 39 67 28 56 z "},"-":{"ha":304,"x_min":28,"x_max":276,"o":"m 233 344 q 263 332 250 344 q 275 302 275 319 q 263 273 275 285 q 233 261 250 261 l 69 261 q 40 273 53 261 q 28 302 28 285 q 40 332 28 319 q 69 344 53 344 l 233 344 z "},".":{"ha":132,"x_min":28,"x_max":104,"o":"m 39 67 q 44 73 39 67 q 65 79 50 79 q 92 67 81 79 q 103 40 103 56 q 92 12 103 24 q 65 0 81 0 q 39 12 50 0 q 28 40 28 24 q 39 67 28 56 z "},"/":{"ha":449,"x_min":22,"x_max":422,"o":"m 421 626 q 418 606 421 617 q 414 594 415 599 q 406 586 410 590 q 386 575 397 578 q 375 574 381 574 q 371 574 374 574 q 365 575 368 574 q 358 583 357 576 q 367 590 360 590 q 371 590 369 590 q 375 590 372 590 q 382 592 378 592 q 392 599 389 594 q 396 604 394 601 q 397 611 396 607 q 397 625 399 618 q 383 643 396 638 q 358 646 374 649 q 326 624 342 642 q 326 621 326 622 q 325 618 325 619 q 317 593 321 606 q 313 581 314 588 l 311 579 q 140 8 183 214 q 122 -18 136 -8 q 90 -24 108 -28 q 88 -24 89 -24 q 64 -4 72 -18 q 58 25 56 10 q 115 242 78 119 q 108 240 111 242 q 68 242 89 235 q 50 251 58 244 q 35 265 42 257 q 31 307 24 285 q 39 324 33 317 q 54 338 46 333 q 74 343 63 343 q 83 342 78 343 q 88 340 85 342 q 90 340 90 340 q 93 339 92 339 q 96 329 99 336 q 90 325 94 325 l 86 325 l 85 325 q 83 325 85 325 q 81 326 82 326 q 74 326 76 326 q 64 322 68 325 q 57 313 60 318 q 53 301 53 307 q 52 300 53 301 q 51 299 51 299 q 51 296 51 297 q 53 290 53 292 q 57 281 54 285 q 76 271 64 272 q 88 269 81 269 q 99 272 93 271 q 118 286 108 276 q 135 307 126 294 q 239 597 196 501 q 242 604 239 601 l 242 606 l 242 606 q 250 621 247 617 q 253 624 251 622 q 261 642 257 633 q 275 681 269 663 q 279 718 279 701 q 269 749 278 736 q 268 751 269 749 q 265 754 265 754 q 258 760 263 757 q 246 767 253 765 q 219 763 232 772 q 208 751 214 758 q 204 743 206 747 q 203 735 203 739 q 204 721 201 728 q 208 714 206 717 q 211 710 210 711 q 213 708 211 710 l 214 707 q 218 689 225 700 q 200 685 211 678 l 197 686 l 196 688 q 193 690 194 689 q 188 694 190 692 q 178 707 182 700 q 172 722 174 714 q 169 738 169 729 q 172 753 169 744 q 176 767 174 760 q 194 792 183 782 q 222 808 206 804 q 254 811 238 814 q 285 801 271 810 q 299 792 292 797 q 304 788 300 790 q 310 782 307 783 q 326 754 319 769 q 336 725 333 742 q 336 672 340 701 q 354 676 346 675 l 357 676 l 360 676 q 365 676 361 676 q 376 675 372 676 q 399 667 389 672 q 414 649 408 660 q 421 626 419 639 z "},":":{"ha":132,"x_min":26,"x_max":104,"o":"m 92 160 q 86 154 92 160 q 65 149 81 149 q 39 160 50 149 q 28 188 28 171 q 39 216 28 204 q 65 228 50 228 q 92 216 81 228 q 103 188 103 204 q 92 160 103 171 m 92 388 q 86 382 92 388 q 65 376 81 376 q 39 388 50 376 q 28 415 28 399 q 39 444 28 432 q 65 456 50 456 q 92 444 81 456 q 103 415 103 432 q 92 388 103 399 z "},";":{"ha":132,"x_min":28,"x_max":104,"o":"m 39 216 q 44 222 39 216 q 65 228 50 228 q 92 216 81 228 q 103 188 103 204 l 82 128 q 58 113 75 113 q 49 115 53 113 q 35 128 39 119 q 35 147 31 138 l 40 158 q 28 188 28 171 q 39 216 28 204 m 92 388 q 86 382 92 388 q 65 376 81 376 q 39 388 50 376 q 28 415 28 399 q 39 444 28 432 q 65 456 50 456 q 92 444 81 456 q 103 415 103 432 q 92 388 103 399 z "},"<":{"ha":265,"x_min":28,"x_max":239,"o":"m 122 332 l 228 194 q 237 163 239 181 q 221 136 235 146 q 194 128 210 128 q 163 143 175 128 l 36 307 q 28 332 28 318 q 36 357 28 346 l 163 521 q 190 537 172 535 q 221 528 207 539 q 237 501 235 518 q 228 469 239 483 l 122 332 z "},"=":{"ha":304,"x_min":28,"x_max":276,"o":"m 69 326 q 40 338 53 326 q 28 367 28 350 q 40 397 28 385 q 69 410 53 410 l 233 410 q 263 397 250 410 q 275 367 275 385 q 263 338 275 350 q 233 326 250 326 l 69 326 m 233 303 q 263 290 250 303 q 275 260 275 278 q 263 231 275 243 q 233 219 250 219 l 69 219 q 40 231 53 219 q 28 260 28 243 q 40 290 28 278 q 69 303 53 303 l 233 303 z "},">":{"ha":265,"x_min":25,"x_max":249,"o":"m 228 357 q 228 307 247 332 l 103 143 q 69 128 90 128 q 44 136 56 128 q 28 163 31 146 q 36 194 26 181 l 143 332 l 36 469 q 28 501 26 483 q 44 528 31 518 q 75 537 58 539 q 103 521 92 535 l 228 357 z "},"?":{"ha":346,"x_min":26,"x_max":333,"o":"m 182 703 q 315 446 333 671 q 301 367 313 401 q 272 310 290 333 q 241 274 254 286 q 206 246 228 261 q 218 233 214 240 q 226 211 226 222 q 224 189 228 200 q 217 186 221 185 q 214 192 213 188 q 213 208 215 200 q 204 219 210 215 q 190 226 197 225 q 185 226 188 226 q 183 226 185 226 l 181 226 q 146 146 147 197 q 133 117 146 129 q 104 106 121 106 q 103 106 104 106 q 74 118 86 106 q 63 147 63 131 q 71 209 63 182 q 95 256 79 236 q 122 286 111 276 q 154 311 133 296 q 213 372 199 343 q 182 374 197 368 q 153 396 165 381 q 154 404 149 400 q 163 404 158 408 q 188 392 175 393 q 213 394 200 389 q 225 407 219 400 q 232 451 231 426 q 219 578 238 529 q 172 649 201 628 q 171 649 172 649 q 165 651 169 650 q 163 653 165 651 q 160 654 161 654 q 149 658 156 656 q 106 657 125 664 q 103 647 103 653 q 107 626 103 636 q 124 614 113 618 q 147 613 133 610 q 153 608 153 614 q 150 603 154 604 q 119 600 133 597 q 92 615 103 603 q 81 642 83 626 q 71 629 75 636 q 67 586 60 608 q 99 551 74 565 q 106 533 111 546 q 88 526 99 522 q 58 544 71 533 q 36 574 43 557 q 28 610 28 590 q 35 646 28 628 q 82 697 49 679 q 69 719 74 707 q 71 764 63 742 q 97 797 79 782 q 108 794 104 801 q 108 785 113 789 q 94 757 96 771 q 99 731 92 743 q 117 713 104 718 q 124 710 119 711 q 158 708 142 711 q 176 706 168 707 q 182 703 178 704 m 133 12 q 128 6 133 12 q 106 0 122 0 q 79 12 90 0 q 68 40 68 24 q 79 67 68 56 q 106 79 90 79 q 133 67 122 79 q 144 40 144 56 q 133 12 144 24 z "},"@":{"ha":601,"x_min":26,"x_max":574,"o":"m 496 592 q 574 321 574 500 q 544 181 574 233 q 431 113 507 113 q 347 143 378 111 q 283 126 321 126 q 171 172 200 126 q 149 301 149 207 q 176 440 149 404 q 278 476 204 476 q 324 468 301 476 q 357 481 338 482 q 385 466 374 479 q 396 436 397 453 q 392 378 393 399 q 392 376 392 378 q 392 375 392 376 q 390 333 390 353 q 407 324 397 326 q 410 324 408 324 l 413 324 q 414 324 414 324 q 419 324 417 324 q 432 331 426 326 q 441 342 439 335 q 443 358 443 350 q 447 364 442 364 q 451 361 450 365 q 456 339 457 350 q 447 318 454 328 q 431 301 440 307 q 418 296 424 299 q 415 296 415 296 l 414 296 l 413 294 q 406 294 410 294 q 389 294 399 293 q 406 201 390 218 q 431 196 411 196 q 490 321 490 196 q 300 593 490 593 q 249 588 272 593 q 199 567 226 583 q 154 523 172 551 q 124 443 136 494 q 111 321 111 392 q 300 50 111 50 q 330 38 318 50 q 342 8 342 25 q 330 -22 342 -10 q 300 -33 318 -33 q 106 51 176 -33 q 28 321 28 143 q 44 470 28 406 q 88 573 61 535 q 151 635 114 611 q 224 668 189 660 q 300 676 260 676 q 496 592 424 676 m 307 257 q 308 379 304 301 q 297 388 307 383 q 278 393 288 393 q 243 389 246 393 q 232 301 232 375 q 240 217 232 231 q 283 210 246 210 q 296 210 292 210 q 299 225 299 218 q 290 249 299 239 q 267 265 282 260 q 264 272 261 267 q 271 276 265 278 q 303 261 290 272 q 307 257 306 260 z "},"A":{"ha":671,"x_min":21,"x_max":650,"o":"m 633 642 q 644 624 640 633 q 649 603 647 614 q 647 582 649 593 q 646 578 647 581 q 644 572 644 574 q 640 563 643 567 q 611 531 631 543 q 576 513 597 519 q 567 510 572 511 q 572 500 569 504 q 576 468 579 486 q 569 461 576 461 q 563 468 563 463 q 555 490 561 482 q 539 499 549 497 q 532 499 536 500 q 533 8 536 336 q 522 -21 533 -8 q 492 -33 510 -33 q 463 -21 475 -33 q 450 8 450 -8 q 451 261 451 139 l 319 261 q 321 142 319 219 q 321 121 321 138 q 321 103 321 104 q 303 19 317 54 q 281 -19 294 -1 q 249 -51 267 -37 q 210 -72 231 -64 q 189 -79 200 -76 q 168 -83 178 -82 q 146 -85 156 -85 q 124 -82 135 -85 q 82 -67 101 -79 q 29 0 43 -43 q 22 42 21 21 q 33 83 24 64 q 58 115 42 101 q 75 126 65 121 q 93 136 83 132 q 104 131 101 139 q 100 119 107 124 q 57 72 67 101 q 60 13 46 42 q 88 -21 69 -8 q 86 -8 86 -14 q 101 22 88 10 q 129 39 111 33 q 135 35 133 40 q 132 28 136 31 q 113 13 118 22 q 106 -8 106 3 q 114 -31 107 -21 q 119 -35 115 -32 q 160 -35 139 -39 q 174 -29 165 -33 q 188 -24 182 -26 q 211 -6 201 -15 q 239 42 231 13 q 246 104 246 68 q 245 107 246 106 q 244 108 244 108 q 244 109 244 108 q 244 111 244 110 q 238 264 239 201 q 219 268 226 267 q 203 268 210 269 q 188 261 194 267 q 183 258 185 260 l 182 257 q 181 256 182 257 q 181 256 181 256 q 175 249 178 253 q 169 231 171 240 q 174 211 169 219 q 188 194 178 201 q 189 183 193 190 q 181 182 186 179 q 156 199 165 188 q 142 226 144 210 q 142 260 138 243 q 147 276 143 268 q 149 281 147 278 q 151 285 150 283 q 156 290 153 288 q 182 314 167 306 q 215 326 197 324 q 238 328 226 328 q 244 404 239 371 q 339 549 263 513 q 447 567 379 567 q 444 588 446 582 q 428 617 440 610 q 382 619 406 624 q 339 607 358 615 q 308 606 324 600 q 285 628 292 613 q 284 660 278 644 q 306 683 290 676 q 327 692 314 688 q 365 701 340 696 q 417 704 389 707 q 467 690 444 701 q 526 603 515 664 q 531 564 529 593 q 533 564 531 564 q 535 564 535 564 q 563 565 550 564 q 586 572 576 568 q 603 585 597 576 q 606 588 604 586 q 607 590 606 589 q 608 593 608 593 q 611 604 611 599 q 608 625 614 615 q 567 651 597 650 l 565 651 q 558 660 558 651 q 564 667 558 665 q 601 664 582 669 q 633 642 621 657 m 321 339 l 450 339 q 449 489 450 429 q 372 478 397 489 q 336 435 347 467 q 321 339 325 403 z "},"À":{"ha":671,"x_min":21,"x_max":650,"o":"m 633 642 q 644 624 640 633 q 649 603 647 614 q 647 582 649 593 q 646 578 647 581 q 644 572 644 574 q 640 563 643 567 q 611 531 631 543 q 576 513 597 519 q 567 510 572 511 q 572 500 569 504 q 576 468 579 486 q 569 461 576 461 q 563 468 563 463 q 555 490 561 482 q 539 499 549 497 q 532 499 536 500 q 533 8 536 336 q 522 -21 533 -8 q 492 -33 510 -33 q 463 -21 475 -33 q 450 8 450 -8 q 451 261 451 139 l 319 261 q 321 142 319 219 q 321 121 321 138 q 321 103 321 104 q 303 19 317 54 q 281 -19 294 -1 q 249 -51 267 -37 q 210 -72 231 -64 q 189 -79 200 -76 q 168 -83 178 -82 q 146 -85 156 -85 q 124 -82 135 -85 q 82 -67 101 -79 q 29 0 43 -43 q 22 42 21 21 q 33 83 24 64 q 58 115 42 101 q 75 126 65 121 q 93 136 83 132 q 104 131 101 139 q 100 119 107 124 q 57 72 67 101 q 60 13 46 42 q 88 -21 69 -8 q 86 -8 86 -14 q 101 22 88 10 q 129 39 111 33 q 135 35 133 40 q 132 28 136 31 q 113 13 118 22 q 106 -8 106 3 q 114 -31 107 -21 q 119 -35 115 -32 q 160 -35 139 -39 q 174 -29 165 -33 q 188 -24 182 -26 q 211 -6 201 -15 q 239 42 231 13 q 246 104 246 68 q 245 107 246 106 q 244 108 244 108 q 244 109 244 108 q 244 111 244 110 q 238 264 239 201 q 219 268 226 267 q 203 268 210 269 q 188 261 194 267 q 183 258 185 260 l 182 257 q 181 256 182 257 q 181 256 181 256 q 175 249 178 253 q 169 231 171 240 q 174 211 169 219 q 188 194 178 201 q 189 183 193 190 q 181 182 186 179 q 156 199 165 188 q 142 226 144 210 q 142 260 138 243 q 147 276 143 268 q 149 281 147 278 q 151 285 150 283 q 156 290 153 288 q 182 314 167 306 q 215 326 197 324 q 238 328 226 328 q 244 404 239 371 q 339 549 263 513 q 447 567 379 567 q 444 588 446 582 q 428 617 440 610 q 382 619 406 624 q 339 607 358 615 q 308 606 324 600 q 285 628 292 613 q 284 660 278 644 q 306 683 290 676 q 327 692 314 688 q 365 701 340 696 q 417 704 389 707 q 467 690 444 701 q 526 603 515 664 q 531 564 529 593 q 533 564 531 564 q 535 564 535 564 q 563 565 550 564 q 586 572 576 568 q 603 585 597 576 q 606 588 604 586 q 607 590 606 589 q 608 593 608 593 q 611 604 611 599 q 608 625 614 615 q 567 651 597 650 l 565 651 q 558 660 558 651 q 564 667 558 665 q 601 664 582 669 q 633 642 621 657 m 321 339 l 450 339 q 449 489 450 429 q 372 478 397 489 q 336 435 347 467 q 321 339 325 403 z "},"Á":{"ha":671,"x_min":21,"x_max":650,"o":"m 633 642 q 644 624 640 633 q 649 603 647 614 q 647 582 649 593 q 646 578 647 581 q 644 572 644 574 q 640 563 643 567 q 611 531 631 543 q 576 513 597 519 q 567 510 572 511 q 572 500 569 504 q 576 468 579 486 q 569 461 576 461 q 563 468 563 463 q 555 490 561 482 q 539 499 549 497 q 532 499 536 500 q 533 8 536 336 q 522 -21 533 -8 q 492 -33 510 -33 q 463 -21 475 -33 q 450 8 450 -8 q 451 261 451 139 l 319 261 q 321 142 319 219 q 321 121 321 138 q 321 103 321 104 q 303 19 317 54 q 281 -19 294 -1 q 249 -51 267 -37 q 210 -72 231 -64 q 189 -79 200 -76 q 168 -83 178 -82 q 146 -85 156 -85 q 124 -82 135 -85 q 82 -67 101 -79 q 29 0 43 -43 q 22 42 21 21 q 33 83 24 64 q 58 115 42 101 q 75 126 65 121 q 93 136 83 132 q 104 131 101 139 q 100 119 107 124 q 57 72 67 101 q 60 13 46 42 q 88 -21 69 -8 q 86 -8 86 -14 q 101 22 88 10 q 129 39 111 33 q 135 35 133 40 q 132 28 136 31 q 113 13 118 22 q 106 -8 106 3 q 114 -31 107 -21 q 119 -35 115 -32 q 160 -35 139 -39 q 174 -29 165 -33 q 188 -24 182 -26 q 211 -6 201 -15 q 239 42 231 13 q 246 104 246 68 q 245 107 246 106 q 244 108 244 108 q 244 109 244 108 q 244 111 244 110 q 238 264 239 201 q 219 268 226 267 q 203 268 210 269 q 188 261 194 267 q 183 258 185 260 l 182 257 q 181 256 182 257 q 181 256 181 256 q 175 249 178 253 q 169 231 171 240 q 174 211 169 219 q 188 194 178 201 q 189 183 193 190 q 181 182 186 179 q 156 199 165 188 q 142 226 144 210 q 142 260 138 243 q 147 276 143 268 q 149 281 147 278 q 151 285 150 283 q 156 290 153 288 q 182 314 167 306 q 215 326 197 324 q 238 328 226 328 q 244 404 239 371 q 339 549 263 513 q 447 567 379 567 q 444 588 446 582 q 428 617 440 610 q 382 619 406 624 q 339 607 358 615 q 308 606 324 600 q 285 628 292 613 q 284 660 278 644 q 306 683 290 676 q 327 692 314 688 q 365 701 340 696 q 417 704 389 707 q 467 690 444 701 q 526 603 515 664 q 531 564 529 593 q 533 564 531 564 q 535 564 535 564 q 563 565 550 564 q 586 572 576 568 q 603 585 597 576 q 606 588 604 586 q 607 590 606 589 q 608 593 608 593 q 611 604 611 599 q 608 625 614 615 q 567 651 597 650 l 565 651 q 558 660 558 651 q 564 667 558 665 q 601 664 582 669 q 633 642 621 657 m 321 339 l 450 339 q 449 489 450 429 q 372 478 397 489 q 336 435 347 467 q 321 339 325 403 z "},"Â":{"ha":671,"x_min":21,"x_max":650,"o":"m 633 642 q 644 624 640 633 q 649 603 647 614 q 647 582 649 593 q 646 578 647 581 q 644 572 644 574 q 640 563 643 567 q 611 531 631 543 q 576 513 597 519 q 567 510 572 511 q 572 500 569 504 q 576 468 579 486 q 569 461 576 461 q 563 468 563 463 q 555 490 561 482 q 539 499 549 497 q 532 499 536 500 q 533 8 536 336 q 522 -21 533 -8 q 492 -33 510 -33 q 463 -21 475 -33 q 450 8 450 -8 q 451 261 451 139 l 319 261 q 321 142 319 219 q 321 121 321 138 q 321 103 321 104 q 303 19 317 54 q 281 -19 294 -1 q 249 -51 267 -37 q 210 -72 231 -64 q 189 -79 200 -76 q 168 -83 178 -82 q 146 -85 156 -85 q 124 -82 135 -85 q 82 -67 101 -79 q 29 0 43 -43 q 22 42 21 21 q 33 83 24 64 q 58 115 42 101 q 75 126 65 121 q 93 136 83 132 q 104 131 101 139 q 100 119 107 124 q 57 72 67 101 q 60 13 46 42 q 88 -21 69 -8 q 86 -8 86 -14 q 101 22 88 10 q 129 39 111 33 q 135 35 133 40 q 132 28 136 31 q 113 13 118 22 q 106 -8 106 3 q 114 -31 107 -21 q 119 -35 115 -32 q 160 -35 139 -39 q 174 -29 165 -33 q 188 -24 182 -26 q 211 -6 201 -15 q 239 42 231 13 q 246 104 246 68 q 245 107 246 106 q 244 108 244 108 q 244 109 244 108 q 244 111 244 110 q 238 264 239 201 q 219 268 226 267 q 203 268 210 269 q 188 261 194 267 q 183 258 185 260 l 182 257 q 181 256 182 257 q 181 256 181 256 q 175 249 178 253 q 169 231 171 240 q 174 211 169 219 q 188 194 178 201 q 189 183 193 190 q 181 182 186 179 q 156 199 165 188 q 142 226 144 210 q 142 260 138 243 q 147 276 143 268 q 149 281 147 278 q 151 285 150 283 q 156 290 153 288 q 182 314 167 306 q 215 326 197 324 q 238 328 226 328 q 244 404 239 371 q 339 549 263 513 q 447 567 379 567 q 444 588 446 582 q 428 617 440 610 q 382 619 406 624 q 339 607 358 615 q 308 606 324 600 q 285 628 292 613 q 284 660 278 644 q 306 683 290 676 q 327 692 314 688 q 365 701 340 696 q 417 704 389 707 q 467 690 444 701 q 526 603 515 664 q 531 564 529 593 q 533 564 531 564 q 535 564 535 564 q 563 565 550 564 q 586 572 576 568 q 603 585 597 576 q 606 588 604 586 q 607 590 606 589 q 608 593 608 593 q 611 604 611 599 q 608 625 614 615 q 567 651 597 650 l 565 651 q 558 660 558 651 q 564 667 558 665 q 601 664 582 669 q 633 642 621 657 m 321 339 l 450 339 q 449 489 450 429 q 372 478 397 489 q 336 435 347 467 q 321 339 325 403 z "},"Ã":{"ha":671,"x_min":21,"x_max":650,"o":"m 633 642 q 644 624 640 633 q 649 603 647 614 q 647 582 649 593 q 646 578 647 581 q 644 572 644 574 q 640 563 643 567 q 611 531 631 543 q 576 513 597 519 q 567 510 572 511 q 572 500 569 504 q 576 468 579 486 q 569 461 576 461 q 563 468 563 463 q 555 490 561 482 q 539 499 549 497 q 532 499 536 500 q 533 8 536 336 q 522 -21 533 -8 q 492 -33 510 -33 q 463 -21 475 -33 q 450 8 450 -8 q 451 261 451 139 l 319 261 q 321 142 319 219 q 321 121 321 138 q 321 103 321 104 q 303 19 317 54 q 281 -19 294 -1 q 249 -51 267 -37 q 210 -72 231 -64 q 189 -79 200 -76 q 168 -83 178 -82 q 146 -85 156 -85 q 124 -82 135 -85 q 82 -67 101 -79 q 29 0 43 -43 q 22 42 21 21 q 33 83 24 64 q 58 115 42 101 q 75 126 65 121 q 93 136 83 132 q 104 131 101 139 q 100 119 107 124 q 57 72 67 101 q 60 13 46 42 q 88 -21 69 -8 q 86 -8 86 -14 q 101 22 88 10 q 129 39 111 33 q 135 35 133 40 q 132 28 136 31 q 113 13 118 22 q 106 -8 106 3 q 114 -31 107 -21 q 119 -35 115 -32 q 160 -35 139 -39 q 174 -29 165 -33 q 188 -24 182 -26 q 211 -6 201 -15 q 239 42 231 13 q 246 104 246 68 q 245 107 246 106 q 244 108 244 108 q 244 109 244 108 q 244 111 244 110 q 238 264 239 201 q 219 268 226 267 q 203 268 210 269 q 188 261 194 267 q 183 258 185 260 l 182 257 q 181 256 182 257 q 181 256 181 256 q 175 249 178 253 q 169 231 171 240 q 174 211 169 219 q 188 194 178 201 q 189 183 193 190 q 181 182 186 179 q 156 199 165 188 q 142 226 144 210 q 142 260 138 243 q 147 276 143 268 q 149 281 147 278 q 151 285 150 283 q 156 290 153 288 q 182 314 167 306 q 215 326 197 324 q 238 328 226 328 q 244 404 239 371 q 339 549 263 513 q 447 567 379 567 q 444 588 446 582 q 428 617 440 610 q 382 619 406 624 q 339 607 358 615 q 308 606 324 600 q 285 628 292 613 q 284 660 278 644 q 306 683 290 676 q 327 692 314 688 q 365 701 340 696 q 417 704 389 707 q 467 690 444 701 q 526 603 515 664 q 531 564 529 593 q 533 564 531 564 q 535 564 535 564 q 563 565 550 564 q 586 572 576 568 q 603 585 597 576 q 606 588 604 586 q 607 590 606 589 q 608 593 608 593 q 611 604 611 599 q 608 625 614 615 q 567 651 597 650 l 565 651 q 558 660 558 651 q 564 667 558 665 q 601 664 582 669 q 633 642 621 657 m 321 339 l 450 339 q 449 489 450 429 q 372 478 397 489 q 336 435 347 467 q 321 339 325 403 z "},"Ä":{"ha":671,"x_min":21,"x_max":650,"o":"m 633 642 q 644 624 640 633 q 649 603 647 614 q 647 582 649 593 q 646 578 647 581 q 644 572 644 574 q 640 563 643 567 q 611 531 631 543 q 576 513 597 519 q 567 510 572 511 q 572 500 569 504 q 576 468 579 486 q 569 461 576 461 q 563 468 563 463 q 555 490 561 482 q 539 499 549 497 q 532 499 536 500 q 533 8 536 336 q 522 -21 533 -8 q 492 -33 510 -33 q 463 -21 475 -33 q 450 8 450 -8 q 451 261 451 139 l 319 261 q 321 142 319 219 q 321 121 321 138 q 321 103 321 104 q 303 19 317 54 q 281 -19 294 -1 q 249 -51 267 -37 q 210 -72 231 -64 q 189 -79 200 -76 q 168 -83 178 -82 q 146 -85 156 -85 q 124 -82 135 -85 q 82 -67 101 -79 q 29 0 43 -43 q 22 42 21 21 q 33 83 24 64 q 58 115 42 101 q 75 126 65 121 q 93 136 83 132 q 104 131 101 139 q 100 119 107 124 q 57 72 67 101 q 60 13 46 42 q 88 -21 69 -8 q 86 -8 86 -14 q 101 22 88 10 q 129 39 111 33 q 135 35 133 40 q 132 28 136 31 q 113 13 118 22 q 106 -8 106 3 q 114 -31 107 -21 q 119 -35 115 -32 q 160 -35 139 -39 q 174 -29 165 -33 q 188 -24 182 -26 q 211 -6 201 -15 q 239 42 231 13 q 246 104 246 68 q 245 107 246 106 q 244 108 244 108 q 244 109 244 108 q 244 111 244 110 q 238 264 239 201 q 219 268 226 267 q 203 268 210 269 q 188 261 194 267 q 183 258 185 260 l 182 257 q 181 256 182 257 q 181 256 181 256 q 175 249 178 253 q 169 231 171 240 q 174 211 169 219 q 188 194 178 201 q 189 183 193 190 q 181 182 186 179 q 156 199 165 188 q 142 226 144 210 q 142 260 138 243 q 147 276 143 268 q 149 281 147 278 q 151 285 150 283 q 156 290 153 288 q 182 314 167 306 q 215 326 197 324 q 238 328 226 328 q 244 404 239 371 q 339 549 263 513 q 447 567 379 567 q 444 588 446 582 q 428 617 440 610 q 382 619 406 624 q 339 607 358 615 q 308 606 324 600 q 285 628 292 613 q 284 660 278 644 q 306 683 290 676 q 327 692 314 688 q 365 701 340 696 q 417 704 389 707 q 467 690 444 701 q 526 603 515 664 q 531 564 529 593 q 533 564 531 564 q 535 564 535 564 q 563 565 550 564 q 586 572 576 568 q 603 585 597 576 q 606 588 604 586 q 607 590 606 589 q 608 593 608 593 q 611 604 611 599 q 608 625 614 615 q 567 651 597 650 l 565 651 q 558 660 558 651 q 564 667 558 665 q 601 664 582 669 q 633 642 621 657 m 321 339 l 450 339 q 449 489 450 429 q 372 478 397 489 q 336 435 347 467 q 321 339 325 403 z "},"Å":{"ha":671,"x_min":21,"x_max":650,"o":"m 633 642 q 644 624 640 633 q 649 603 647 614 q 647 582 649 593 q 646 578 647 581 q 644 572 644 574 q 640 563 643 567 q 611 531 631 543 q 576 513 597 519 q 567 510 572 511 q 572 500 569 504 q 576 468 579 486 q 569 461 576 461 q 563 468 563 463 q 555 490 561 482 q 539 499 549 497 q 532 499 536 500 q 533 8 536 336 q 522 -21 533 -8 q 492 -33 510 -33 q 463 -21 475 -33 q 450 8 450 -8 q 451 261 451 139 l 319 261 q 321 142 319 219 q 321 121 321 138 q 321 103 321 104 q 303 19 317 54 q 281 -19 294 -1 q 249 -51 267 -37 q 210 -72 231 -64 q 189 -79 200 -76 q 168 -83 178 -82 q 146 -85 156 -85 q 124 -82 135 -85 q 82 -67 101 -79 q 29 0 43 -43 q 22 42 21 21 q 33 83 24 64 q 58 115 42 101 q 75 126 65 121 q 93 136 83 132 q 104 131 101 139 q 100 119 107 124 q 57 72 67 101 q 60 13 46 42 q 88 -21 69 -8 q 86 -8 86 -14 q 101 22 88 10 q 129 39 111 33 q 135 35 133 40 q 132 28 136 31 q 113 13 118 22 q 106 -8 106 3 q 114 -31 107 -21 q 119 -35 115 -32 q 160 -35 139 -39 q 174 -29 165 -33 q 188 -24 182 -26 q 211 -6 201 -15 q 239 42 231 13 q 246 104 246 68 q 245 107 246 106 q 244 108 244 108 q 244 109 244 108 q 244 111 244 110 q 238 264 239 201 q 219 268 226 267 q 203 268 210 269 q 188 261 194 267 q 183 258 185 260 l 182 257 q 181 256 182 257 q 181 256 181 256 q 175 249 178 253 q 169 231 171 240 q 174 211 169 219 q 188 194 178 201 q 189 183 193 190 q 181 182 186 179 q 156 199 165 188 q 142 226 144 210 q 142 260 138 243 q 147 276 143 268 q 149 281 147 278 q 151 285 150 283 q 156 290 153 288 q 182 314 167 306 q 215 326 197 324 q 238 328 226 328 q 244 404 239 371 q 339 549 263 513 q 447 567 379 567 q 444 588 446 582 q 428 617 440 610 q 382 619 406 624 q 339 607 358 615 q 308 606 324 600 q 285 628 292 613 q 284 660 278 644 q 306 683 290 676 q 327 692 314 688 q 365 701 340 696 q 417 704 389 707 q 467 690 444 701 q 526 603 515 664 q 531 564 529 593 q 533 564 531 564 q 535 564 535 564 q 563 565 550 564 q 586 572 576 568 q 603 585 597 576 q 606 588 604 586 q 607 590 606 589 q 608 593 608 593 q 611 604 611 599 q 608 625 614 615 q 567 651 597 650 l 565 651 q 558 660 558 651 q 564 667 558 665 q 601 664 582 669 q 633 642 621 657 m 321 339 l 450 339 q 449 489 450 429 q 372 478 397 489 q 336 435 347 467 q 321 339 325 403 z "},"B":{"ha":468,"x_min":19,"x_max":447,"o":"m 392 24 q 299 -12 356 -12 q 228 15 261 -12 q 201 3 217 4 q 197 3 200 3 q 170 14 182 3 q 157 42 158 25 q 150 224 151 107 q 132 225 139 225 q 115 222 122 225 q 101 213 108 219 q 99 210 100 211 l 97 207 q 96 206 96 207 q 92 199 93 203 q 89 179 89 189 q 96 161 90 169 q 113 147 101 153 l 113 146 q 115 136 119 143 q 108 133 114 132 q 81 146 92 136 q 61 171 68 156 q 57 204 56 186 q 60 221 57 213 q 61 225 60 222 q 63 229 61 228 q 65 236 64 233 q 88 264 74 253 q 119 282 100 275 q 124 283 119 282 q 104 301 111 290 q 99 333 96 317 q 111 361 100 347 q 119 361 115 365 q 119 354 122 358 q 113 332 113 343 q 121 313 113 321 q 138 301 128 304 q 150 300 143 300 q 158 554 151 424 q 150 554 154 554 q 115 558 132 554 q 83 572 99 563 q 57 594 69 581 q 36 619 44 607 q 25 651 28 636 q 24 686 21 669 q 54 744 28 721 q 82 761 67 756 q 115 765 99 767 q 144 757 131 764 q 157 749 151 753 q 168 739 163 744 q 168 726 175 732 q 157 725 163 721 q 114 739 136 742 q 78 719 93 738 q 71 707 74 714 q 97 706 85 710 q 122 688 114 701 q 131 661 129 676 q 125 656 131 657 q 119 660 121 656 q 110 679 117 672 q 93 688 103 686 q 75 683 83 689 q 65 676 69 681 q 79 647 68 661 q 93 633 85 640 q 110 625 101 628 q 146 622 126 618 q 164 626 154 624 q 165 654 164 643 q 180 683 167 671 q 210 693 193 694 q 246 664 238 690 q 297 678 271 674 q 407 654 369 689 q 439 595 431 633 q 445 531 447 557 q 438 463 443 506 q 374 361 428 390 q 310 347 346 347 q 235 360 275 347 q 233 308 235 335 q 386 283 332 322 q 435 182 433 249 q 392 24 438 72 m 300 596 q 243 565 263 588 q 238 446 239 506 q 336 435 306 419 q 356 472 353 443 q 351 593 371 576 q 300 596 338 603 m 236 132 q 267 91 249 110 q 299 72 285 72 q 332 82 321 72 q 351 181 354 106 q 336 215 351 206 q 233 225 307 238 q 236 132 235 176 z "},"C":{"ha":468,"x_min":21,"x_max":449,"o":"m 297 -14 q 292 -14 293 -14 q 289 -14 290 -14 q 288 -14 288 -14 q 279 -14 283 -14 q 190 8 215 -14 q 144 79 164 29 q 113 340 113 160 q 113 389 113 371 q 99 383 106 385 q 92 382 96 382 l 89 381 q 85 381 85 381 q 69 381 76 379 q 42 392 54 383 q 26 414 31 400 q 22 439 21 425 q 28 444 24 444 q 32 440 32 443 q 39 420 33 428 q 53 408 44 413 q 71 406 63 406 q 79 407 75 406 q 81 408 79 407 l 83 410 q 88 411 86 410 q 108 438 101 419 q 114 457 111 446 q 128 600 115 556 q 264 693 156 693 q 357 660 325 693 q 382 615 374 643 q 391 568 390 588 q 390 517 392 549 q 377 488 390 500 q 347 476 364 475 q 319 489 331 476 q 307 519 307 501 q 297 601 308 589 q 264 610 289 610 q 224 603 233 610 q 208 576 214 596 q 196 340 196 535 q 222 110 196 175 q 278 60 236 72 q 315 58 299 56 q 356 74 338 61 q 360 81 358 78 q 368 96 365 88 q 368 129 374 114 q 343 151 361 144 q 307 153 326 158 q 300 157 301 153 q 304 164 300 161 q 349 165 326 171 q 385 138 372 160 q 392 118 389 129 q 403 167 401 142 q 389 215 403 194 q 372 235 382 226 q 349 249 363 243 q 292 257 325 258 l 290 257 q 282 267 282 257 q 289 275 282 274 q 356 274 326 281 q 389 260 374 269 q 417 236 404 250 q 435 204 428 222 q 444 169 442 188 q 436 97 449 133 q 397 33 424 61 q 368 10 383 19 q 332 -7 351 -1 q 297 -14 315 -12 z "},"Ç":{"ha":468,"x_min":21,"x_max":449,"o":"m 297 -14 q 292 -14 293 -14 q 289 -14 290 -14 q 288 -14 288 -14 q 279 -14 283 -14 q 190 8 215 -14 q 144 79 164 29 q 113 340 113 160 q 113 389 113 371 q 99 383 106 385 q 92 382 96 382 l 89 381 q 85 381 85 381 q 69 381 76 379 q 42 392 54 383 q 26 414 31 400 q 22 439 21 425 q 28 444 24 444 q 32 440 32 443 q 39 420 33 428 q 53 408 44 413 q 71 406 63 406 q 79 407 75 406 q 81 408 79 407 l 83 410 q 88 411 86 410 q 108 438 101 419 q 114 457 111 446 q 128 600 115 556 q 264 693 156 693 q 357 660 325 693 q 382 615 374 643 q 391 568 390 588 q 390 517 392 549 q 377 488 390 500 q 347 476 364 475 q 319 489 331 476 q 307 519 307 501 q 297 601 308 589 q 264 610 289 610 q 224 603 233 610 q 208 576 214 596 q 196 340 196 535 q 222 110 196 175 q 278 60 236 72 q 315 58 299 56 q 356 74 338 61 q 360 81 358 78 q 368 96 365 88 q 368 129 374 114 q 343 151 361 144 q 307 153 326 158 q 300 157 301 153 q 304 164 300 161 q 349 165 326 171 q 385 138 372 160 q 392 118 389 129 q 403 167 401 142 q 389 215 403 194 q 372 235 382 226 q 349 249 363 243 q 292 257 325 258 l 290 257 q 282 267 282 257 q 289 275 282 274 q 356 274 326 281 q 389 260 374 269 q 417 236 404 250 q 435 204 428 222 q 444 169 442 188 q 436 97 449 133 q 397 33 424 61 q 368 10 383 19 q 332 -7 351 -1 q 297 -14 315 -12 z "},"D":{"ha":513,"x_min":19,"x_max":490,"o":"m 165 32 q 158 26 164 26 q 153 32 153 26 q 156 63 150 49 q 179 86 163 79 q 189 90 183 89 q 149 131 164 111 q 129 165 136 147 q 124 206 122 185 q 133 242 125 224 q 151 272 140 257 q 163 274 157 279 q 165 264 168 271 q 154 235 157 249 q 151 206 150 218 q 161 179 153 192 q 179 158 168 168 q 203 140 189 149 q 211 575 199 342 q 163 561 182 568 q 118 540 135 551 q 88 513 96 528 q 83 503 85 508 q 82 499 82 501 q 81 493 81 494 q 79 481 79 486 q 83 476 81 478 q 97 471 89 471 q 111 475 104 471 q 122 489 118 479 q 129 492 125 494 q 132 486 133 490 q 121 464 129 472 q 99 451 113 454 q 90 451 94 451 q 100 443 94 446 q 142 439 121 431 q 160 452 153 443 q 169 475 167 461 q 181 482 172 483 q 188 472 188 481 q 179 440 186 454 q 156 415 171 425 q 121 403 140 406 q 86 408 103 401 q 54 428 67 414 q 33 461 40 442 q 28 499 28 478 q 28 507 28 501 q 29 517 29 513 q 35 535 32 526 q 54 568 42 553 l 56 568 q 43 575 49 571 q 24 607 28 588 q 26 642 19 624 q 36 646 29 649 q 40 639 42 644 q 44 613 39 624 q 58 597 49 603 q 79 594 68 593 q 83 594 81 594 q 107 611 94 604 q 136 626 122 621 q 217 654 175 644 q 231 683 218 672 q 263 693 244 694 q 292 679 279 693 q 357 688 325 688 q 433 669 401 688 q 476 596 464 651 q 489 319 489 543 q 461 92 489 167 q 351 6 433 17 q 333 4 342 4 q 293 10 313 4 q 280 -15 290 -4 q 254 -26 269 -25 q 250 -26 253 -26 q 222 -15 233 -26 q 208 14 210 -4 q 206 65 207 32 q 188 65 196 68 q 172 54 178 63 q 165 32 165 46 m 357 603 q 299 592 328 603 q 289 108 283 329 q 340 90 314 86 q 356 94 350 92 q 373 109 363 96 q 389 144 383 122 q 399 211 394 167 q 404 319 404 256 q 394 576 404 533 q 383 599 389 594 q 357 603 378 603 z "},"E":{"ha":418,"x_min":21,"x_max":397,"o":"m 215 -6 q 163 6 185 -7 q 131 34 142 18 q 114 76 119 50 q 107 120 108 103 q 106 163 106 138 q 92 189 99 181 q 71 203 83 201 q 68 204 69 204 l 67 204 q 65 204 65 204 q 58 203 61 204 q 46 197 51 201 q 37 185 39 192 q 36 169 35 178 l 36 168 q 31 163 36 164 q 26 167 28 163 q 22 188 21 176 q 31 210 24 200 q 49 226 38 219 q 60 231 54 229 q 63 232 63 232 l 65 232 l 67 232 q 72 233 69 233 q 97 231 85 235 q 107 226 101 229 q 117 311 107 285 q 90 339 101 322 q 56 489 56 386 q 56 552 56 532 q 61 595 57 572 q 74 635 65 618 q 200 689 103 689 q 311 653 268 689 q 326 624 325 642 q 317 594 328 607 q 288 579 306 581 q 257 589 271 578 q 200 606 238 606 q 147 594 153 606 q 139 522 140 582 q 143 506 140 513 q 158 486 147 493 q 161 485 160 486 l 163 485 q 164 483 163 485 q 171 482 167 483 q 185 485 178 482 q 197 494 192 488 q 203 508 201 500 q 208 513 204 514 q 213 508 213 513 q 210 486 214 496 q 196 467 206 475 q 174 458 186 460 q 161 457 167 457 q 157 457 158 457 l 156 457 l 154 457 q 149 458 151 457 q 140 461 144 460 q 158 388 143 408 q 200 372 169 372 q 256 371 236 372 q 281 371 272 371 q 311 360 299 372 q 325 332 324 349 q 315 302 326 315 q 286 289 303 289 q 260 288 275 288 l 258 288 q 254 288 257 288 q 246 288 251 288 q 222 289 235 288 q 197 285 203 289 q 189 176 189 275 q 204 74 189 101 q 271 72 213 58 q 285 75 281 74 q 318 88 304 81 q 342 103 333 94 q 344 107 343 104 q 346 108 344 107 q 347 111 346 111 q 349 122 349 117 q 347 132 350 128 q 342 140 346 138 q 331 146 336 144 q 326 146 329 146 q 324 146 325 146 q 318 146 321 146 q 308 139 313 144 q 306 132 307 136 q 304 128 304 129 q 303 124 304 128 l 303 122 q 293 117 300 114 q 288 122 288 118 q 286 129 286 126 q 286 135 286 132 q 289 147 288 140 q 306 169 293 161 q 318 175 311 172 q 325 176 319 175 q 331 178 328 178 q 358 172 346 178 q 381 155 372 167 q 393 128 390 143 q 393 100 396 114 q 392 93 393 97 q 390 86 392 89 q 383 72 388 79 q 365 51 376 61 q 346 38 357 44 q 344 35 346 36 q 342 35 343 35 q 354 28 349 32 q 360 22 357 26 q 364 14 363 18 q 365 -1 367 7 q 363 -15 365 -7 q 357 -19 361 -21 q 353 -14 353 -18 q 350 8 354 1 q 344 14 349 13 q 335 17 340 17 q 313 15 326 18 q 293 11 304 14 q 215 -6 261 -3 z "},"È":{"ha":418,"x_min":21,"x_max":397,"o":"m 215 -6 q 163 6 185 -7 q 131 34 142 18 q 114 76 119 50 q 107 120 108 103 q 106 163 106 138 q 92 189 99 181 q 71 203 83 201 q 68 204 69 204 l 67 204 q 65 204 65 204 q 58 203 61 204 q 46 197 51 201 q 37 185 39 192 q 36 169 35 178 l 36 168 q 31 163 36 164 q 26 167 28 163 q 22 188 21 176 q 31 210 24 200 q 49 226 38 219 q 60 231 54 229 q 63 232 63 232 l 65 232 l 67 232 q 72 233 69 233 q 97 231 85 235 q 107 226 101 229 q 117 311 107 285 q 90 339 101 322 q 56 489 56 386 q 56 552 56 532 q 61 595 57 572 q 74 635 65 618 q 200 689 103 689 q 311 653 268 689 q 326 624 325 642 q 317 594 328 607 q 288 579 306 581 q 257 589 271 578 q 200 606 238 606 q 147 594 153 606 q 139 522 140 582 q 143 506 140 513 q 158 486 147 493 q 161 485 160 486 l 163 485 q 164 483 163 485 q 171 482 167 483 q 185 485 178 482 q 197 494 192 488 q 203 508 201 500 q 208 513 204 514 q 213 508 213 513 q 210 486 214 496 q 196 467 206 475 q 174 458 186 460 q 161 457 167 457 q 157 457 158 457 l 156 457 l 154 457 q 149 458 151 457 q 140 461 144 460 q 158 388 143 408 q 200 372 169 372 q 256 371 236 372 q 281 371 272 371 q 311 360 299 372 q 325 332 324 349 q 315 302 326 315 q 286 289 303 289 q 260 288 275 288 l 258 288 q 254 288 257 288 q 246 288 251 288 q 222 289 235 288 q 197 285 203 289 q 189 176 189 275 q 204 74 189 101 q 271 72 213 58 q 285 75 281 74 q 318 88 304 81 q 342 103 333 94 q 344 107 343 104 q 346 108 344 107 q 347 111 346 111 q 349 122 349 117 q 347 132 350 128 q 342 140 346 138 q 331 146 336 144 q 326 146 329 146 q 324 146 325 146 q 318 146 321 146 q 308 139 313 144 q 306 132 307 136 q 304 128 304 129 q 303 124 304 128 l 303 122 q 293 117 300 114 q 288 122 288 118 q 286 129 286 126 q 286 135 286 132 q 289 147 288 140 q 306 169 293 161 q 318 175 311 172 q 325 176 319 175 q 331 178 328 178 q 358 172 346 178 q 381 155 372 167 q 393 128 390 143 q 393 100 396 114 q 392 93 393 97 q 390 86 392 89 q 383 72 388 79 q 365 51 376 61 q 346 38 357 44 q 344 35 346 36 q 342 35 343 35 q 354 28 349 32 q 360 22 357 26 q 364 14 363 18 q 365 -1 367 7 q 363 -15 365 -7 q 357 -19 361 -21 q 353 -14 353 -18 q 350 8 354 1 q 344 14 349 13 q 335 17 340 17 q 313 15 326 18 q 293 11 304 14 q 215 -6 261 -3 z "},"É":{"ha":418,"x_min":21,"x_max":397,"o":"m 215 -6 q 163 6 185 -7 q 131 34 142 18 q 114 76 119 50 q 107 120 108 103 q 106 163 106 138 q 92 189 99 181 q 71 203 83 201 q 68 204 69 204 l 67 204 q 65 204 65 204 q 58 203 61 204 q 46 197 51 201 q 37 185 39 192 q 36 169 35 178 l 36 168 q 31 163 36 164 q 26 167 28 163 q 22 188 21 176 q 31 210 24 200 q 49 226 38 219 q 60 231 54 229 q 63 232 63 232 l 65 232 l 67 232 q 72 233 69 233 q 97 231 85 235 q 107 226 101 229 q 117 311 107 285 q 90 339 101 322 q 56 489 56 386 q 56 552 56 532 q 61 595 57 572 q 74 635 65 618 q 200 689 103 689 q 311 653 268 689 q 326 624 325 642 q 317 594 328 607 q 288 579 306 581 q 257 589 271 578 q 200 606 238 606 q 147 594 153 606 q 139 522 140 582 q 143 506 140 513 q 158 486 147 493 q 161 485 160 486 l 163 485 q 164 483 163 485 q 171 482 167 483 q 185 485 178 482 q 197 494 192 488 q 203 508 201 500 q 208 513 204 514 q 213 508 213 513 q 210 486 214 496 q 196 467 206 475 q 174 458 186 460 q 161 457 167 457 q 157 457 158 457 l 156 457 l 154 457 q 149 458 151 457 q 140 461 144 460 q 158 388 143 408 q 200 372 169 372 q 256 371 236 372 q 281 371 272 371 q 311 360 299 372 q 325 332 324 349 q 315 302 326 315 q 286 289 303 289 q 260 288 275 288 l 258 288 q 254 288 257 288 q 246 288 251 288 q 222 289 235 288 q 197 285 203 289 q 189 176 189 275 q 204 74 189 101 q 271 72 213 58 q 285 75 281 74 q 318 88 304 81 q 342 103 333 94 q 344 107 343 104 q 346 108 344 107 q 347 111 346 111 q 349 122 349 117 q 347 132 350 128 q 342 140 346 138 q 331 146 336 144 q 326 146 329 146 q 324 146 325 146 q 318 146 321 146 q 308 139 313 144 q 306 132 307 136 q 304 128 304 129 q 303 124 304 128 l 303 122 q 293 117 300 114 q 288 122 288 118 q 286 129 286 126 q 286 135 286 132 q 289 147 288 140 q 306 169 293 161 q 318 175 311 172 q 325 176 319 175 q 331 178 328 178 q 358 172 346 178 q 381 155 372 167 q 393 128 390 143 q 393 100 396 114 q 392 93 393 97 q 390 86 392 89 q 383 72 388 79 q 365 51 376 61 q 346 38 357 44 q 344 35 346 36 q 342 35 343 35 q 354 28 349 32 q 360 22 357 26 q 364 14 363 18 q 365 -1 367 7 q 363 -15 365 -7 q 357 -19 361 -21 q 353 -14 353 -18 q 350 8 354 1 q 344 14 349 13 q 335 17 340 17 q 313 15 326 18 q 293 11 304 14 q 215 -6 261 -3 z "},"Ê":{"ha":418,"x_min":21,"x_max":397,"o":"m 215 -6 q 163 6 185 -7 q 131 34 142 18 q 114 76 119 50 q 107 120 108 103 q 106 163 106 138 q 92 189 99 181 q 71 203 83 201 q 68 204 69 204 l 67 204 q 65 204 65 204 q 58 203 61 204 q 46 197 51 201 q 37 185 39 192 q 36 169 35 178 l 36 168 q 31 163 36 164 q 26 167 28 163 q 22 188 21 176 q 31 210 24 200 q 49 226 38 219 q 60 231 54 229 q 63 232 63 232 l 65 232 l 67 232 q 72 233 69 233 q 97 231 85 235 q 107 226 101 229 q 117 311 107 285 q 90 339 101 322 q 56 489 56 386 q 56 552 56 532 q 61 595 57 572 q 74 635 65 618 q 200 689 103 689 q 311 653 268 689 q 326 624 325 642 q 317 594 328 607 q 288 579 306 581 q 257 589 271 578 q 200 606 238 606 q 147 594 153 606 q 139 522 140 582 q 143 506 140 513 q 158 486 147 493 q 161 485 160 486 l 163 485 q 164 483 163 485 q 171 482 167 483 q 185 485 178 482 q 197 494 192 488 q 203 508 201 500 q 208 513 204 514 q 213 508 213 513 q 210 486 214 496 q 196 467 206 475 q 174 458 186 460 q 161 457 167 457 q 157 457 158 457 l 156 457 l 154 457 q 149 458 151 457 q 140 461 144 460 q 158 388 143 408 q 200 372 169 372 q 256 371 236 372 q 281 371 272 371 q 311 360 299 372 q 325 332 324 349 q 315 302 326 315 q 286 289 303 289 q 260 288 275 288 l 258 288 q 254 288 257 288 q 246 288 251 288 q 222 289 235 288 q 197 285 203 289 q 189 176 189 275 q 204 74 189 101 q 271 72 213 58 q 285 75 281 74 q 318 88 304 81 q 342 103 333 94 q 344 107 343 104 q 346 108 344 107 q 347 111 346 111 q 349 122 349 117 q 347 132 350 128 q 342 140 346 138 q 331 146 336 144 q 326 146 329 146 q 324 146 325 146 q 318 146 321 146 q 308 139 313 144 q 306 132 307 136 q 304 128 304 129 q 303 124 304 128 l 303 122 q 293 117 300 114 q 288 122 288 118 q 286 129 286 126 q 286 135 286 132 q 289 147 288 140 q 306 169 293 161 q 318 175 311 172 q 325 176 319 175 q 331 178 328 178 q 358 172 346 178 q 381 155 372 167 q 393 128 390 143 q 393 100 396 114 q 392 93 393 97 q 390 86 392 89 q 383 72 388 79 q 365 51 376 61 q 346 38 357 44 q 344 35 346 36 q 342 35 343 35 q 354 28 349 32 q 360 22 357 26 q 364 14 363 18 q 365 -1 367 7 q 363 -15 365 -7 q 357 -19 361 -21 q 353 -14 353 -18 q 350 8 354 1 q 344 14 349 13 q 335 17 340 17 q 313 15 326 18 q 293 11 304 14 q 215 -6 261 -3 z "},"Ë":{"ha":418,"x_min":21,"x_max":397,"o":"m 215 -6 q 163 6 185 -7 q 131 34 142 18 q 114 76 119 50 q 107 120 108 103 q 106 163 106 138 q 92 189 99 181 q 71 203 83 201 q 68 204 69 204 l 67 204 q 65 204 65 204 q 58 203 61 204 q 46 197 51 201 q 37 185 39 192 q 36 169 35 178 l 36 168 q 31 163 36 164 q 26 167 28 163 q 22 188 21 176 q 31 210 24 200 q 49 226 38 219 q 60 231 54 229 q 63 232 63 232 l 65 232 l 67 232 q 72 233 69 233 q 97 231 85 235 q 107 226 101 229 q 117 311 107 285 q 90 339 101 322 q 56 489 56 386 q 56 552 56 532 q 61 595 57 572 q 74 635 65 618 q 200 689 103 689 q 311 653 268 689 q 326 624 325 642 q 317 594 328 607 q 288 579 306 581 q 257 589 271 578 q 200 606 238 606 q 147 594 153 606 q 139 522 140 582 q 143 506 140 513 q 158 486 147 493 q 161 485 160 486 l 163 485 q 164 483 163 485 q 171 482 167 483 q 185 485 178 482 q 197 494 192 488 q 203 508 201 500 q 208 513 204 514 q 213 508 213 513 q 210 486 214 496 q 196 467 206 475 q 174 458 186 460 q 161 457 167 457 q 157 457 158 457 l 156 457 l 154 457 q 149 458 151 457 q 140 461 144 460 q 158 388 143 408 q 200 372 169 372 q 256 371 236 372 q 281 371 272 371 q 311 360 299 372 q 325 332 324 349 q 315 302 326 315 q 286 289 303 289 q 260 288 275 288 l 258 288 q 254 288 257 288 q 246 288 251 288 q 222 289 235 288 q 197 285 203 289 q 189 176 189 275 q 204 74 189 101 q 271 72 213 58 q 285 75 281 74 q 318 88 304 81 q 342 103 333 94 q 344 107 343 104 q 346 108 344 107 q 347 111 346 111 q 349 122 349 117 q 347 132 350 128 q 342 140 346 138 q 331 146 336 144 q 326 146 329 146 q 324 146 325 146 q 318 146 321 146 q 308 139 313 144 q 306 132 307 136 q 304 128 304 129 q 303 124 304 128 l 303 122 q 293 117 300 114 q 288 122 288 118 q 286 129 286 126 q 286 135 286 132 q 289 147 288 140 q 306 169 293 161 q 318 175 311 172 q 325 176 319 175 q 331 178 328 178 q 358 172 346 178 q 381 155 372 167 q 393 128 390 143 q 393 100 396 114 q 392 93 393 97 q 390 86 392 89 q 383 72 388 79 q 365 51 376 61 q 346 38 357 44 q 344 35 346 36 q 342 35 343 35 q 354 28 349 32 q 360 22 357 26 q 364 14 363 18 q 365 -1 367 7 q 363 -15 365 -7 q 357 -19 361 -21 q 353 -14 353 -18 q 350 8 354 1 q 344 14 349 13 q 335 17 340 17 q 313 15 326 18 q 293 11 304 14 q 215 -6 261 -3 z "},"F":{"ha":403,"x_min":21,"x_max":383,"o":"m 253 622 q 200 613 206 622 q 192 506 192 597 q 211 404 192 431 q 253 389 222 389 q 310 389 289 389 q 335 389 326 389 q 365 378 351 390 q 378 349 378 367 q 367 319 379 332 q 339 306 356 307 q 313 306 328 306 q 311 306 311 306 q 308 306 310 306 q 300 306 304 306 q 275 306 289 306 q 263 303 265 306 q 247 233 251 292 q 246 181 247 211 q 254 183 251 183 q 281 185 267 188 q 286 185 283 185 l 288 183 l 289 183 q 292 182 289 183 q 304 176 299 181 q 321 160 314 171 q 328 138 328 149 q 322 117 328 126 q 317 114 321 111 q 314 119 313 115 q 313 135 315 128 q 304 147 311 143 q 293 154 300 153 q 286 156 289 156 q 285 156 286 156 l 283 156 q 279 156 281 156 q 258 143 267 154 q 247 125 253 136 q 249 26 247 90 q 249 21 249 24 q 253 0 250 10 q 282 -47 263 -36 q 307 -53 296 -54 q 326 -39 319 -50 q 329 -25 329 -32 q 329 -18 331 -21 q 328 -12 329 -15 q 319 -3 325 -7 q 314 1 317 0 q 310 3 311 1 q 307 4 308 3 l 306 4 q 300 14 299 6 q 310 19 303 19 q 314 18 311 18 q 319 17 317 17 q 329 13 325 14 q 344 -4 339 6 q 350 -14 349 -8 q 350 -25 350 -19 q 347 -47 351 -37 q 335 -67 343 -58 q 314 -79 326 -75 q 290 -81 303 -82 q 281 -79 286 -81 q 275 -76 275 -78 l 272 -76 l 269 -75 q 236 -47 250 -67 q 232 -42 235 -46 q 229 -60 231 -51 q 214 -110 222 -87 q 201 -135 208 -124 q 181 -158 192 -149 q 167 -167 174 -164 q 151 -174 160 -171 q 118 -176 135 -179 q 88 -164 101 -174 q 65 -140 74 -156 q 57 -111 58 -128 q 60 -82 56 -94 q 76 -56 64 -67 q 89 -47 82 -50 q 96 -44 92 -46 q 99 -43 97 -43 l 100 -42 l 103 -42 q 119 -51 115 -39 q 110 -67 122 -64 l 108 -67 l 108 -68 q 106 -68 107 -68 q 103 -71 104 -69 q 97 -76 99 -74 q 90 -90 92 -82 q 92 -106 90 -97 q 99 -119 94 -114 q 109 -128 103 -125 q 122 -131 115 -131 q 135 -128 129 -131 q 140 -124 138 -125 q 144 -119 143 -122 q 160 -90 154 -110 q 167 -50 164 -72 q 168 -7 168 -31 q 167 14 168 3 q 165 24 165 19 q 164 214 161 140 q 179 324 167 288 q 143 356 158 336 q 113 444 119 389 q 107 443 110 444 q 94 436 101 439 q 92 433 93 435 q 86 417 85 425 q 90 409 88 413 q 98 403 93 406 q 100 396 103 400 q 93 393 97 392 q 81 400 86 396 q 72 413 75 406 q 71 428 69 419 q 71 431 71 429 q 51 435 61 431 q 35 445 42 438 q 25 464 28 453 q 22 482 22 472 q 24 492 22 488 q 28 501 25 497 q 43 514 33 510 q 51 517 47 515 q 56 518 54 518 q 61 519 58 518 q 69 513 68 519 q 64 504 69 506 l 63 503 q 60 503 60 503 q 57 501 58 503 q 51 499 54 500 q 44 492 47 496 q 43 488 44 489 q 43 482 43 485 q 46 471 44 475 q 60 460 50 461 q 69 460 64 458 q 74 461 71 460 q 79 464 78 463 q 104 501 96 472 q 108 522 107 510 q 126 651 110 618 q 253 706 156 706 q 354 685 307 706 q 377 662 371 678 q 376 630 383 646 q 352 608 368 614 q 321 608 336 601 q 253 622 289 622 z "},"G":{"ha":424,"x_min":21,"x_max":407,"o":"m 344 26 q 253 -12 308 -12 q 118 110 147 -12 q 103 322 103 171 q 99 322 101 322 q 90 318 96 319 q 88 317 89 318 q 76 303 79 311 q 74 289 71 294 q 80 283 76 285 q 88 279 83 281 l 89 279 q 92 272 93 278 q 86 268 90 268 q 74 271 79 269 q 62 281 67 275 q 57 294 57 286 q 58 310 56 303 q 61 318 58 314 q 51 321 56 319 q 35 332 42 325 q 24 350 28 340 q 22 369 21 358 q 28 386 24 378 q 40 401 32 396 q 58 407 49 407 q 67 407 63 407 q 72 406 69 407 q 76 406 74 406 q 81 396 83 404 q 74 390 79 390 l 72 390 q 69 390 69 390 q 67 390 68 390 q 61 390 64 390 q 52 386 56 389 q 47 378 49 383 q 46 367 44 372 q 53 351 46 357 q 71 347 60 346 q 80 349 76 347 q 86 353 83 350 q 99 371 93 360 q 104 389 101 379 q 126 567 107 500 q 242 693 158 682 q 347 672 310 704 q 383 579 383 642 q 372 550 385 563 q 342 537 360 538 q 313 549 325 536 q 300 578 301 561 q 293 608 300 603 q 254 611 285 615 q 206 544 224 607 q 186 339 186 475 q 188 225 186 260 q 190 219 189 221 q 207 201 196 207 q 232 197 218 194 q 257 210 244 199 q 265 210 261 214 q 265 201 269 206 q 236 179 253 186 q 199 181 218 172 q 190 183 194 181 q 199 129 193 151 q 220 82 207 93 q 252 71 233 71 q 282 83 271 71 q 313 374 329 133 q 288 376 297 376 q 272 374 279 376 q 258 364 265 371 q 254 361 256 363 l 253 358 q 253 357 253 358 q 249 350 250 354 q 246 331 244 340 q 253 313 247 321 q 269 299 258 304 q 272 289 275 294 q 264 285 269 283 q 238 297 249 288 q 218 322 225 307 q 213 356 213 338 q 215 372 213 364 q 217 376 215 374 q 218 381 218 379 q 222 389 219 385 q 243 415 231 404 q 275 433 257 426 q 296 439 285 436 q 289 442 292 439 q 264 463 272 449 q 257 494 254 478 q 271 521 260 508 q 278 522 274 525 q 279 515 282 519 q 272 493 272 503 q 279 474 272 482 q 297 463 286 467 q 300 463 299 463 l 319 463 q 321 463 321 463 l 350 463 q 378 451 367 463 q 392 424 390 440 q 397 179 407 285 q 344 26 388 74 z "},"H":{"ha":540,"x_min":19,"x_max":518,"o":"m 203 63 q 193 33 204 46 q 165 18 182 19 q 161 18 163 18 q 133 29 146 18 q 119 57 121 40 q 111 286 113 154 q 110 286 111 286 q 74 282 88 290 q 67 276 69 281 q 65 275 67 276 q 64 274 65 275 q 61 271 63 272 q 56 254 56 265 q 75 222 54 229 q 81 213 82 221 q 72 207 78 207 q 42 221 54 208 q 24 250 29 232 q 25 286 19 268 q 29 296 26 290 q 31 300 31 300 q 33 304 32 303 q 46 318 39 311 q 78 336 58 329 q 83 338 79 336 q 76 344 79 342 q 67 375 67 358 q 78 404 68 390 q 85 406 81 408 q 86 399 89 403 q 82 376 81 386 q 92 357 83 365 q 110 347 99 350 q 110 347 110 347 q 114 692 108 531 q 128 722 115 710 q 158 733 140 733 q 187 719 175 732 q 197 689 199 707 q 193 358 192 538 l 336 358 q 342 498 336 414 q 351 634 347 582 q 357 696 356 686 q 358 738 360 718 q 353 775 358 758 q 335 800 346 792 q 332 803 333 801 q 328 806 328 806 q 321 808 325 807 q 307 811 314 811 q 282 800 292 813 q 275 785 278 794 q 274 776 274 781 q 274 768 274 772 q 279 754 275 761 q 286 749 282 751 q 289 747 288 747 q 292 746 290 746 l 292 746 l 293 744 q 302 729 306 742 q 286 719 299 717 l 283 721 l 282 721 q 278 722 281 721 q 271 725 275 724 q 258 735 264 729 q 249 746 253 739 q 242 761 244 753 q 239 776 240 768 q 240 792 239 783 q 249 821 242 807 q 271 844 257 835 q 301 857 285 854 q 335 856 318 860 q 349 850 342 853 q 356 847 351 850 q 363 843 361 846 q 388 824 376 836 q 404 797 397 813 q 421 747 415 776 q 436 756 428 753 l 439 757 l 442 757 q 447 760 443 758 q 458 761 453 761 q 481 760 469 763 q 501 747 493 756 q 514 728 510 739 q 518 707 518 718 q 517 696 518 700 q 513 685 515 689 q 496 668 507 675 q 486 664 492 667 q 482 663 483 664 q 476 661 479 663 q 467 668 468 661 q 472 676 467 675 l 474 678 q 476 678 475 678 q 481 679 479 679 q 486 683 483 682 q 494 693 493 688 q 497 699 496 696 q 497 706 497 701 q 493 719 496 713 q 474 733 486 731 q 450 728 463 735 q 425 697 435 719 q 425 695 425 697 q 425 692 425 693 q 425 665 425 679 q 424 654 424 661 q 421 192 415 392 q 422 188 422 189 q 444 175 432 176 q 447 175 446 175 l 450 175 q 451 175 451 175 q 457 175 454 175 q 469 182 464 178 q 478 195 475 188 q 478 211 481 203 q 482 217 478 217 q 488 214 486 218 q 493 193 493 204 q 486 171 492 181 q 469 153 479 160 q 457 147 464 150 q 454 147 454 147 l 453 146 l 451 146 q 446 146 449 146 q 422 146 433 143 q 428 42 425 88 q 419 10 431 24 q 390 -4 408 -3 q 388 -4 389 -4 q 359 7 371 -4 q 346 35 347 18 q 336 275 336 136 l 194 275 q 203 63 197 153 z "},"I":{"ha":296,"x_min":21,"x_max":274,"o":"m 97 465 q 96 665 96 611 q 108 695 96 683 q 138 707 121 707 l 139 707 q 167 694 156 707 q 179 665 179 682 q 186 200 179 439 q 200 200 194 200 q 215 204 208 201 q 228 214 222 207 q 232 218 231 217 l 233 219 q 233 220 233 219 q 233 222 233 221 q 238 229 236 225 q 238 249 240 239 q 231 267 236 258 q 213 279 224 275 q 208 289 206 282 q 217 293 211 294 q 244 283 232 292 q 265 258 258 274 q 274 226 272 244 q 272 210 274 218 q 270 205 271 208 q 269 201 269 201 q 267 193 268 197 q 246 164 260 176 q 217 144 235 153 q 211 143 215 144 q 232 125 225 136 q 240 94 242 111 q 229 67 239 79 q 222 65 226 63 q 221 71 219 68 q 226 94 226 83 q 217 114 225 106 q 199 124 210 121 q 189 124 194 124 q 192 43 190 82 q 181 13 193 26 q 153 0 169 0 q 150 0 151 0 q 122 11 133 0 q 108 39 110 22 q 99 390 101 196 q 94 411 97 401 q 86 431 90 422 q 74 443 81 439 q 46 438 53 453 q 43 428 44 433 q 43 424 43 425 q 44 421 44 422 q 50 414 46 417 q 54 411 51 413 q 57 411 56 411 q 58 410 57 411 q 60 410 60 410 l 61 410 q 65 400 68 407 q 57 394 64 394 q 53 394 56 394 q 50 396 51 396 q 42 399 46 397 q 28 410 33 403 q 24 418 25 414 q 22 428 22 422 q 24 444 22 436 q 33 461 26 454 q 49 471 39 468 q 67 475 57 475 q 76 474 71 475 q 85 471 81 472 q 97 465 90 469 z "},"Ì":{"ha":296,"x_min":21,"x_max":274,"o":"m 97 465 q 96 665 96 611 q 108 695 96 683 q 138 707 121 707 l 139 707 q 167 694 156 707 q 179 665 179 682 q 186 200 179 439 q 200 200 194 200 q 215 204 208 201 q 228 214 222 207 q 232 218 231 217 l 233 219 q 233 220 233 219 q 233 222 233 221 q 238 229 236 225 q 238 249 240 239 q 231 267 236 258 q 213 279 224 275 q 208 289 206 282 q 217 293 211 294 q 244 283 232 292 q 265 258 258 274 q 274 226 272 244 q 272 210 274 218 q 270 205 271 208 q 269 201 269 201 q 267 193 268 197 q 246 164 260 176 q 217 144 235 153 q 211 143 215 144 q 232 125 225 136 q 240 94 242 111 q 229 67 239 79 q 222 65 226 63 q 221 71 219 68 q 226 94 226 83 q 217 114 225 106 q 199 124 210 121 q 189 124 194 124 q 192 43 190 82 q 181 13 193 26 q 153 0 169 0 q 150 0 151 0 q 122 11 133 0 q 108 39 110 22 q 99 390 101 196 q 94 411 97 401 q 86 431 90 422 q 74 443 81 439 q 46 438 53 453 q 43 428 44 433 q 43 424 43 425 q 44 421 44 422 q 50 414 46 417 q 54 411 51 413 q 57 411 56 411 q 58 410 57 411 q 60 410 60 410 l 61 410 q 65 400 68 407 q 57 394 64 394 q 53 394 56 394 q 50 396 51 396 q 42 399 46 397 q 28 410 33 403 q 24 418 25 414 q 22 428 22 422 q 24 444 22 436 q 33 461 26 454 q 49 471 39 468 q 67 475 57 475 q 76 474 71 475 q 85 471 81 472 q 97 465 90 469 z "},"Í":{"ha":296,"x_min":21,"x_max":274,"o":"m 97 465 q 96 665 96 611 q 108 695 96 683 q 138 707 121 707 l 139 707 q 167 694 156 707 q 179 665 179 682 q 186 200 179 439 q 200 200 194 200 q 215 204 208 201 q 228 214 222 207 q 232 218 231 217 l 233 219 q 233 220 233 219 q 233 222 233 221 q 238 229 236 225 q 238 249 240 239 q 231 267 236 258 q 213 279 224 275 q 208 289 206 282 q 217 293 211 294 q 244 283 232 292 q 265 258 258 274 q 274 226 272 244 q 272 210 274 218 q 270 205 271 208 q 269 201 269 201 q 267 193 268 197 q 246 164 260 176 q 217 144 235 153 q 211 143 215 144 q 232 125 225 136 q 240 94 242 111 q 229 67 239 79 q 222 65 226 63 q 221 71 219 68 q 226 94 226 83 q 217 114 225 106 q 199 124 210 121 q 189 124 194 124 q 192 43 190 82 q 181 13 193 26 q 153 0 169 0 q 150 0 151 0 q 122 11 133 0 q 108 39 110 22 q 99 390 101 196 q 94 411 97 401 q 86 431 90 422 q 74 443 81 439 q 46 438 53 453 q 43 428 44 433 q 43 424 43 425 q 44 421 44 422 q 50 414 46 417 q 54 411 51 413 q 57 411 56 411 q 58 410 57 411 q 60 410 60 410 l 61 410 q 65 400 68 407 q 57 394 64 394 q 53 394 56 394 q 50 396 51 396 q 42 399 46 397 q 28 410 33 403 q 24 418 25 414 q 22 428 22 422 q 24 444 22 436 q 33 461 26 454 q 49 471 39 468 q 67 475 57 475 q 76 474 71 475 q 85 471 81 472 q 97 465 90 469 z "},"Î":{"ha":296,"x_min":21,"x_max":274,"o":"m 97 465 q 96 665 96 611 q 108 695 96 683 q 138 707 121 707 l 139 707 q 167 694 156 707 q 179 665 179 682 q 186 200 179 439 q 200 200 194 200 q 215 204 208 201 q 228 214 222 207 q 232 218 231 217 l 233 219 q 233 220 233 219 q 233 222 233 221 q 238 229 236 225 q 238 249 240 239 q 231 267 236 258 q 213 279 224 275 q 208 289 206 282 q 217 293 211 294 q 244 283 232 292 q 265 258 258 274 q 274 226 272 244 q 272 210 274 218 q 270 205 271 208 q 269 201 269 201 q 267 193 268 197 q 246 164 260 176 q 217 144 235 153 q 211 143 215 144 q 232 125 225 136 q 240 94 242 111 q 229 67 239 79 q 222 65 226 63 q 221 71 219 68 q 226 94 226 83 q 217 114 225 106 q 199 124 210 121 q 189 124 194 124 q 192 43 190 82 q 181 13 193 26 q 153 0 169 0 q 150 0 151 0 q 122 11 133 0 q 108 39 110 22 q 99 390 101 196 q 94 411 97 401 q 86 431 90 422 q 74 443 81 439 q 46 438 53 453 q 43 428 44 433 q 43 424 43 425 q 44 421 44 422 q 50 414 46 417 q 54 411 51 413 q 57 411 56 411 q 58 410 57 411 q 60 410 60 410 l 61 410 q 65 400 68 407 q 57 394 64 394 q 53 394 56 394 q 50 396 51 396 q 42 399 46 397 q 28 410 33 403 q 24 418 25 414 q 22 428 22 422 q 24 444 22 436 q 33 461 26 454 q 49 471 39 468 q 67 475 57 475 q 76 474 71 475 q 85 471 81 472 q 97 465 90 469 z "},"Ï":{"ha":296,"x_min":21,"x_max":274,"o":"m 97 465 q 96 665 96 611 q 108 695 96 683 q 138 707 121 707 l 139 707 q 167 694 156 707 q 179 665 179 682 q 186 200 179 439 q 200 200 194 200 q 215 204 208 201 q 228 214 222 207 q 232 218 231 217 l 233 219 q 233 220 233 219 q 233 222 233 221 q 238 229 236 225 q 238 249 240 239 q 231 267 236 258 q 213 279 224 275 q 208 289 206 282 q 217 293 211 294 q 244 283 232 292 q 265 258 258 274 q 274 226 272 244 q 272 210 274 218 q 270 205 271 208 q 269 201 269 201 q 267 193 268 197 q 246 164 260 176 q 217 144 235 153 q 211 143 215 144 q 232 125 225 136 q 240 94 242 111 q 229 67 239 79 q 222 65 226 63 q 221 71 219 68 q 226 94 226 83 q 217 114 225 106 q 199 124 210 121 q 189 124 194 124 q 192 43 190 82 q 181 13 193 26 q 153 0 169 0 q 150 0 151 0 q 122 11 133 0 q 108 39 110 22 q 99 390 101 196 q 94 411 97 401 q 86 431 90 422 q 74 443 81 439 q 46 438 53 453 q 43 428 44 433 q 43 424 43 425 q 44 421 44 422 q 50 414 46 417 q 54 411 51 413 q 57 411 56 411 q 58 410 57 411 q 60 410 60 410 l 61 410 q 65 400 68 407 q 57 394 64 394 q 53 394 56 394 q 50 396 51 396 q 42 399 46 397 q 28 410 33 403 q 24 418 25 414 q 22 428 22 422 q 24 444 22 436 q 33 461 26 454 q 49 471 39 468 q 67 475 57 475 q 76 474 71 475 q 85 471 81 472 q 97 465 90 469 z "},"J":{"ha":425,"x_min":21,"x_max":404,"o":"m 332 199 q 322 181 328 192 q 304 49 317 85 q 193 -22 278 -22 q 99 19 133 -22 q 72 88 78 46 q 67 149 65 129 q 72 185 69 169 q 91 212 76 203 q 122 217 106 221 q 149 199 139 214 q 154 168 158 185 q 151 121 150 154 q 164 72 153 88 q 193 61 172 61 q 217 65 211 61 q 225 78 222 68 q 242 232 235 103 l 243 251 q 247 388 246 324 q 239 385 243 385 q 233 383 235 383 l 231 383 l 229 383 q 226 382 229 383 q 214 383 219 382 q 192 394 201 386 q 178 413 182 401 q 175 435 174 422 q 179 439 175 439 q 185 435 183 439 q 190 419 186 425 q 203 411 194 414 q 217 408 210 408 q 222 410 219 408 q 224 410 222 410 l 225 411 q 229 413 228 411 q 244 432 240 418 q 249 454 247 440 q 243 596 249 540 q 238 628 240 614 l 136 625 q 104 619 124 625 q 78 608 88 615 q 75 604 76 606 q 72 603 74 604 q 71 600 71 601 q 67 590 68 596 q 67 579 65 585 q 72 569 68 574 q 82 564 76 565 q 85 562 83 563 q 89 561 88 561 q 94 561 92 561 q 104 567 100 563 q 110 574 107 569 q 111 578 110 575 q 113 581 111 578 l 114 582 q 124 586 117 590 q 128 579 128 585 q 128 574 128 576 q 126 567 128 571 q 122 556 125 561 q 103 536 117 543 q 89 532 97 533 q 83 532 88 532 q 76 532 79 532 q 50 542 61 533 q 31 563 38 549 q 22 590 24 575 q 26 619 22 606 q 29 625 28 622 q 33 632 31 629 q 42 644 36 639 q 63 661 50 654 q 83 674 72 668 q 86 674 85 674 q 88 675 88 675 q 78 683 82 679 q 72 690 75 686 q 69 699 71 694 q 71 714 68 706 q 75 728 72 721 q 82 731 78 732 q 85 724 86 728 q 83 703 81 710 q 89 696 86 699 q 97 692 92 693 q 108 689 103 690 q 126 690 114 690 q 168 693 144 692 q 169 694 168 693 q 182 694 175 694 q 274 701 250 700 q 308 685 294 701 q 325 246 346 633 l 325 239 q 326 240 325 239 q 353 243 339 244 q 358 242 356 243 l 360 242 l 361 242 q 365 240 361 242 q 376 236 371 239 q 394 219 388 229 q 401 197 401 210 q 399 176 403 186 q 392 174 396 171 q 389 178 389 175 l 389 179 q 388 194 390 188 q 379 207 385 201 q 367 213 374 211 q 360 214 363 214 q 358 214 360 214 l 357 214 q 353 213 354 214 q 332 199 340 211 z "},"K":{"ha":538,"x_min":19,"x_max":515,"o":"m 338 -36 q 303 -64 322 -56 l 300 -65 l 299 -67 q 293 -68 297 -67 q 282 -69 286 -69 q 258 -68 269 -71 q 238 -56 247 -64 q 225 -36 229 -47 q 222 -15 222 -26 q 224 -4 222 -8 q 228 7 225 1 q 243 22 233 17 q 253 28 249 25 q 258 29 256 28 q 264 29 261 29 q 272 24 271 31 q 267 14 274 17 q 263 13 264 14 q 260 11 261 13 q 253 8 256 10 q 244 -1 247 4 q 243 -7 243 -4 q 243 -14 243 -10 q 247 -28 244 -22 q 265 -42 253 -40 q 290 -36 276 -44 q 319 11 311 -25 q 321 15 319 11 q 321 28 321 25 q 314 183 324 146 q 292 215 308 208 q 214 213 265 228 q 221 49 215 104 q 211 17 222 31 q 183 3 200 4 q 179 3 181 3 q 151 14 163 3 q 138 40 139 25 q 135 439 124 190 q 131 442 132 442 q 106 451 117 449 q 83 453 93 454 q 74 449 78 451 q 69 446 71 447 q 65 443 67 444 q 57 424 58 436 q 63 403 56 411 q 71 397 65 399 q 81 394 76 394 q 92 400 86 396 q 97 404 94 401 q 99 407 99 406 q 101 410 99 407 q 113 411 107 417 q 115 403 118 408 q 113 398 114 400 q 110 393 111 396 q 104 386 107 389 q 86 374 96 376 q 64 374 75 369 q 44 383 53 375 q 29 401 35 390 q 22 422 24 411 q 32 467 19 446 q 39 476 35 471 q 47 485 43 481 q 68 496 57 492 q 101 504 83 503 q 90 519 94 511 q 88 551 83 535 q 103 578 92 565 q 111 578 107 581 q 111 571 114 574 q 103 549 103 560 q 107 528 101 538 q 124 515 114 519 q 138 514 131 513 q 147 654 142 583 q 162 683 149 672 q 192 693 175 694 q 221 678 210 692 q 231 647 232 665 q 221 489 224 568 q 304 481 275 468 q 333 525 325 489 q 342 583 340 556 q 340 686 343 610 l 339 692 q 351 721 339 708 q 380 734 363 733 q 410 723 397 735 q 422 694 422 711 l 424 689 q 425 576 426 610 q 414 506 424 543 q 338 404 396 429 q 279 393 311 393 q 217 403 250 393 q 214 299 215 350 q 326 292 281 314 q 396 203 379 267 q 406 57 407 157 q 418 39 410 46 q 440 32 428 32 q 464 40 451 33 l 464 42 q 471 39 468 44 q 469 33 474 36 q 442 18 457 21 q 408 24 424 14 q 406 24 407 24 q 404 25 406 25 q 404 11 404 17 q 404 6 404 8 q 406 -24 404 -11 q 413 -64 408 -46 q 428 -97 419 -85 q 432 -103 429 -100 q 438 -107 433 -104 q 449 -112 443 -111 q 472 -106 463 -115 q 479 -93 476 -101 q 481 -85 481 -89 q 481 -76 481 -81 q 475 -64 479 -69 q 468 -58 472 -60 q 465 -56 467 -57 q 463 -54 464 -54 l 461 -54 q 452 -37 449 -50 q 468 -29 456 -25 l 471 -29 l 472 -29 q 476 -31 474 -31 q 482 -33 479 -32 q 494 -43 489 -37 q 511 -69 507 -53 q 515 -84 514 -76 q 514 -99 515 -92 q 504 -129 513 -115 q 479 -151 494 -144 q 446 -158 464 -160 q 414 -151 429 -158 q 399 -143 406 -147 q 388 -132 393 -137 q 369 -108 378 -122 q 358 -83 364 -96 q 343 -33 350 -61 q 342 -31 343 -33 q 342 -29 342 -29 q 338 -36 339 -33 z "},"L":{"ha":449,"x_min":21,"x_max":426,"o":"m 394 -14 q 371 1 389 -1 q 339 0 358 3 q 328 -1 333 0 q 231 -17 288 -17 q 114 179 114 -17 l 117 546 q 101 540 110 543 q 94 539 97 540 l 93 539 l 90 539 q 86 539 90 539 q 71 539 79 538 q 44 551 57 543 q 26 574 32 560 q 22 600 21 586 q 28 606 22 606 q 32 601 32 604 l 32 600 q 40 581 33 589 q 56 568 46 572 q 74 564 64 564 q 83 565 79 564 q 85 567 85 567 l 88 567 q 92 569 89 568 q 111 588 104 575 q 101 588 106 586 q 72 601 85 589 q 60 629 63 613 q 64 635 58 633 q 69 632 68 636 q 83 613 75 619 q 103 607 92 606 q 118 611 111 607 l 118 693 q 131 722 118 710 q 160 735 143 735 l 161 735 q 190 722 178 735 q 201 693 201 710 l 199 381 q 206 383 203 382 q 231 386 217 388 q 236 385 233 386 l 238 385 l 239 385 q 243 385 240 385 q 254 379 249 382 q 272 363 265 372 q 281 340 279 353 q 276 319 281 331 q 269 317 275 315 q 267 322 267 318 q 265 338 268 331 q 257 350 263 344 q 244 357 251 354 q 238 357 240 357 q 236 357 236 357 l 235 357 q 231 357 233 357 q 210 342 219 354 q 199 319 204 335 l 197 178 q 198 132 197 147 q 202 95 199 117 q 215 63 206 74 q 239 53 224 53 q 250 53 247 53 q 275 56 263 54 q 299 60 286 57 q 322 65 311 61 q 360 83 347 72 q 372 96 368 89 q 374 100 372 99 q 375 104 375 103 q 378 115 378 110 q 374 153 382 136 q 362 165 369 161 q 344 171 354 169 q 321 168 333 172 q 317 167 319 168 l 314 167 l 311 165 q 303 160 307 164 q 290 143 294 154 q 286 132 288 138 q 285 125 285 129 q 283 119 283 124 q 275 113 282 111 q 268 119 268 113 q 267 126 268 122 q 268 135 267 131 q 269 150 268 142 q 285 178 275 167 q 297 189 290 185 l 301 192 l 306 193 q 313 197 310 196 q 343 204 328 203 q 378 199 363 206 q 407 175 396 190 q 422 143 418 161 q 425 110 426 128 q 422 93 425 101 q 421 85 422 89 q 418 75 419 79 q 399 44 411 58 q 371 22 386 32 q 369 21 369 22 q 376 19 372 21 q 394 10 388 17 q 403 1 399 7 q 408 -8 407 -3 q 411 -29 411 -17 q 408 -47 411 -37 q 401 -51 407 -53 q 397 -46 397 -50 q 399 -29 399 -36 q 394 -14 399 -19 z "},"M":{"ha":686,"x_min":21,"x_max":664,"o":"m 497 11 q 501 38 500 24 q 519 546 532 414 q 474 581 517 576 q 428 574 450 583 q 401 543 407 564 q 396 483 399 532 q 397 292 399 400 q 406 294 401 294 q 431 297 418 299 q 436 297 433 297 l 438 297 l 439 296 q 443 296 440 296 q 454 290 449 294 q 472 275 465 285 q 481 253 479 264 q 476 231 481 242 q 469 228 475 226 q 467 233 467 229 q 465 250 468 243 q 457 261 463 257 q 444 268 451 267 q 438 268 440 269 q 436 268 436 268 l 435 268 q 431 268 433 268 q 411 254 419 265 q 396 225 404 244 q 393 147 394 179 q 393 146 393 146 q 394 46 393 83 q 383 17 394 29 q 353 3 371 4 q 324 15 336 3 q 311 44 311 26 q 310 304 308 140 q 313 482 310 418 q 304 593 310 549 q 253 625 300 622 q 210 618 231 626 q 186 593 190 610 q 177 347 179 567 q 178 67 175 126 q 166 36 178 49 q 136 24 154 24 q 106 35 118 24 q 94 64 94 47 q 94 369 92 164 q 87 367 90 368 q 81 367 83 367 l 79 367 l 78 367 q 74 367 76 367 q 61 368 68 367 q 40 377 50 369 q 25 396 31 385 q 22 418 21 406 q 28 422 22 422 q 32 418 32 422 q 38 403 33 410 q 50 394 43 397 q 64 392 57 392 q 71 393 68 392 q 72 394 72 394 l 74 394 q 76 396 75 396 q 92 415 88 403 q 94 426 93 419 q 106 615 97 588 q 160 685 117 660 q 258 708 203 711 q 375 639 344 703 q 483 664 424 669 q 566 628 533 658 q 603 553 599 599 q 583 11 617 404 q 585 -1 583 4 q 607 -37 592 -29 q 612 -40 608 -39 q 617 -42 615 -42 q 625 -43 621 -43 q 639 -32 635 -42 q 642 -22 642 -28 q 643 -18 643 -19 q 642 -14 642 -15 q 636 -6 640 -8 q 631 -3 633 -4 q 628 -1 629 -3 q 625 -1 628 -1 l 624 0 q 619 10 617 3 q 628 15 621 15 q 633 14 631 14 q 636 13 635 14 q 644 8 642 11 q 658 -4 654 4 q 663 -14 661 -8 q 664 -24 664 -18 q 661 -42 664 -33 q 650 -58 657 -51 q 632 -68 643 -65 q 613 -71 622 -71 q 603 -68 608 -69 q 594 -65 597 -67 q 565 -42 578 -58 q 556 -26 560 -35 q 554 -28 554 -26 q 532 -74 544 -53 q 507 -108 519 -96 q 497 -115 501 -112 q 492 -119 496 -117 q 485 -121 488 -121 q 461 -126 474 -126 q 439 -125 450 -128 q 417 -115 426 -122 q 400 -97 406 -108 q 393 -75 394 -87 q 406 -61 393 -61 q 419 -69 415 -60 l 419 -71 q 426 -80 422 -76 q 433 -85 429 -83 q 454 -83 443 -87 q 464 -78 460 -81 q 465 -76 464 -78 q 467 -75 465 -75 q 469 -71 468 -74 q 482 -49 476 -62 q 497 11 492 -25 z "},"N":{"ha":517,"x_min":21,"x_max":496,"o":"m 224 24 q 222 18 224 21 q 222 11 222 15 q 226 -3 224 3 q 244 -17 233 -15 q 269 -11 257 -19 q 300 36 290 0 q 304 60 303 50 q 299 564 319 422 q 249 593 294 589 q 203 586 224 594 q 179 564 183 578 q 172 309 174 536 q 171 24 169 82 q 160 -6 172 7 q 131 -18 149 -18 q 129 -18 131 -18 q 101 -6 113 -18 q 88 22 89 6 q 92 482 83 249 q 85 479 88 481 q 76 477 81 478 q 68 476 71 476 q 49 479 57 475 q 33 489 39 482 q 24 506 26 496 q 22 522 22 514 q 24 532 24 528 q 28 540 25 536 q 42 551 33 547 q 50 554 46 553 q 54 556 51 556 q 58 556 56 556 q 67 549 65 557 q 61 540 67 543 l 60 540 q 59 540 60 540 q 57 540 58 540 q 54 539 56 539 q 50 536 53 538 q 44 531 46 533 q 43 526 44 528 q 43 522 43 525 q 46 513 44 517 q 57 504 50 506 q 65 504 61 503 q 69 506 67 504 q 74 507 71 507 q 94 538 86 514 q 100 586 96 575 q 101 592 100 589 q 104 600 101 596 q 165 660 122 640 q 254 675 207 679 q 340 645 306 672 q 381 575 375 618 q 392 357 392 504 q 415 358 404 360 q 422 358 419 358 l 424 357 l 425 357 q 428 357 425 357 q 440 351 433 354 q 457 335 450 346 q 465 314 464 325 q 461 292 467 303 q 456 289 460 288 q 453 294 451 290 q 451 310 454 303 q 442 322 449 318 q 429 329 436 328 q 424 329 426 329 q 422 329 424 329 l 419 329 q 417 329 418 329 q 396 315 404 326 q 393 310 394 313 q 388 56 392 179 q 388 53 388 56 q 393 47 390 50 q 414 40 403 40 q 439 49 426 42 l 439 50 q 446 47 443 53 q 444 42 449 44 q 417 26 431 29 q 383 31 400 22 q 386 3 385 14 q 393 -39 388 -21 q 407 -72 399 -60 q 411 -78 410 -75 q 417 -82 414 -79 q 429 -87 422 -86 q 451 -81 443 -90 q 458 -68 456 -76 q 460 -60 460 -64 q 460 -51 461 -56 q 454 -39 458 -44 q 449 -33 451 -35 q 444 -31 446 -32 q 443 -29 443 -29 l 442 -29 l 442 -29 q 432 -12 429 -25 q 447 -3 435 0 l 450 -4 l 451 -4 q 456 -6 454 -6 q 463 -8 460 -7 q 475 -18 469 -12 q 492 -44 488 -28 q 494 -59 493 -51 q 494 -74 494 -67 q 483 -104 492 -90 q 458 -126 474 -119 q 425 -133 443 -135 q 393 -126 408 -133 q 379 -118 386 -122 q 367 -107 372 -112 q 350 -83 357 -96 q 338 -58 343 -71 q 322 -8 329 -36 q 322 -6 322 -8 q 322 -4 322 -4 q 317 -11 319 -8 q 283 -39 303 -31 l 281 -40 l 278 -42 q 272 -43 276 -42 q 261 -44 267 -44 q 239 -43 249 -46 q 218 -31 226 -39 q 206 -11 210 -22 q 201 10 201 -1 q 203 21 201 17 q 207 32 204 28 q 224 47 213 42 q 233 53 228 50 q 238 54 235 53 q 243 54 240 54 q 251 49 251 56 q 246 39 253 42 q 243 39 243 39 q 239 36 240 38 q 232 33 235 35 q 224 24 226 29 z "},"Ñ":{"ha":517,"x_min":21,"x_max":496,"o":"m 224 24 q 222 18 224 21 q 222 11 222 15 q 226 -3 224 3 q 244 -17 233 -15 q 269 -11 257 -19 q 300 36 290 0 q 304 60 303 50 q 299 564 319 422 q 249 593 294 589 q 203 586 224 594 q 179 564 183 578 q 172 309 174 536 q 171 24 169 82 q 160 -6 172 7 q 131 -18 149 -18 q 129 -18 131 -18 q 101 -6 113 -18 q 88 22 89 6 q 92 482 83 249 q 85 479 88 481 q 76 477 81 478 q 68 476 71 476 q 49 479 57 475 q 33 489 39 482 q 24 506 26 496 q 22 522 22 514 q 24 532 24 528 q 28 540 25 536 q 42 551 33 547 q 50 554 46 553 q 54 556 51 556 q 58 556 56 556 q 67 549 65 557 q 61 540 67 543 l 60 540 q 59 540 60 540 q 57 540 58 540 q 54 539 56 539 q 50 536 53 538 q 44 531 46 533 q 43 526 44 528 q 43 522 43 525 q 46 513 44 517 q 57 504 50 506 q 65 504 61 503 q 69 506 67 504 q 74 507 71 507 q 94 538 86 514 q 100 586 96 575 q 101 592 100 589 q 104 600 101 596 q 165 660 122 640 q 254 675 207 679 q 340 645 306 672 q 381 575 375 618 q 392 357 392 504 q 415 358 404 360 q 422 358 419 358 l 424 357 l 425 357 q 428 357 425 357 q 440 351 433 354 q 457 335 450 346 q 465 314 464 325 q 461 292 467 303 q 456 289 460 288 q 453 294 451 290 q 451 310 454 303 q 442 322 449 318 q 429 329 436 328 q 424 329 426 329 q 422 329 424 329 l 419 329 q 417 329 418 329 q 396 315 404 326 q 393 310 394 313 q 388 56 392 179 q 388 53 388 56 q 393 47 390 50 q 414 40 403 40 q 439 49 426 42 l 439 50 q 446 47 443 53 q 444 42 449 44 q 417 26 431 29 q 383 31 400 22 q 386 3 385 14 q 393 -39 388 -21 q 407 -72 399 -60 q 411 -78 410 -75 q 417 -82 414 -79 q 429 -87 422 -86 q 451 -81 443 -90 q 458 -68 456 -76 q 460 -60 460 -64 q 460 -51 461 -56 q 454 -39 458 -44 q 449 -33 451 -35 q 444 -31 446 -32 q 443 -29 443 -29 l 442 -29 l 442 -29 q 432 -12 429 -25 q 447 -3 435 0 l 450 -4 l 451 -4 q 456 -6 454 -6 q 463 -8 460 -7 q 475 -18 469 -12 q 492 -44 488 -28 q 494 -59 493 -51 q 494 -74 494 -67 q 483 -104 492 -90 q 458 -126 474 -119 q 425 -133 443 -135 q 393 -126 408 -133 q 379 -118 386 -122 q 367 -107 372 -112 q 350 -83 357 -96 q 338 -58 343 -71 q 322 -8 329 -36 q 322 -6 322 -8 q 322 -4 322 -4 q 317 -11 319 -8 q 283 -39 303 -31 l 281 -40 l 278 -42 q 272 -43 276 -42 q 261 -44 267 -44 q 239 -43 249 -46 q 218 -31 226 -39 q 206 -11 210 -22 q 201 10 201 -1 q 203 21 201 17 q 207 32 204 28 q 224 47 213 42 q 233 53 228 50 q 238 54 235 53 q 243 54 240 54 q 251 49 251 56 q 246 39 253 42 q 243 39 243 39 q 239 36 240 38 q 232 33 235 35 q 224 24 226 29 z "},"O":{"ha":521,"x_min":21,"x_max":499,"o":"m 465 469 q 471 485 471 476 q 471 494 471 489 q 469 504 471 499 q 461 519 465 513 q 447 529 456 526 q 433 532 442 532 q 426 531 429 532 q 418 528 422 531 q 411 524 414 526 q 410 522 411 524 q 408 522 408 522 q 406 519 407 521 q 396 500 400 514 q 422 500 408 504 q 447 485 436 497 q 447 478 451 481 q 440 476 444 474 q 418 486 429 485 q 399 481 407 488 q 389 472 393 478 q 393 353 393 419 q 371 119 393 197 q 244 -4 338 -4 q 117 119 150 -4 q 104 181 110 146 q 82 174 93 175 q 76 174 79 174 l 75 174 l 72 174 q 69 174 72 174 q 57 176 63 174 q 36 189 44 181 q 24 208 28 197 q 24 231 21 218 q 29 235 24 235 q 33 229 33 233 q 38 214 33 221 q 49 204 42 207 q 63 200 56 200 q 68 201 65 200 q 69 201 69 201 l 72 201 q 75 203 74 203 q 93 221 86 208 q 99 240 96 228 q 94 353 94 289 q 126 621 94 542 q 244 708 161 708 q 361 621 328 708 q 379 558 372 594 q 383 561 382 561 q 390 564 389 564 q 405 569 397 567 q 421 572 413 572 q 436 572 429 572 q 467 560 453 569 q 488 538 481 550 q 497 510 494 525 q 497 494 497 501 q 494 481 497 488 q 489 466 493 472 q 479 456 485 460 q 468 447 475 450 q 461 444 465 446 q 458 443 460 443 q 454 442 457 442 q 444 447 447 439 q 449 457 443 454 l 450 458 q 451 458 450 458 q 454 460 453 460 q 458 463 456 461 q 465 469 463 465 m 292 142 q 310 353 310 208 q 285 590 310 525 q 270 614 278 606 q 258 624 263 622 q 244 625 253 625 l 244 625 q 231 624 236 625 q 218 614 226 622 q 204 590 210 606 q 182 467 188 549 q 192 449 188 456 q 213 435 200 438 q 215 435 214 435 l 217 433 q 218 433 218 433 q 225 435 222 433 q 238 441 232 436 q 247 453 244 446 q 249 468 250 460 l 249 469 q 253 475 247 474 q 258 471 257 475 q 261 450 263 460 q 253 428 260 438 q 235 411 246 418 q 224 407 229 408 q 219 406 221 406 l 218 406 l 217 406 q 211 406 214 406 q 186 408 197 404 q 179 411 183 410 q 178 353 178 383 q 197 142 178 208 q 244 79 214 79 q 292 142 274 79 z "},"Ò":{"ha":521,"x_min":21,"x_max":499,"o":"m 465 469 q 471 485 471 476 q 471 494 471 489 q 469 504 471 499 q 461 519 465 513 q 447 529 456 526 q 433 532 442 532 q 426 531 429 532 q 418 528 422 531 q 411 524 414 526 q 410 522 411 524 q 408 522 408 522 q 406 519 407 521 q 396 500 400 514 q 422 500 408 504 q 447 485 436 497 q 447 478 451 481 q 440 476 444 474 q 418 486 429 485 q 399 481 407 488 q 389 472 393 478 q 393 353 393 419 q 371 119 393 197 q 244 -4 338 -4 q 117 119 150 -4 q 104 181 110 146 q 82 174 93 175 q 76 174 79 174 l 75 174 l 72 174 q 69 174 72 174 q 57 176 63 174 q 36 189 44 181 q 24 208 28 197 q 24 231 21 218 q 29 235 24 235 q 33 229 33 233 q 38 214 33 221 q 49 204 42 207 q 63 200 56 200 q 68 201 65 200 q 69 201 69 201 l 72 201 q 75 203 74 203 q 93 221 86 208 q 99 240 96 228 q 94 353 94 289 q 126 621 94 542 q 244 708 161 708 q 361 621 328 708 q 379 558 372 594 q 383 561 382 561 q 390 564 389 564 q 405 569 397 567 q 421 572 413 572 q 436 572 429 572 q 467 560 453 569 q 488 538 481 550 q 497 510 494 525 q 497 494 497 501 q 494 481 497 488 q 489 466 493 472 q 479 456 485 460 q 468 447 475 450 q 461 444 465 446 q 458 443 460 443 q 454 442 457 442 q 444 447 447 439 q 449 457 443 454 l 450 458 q 451 458 450 458 q 454 460 453 460 q 458 463 456 461 q 465 469 463 465 m 292 142 q 310 353 310 208 q 285 590 310 525 q 270 614 278 606 q 258 624 263 622 q 244 625 253 625 l 244 625 q 231 624 236 625 q 218 614 226 622 q 204 590 210 606 q 182 467 188 549 q 192 449 188 456 q 213 435 200 438 q 215 435 214 435 l 217 433 q 218 433 218 433 q 225 435 222 433 q 238 441 232 436 q 247 453 244 446 q 249 468 250 460 l 249 469 q 253 475 247 474 q 258 471 257 475 q 261 450 263 460 q 253 428 260 438 q 235 411 246 418 q 224 407 229 408 q 219 406 221 406 l 218 406 l 217 406 q 211 406 214 406 q 186 408 197 404 q 179 411 183 410 q 178 353 178 383 q 197 142 178 208 q 244 79 214 79 q 292 142 274 79 z "},"Ó":{"ha":521,"x_min":21,"x_max":499,"o":"m 465 469 q 471 485 471 476 q 471 494 471 489 q 469 504 471 499 q 461 519 465 513 q 447 529 456 526 q 433 532 442 532 q 426 531 429 532 q 418 528 422 531 q 411 524 414 526 q 410 522 411 524 q 408 522 408 522 q 406 519 407 521 q 396 500 400 514 q 422 500 408 504 q 447 485 436 497 q 447 478 451 481 q 440 476 444 474 q 418 486 429 485 q 399 481 407 488 q 389 472 393 478 q 393 353 393 419 q 371 119 393 197 q 244 -4 338 -4 q 117 119 150 -4 q 104 181 110 146 q 82 174 93 175 q 76 174 79 174 l 75 174 l 72 174 q 69 174 72 174 q 57 176 63 174 q 36 189 44 181 q 24 208 28 197 q 24 231 21 218 q 29 235 24 235 q 33 229 33 233 q 38 214 33 221 q 49 204 42 207 q 63 200 56 200 q 68 201 65 200 q 69 201 69 201 l 72 201 q 75 203 74 203 q 93 221 86 208 q 99 240 96 228 q 94 353 94 289 q 126 621 94 542 q 244 708 161 708 q 361 621 328 708 q 379 558 372 594 q 383 561 382 561 q 390 564 389 564 q 405 569 397 567 q 421 572 413 572 q 436 572 429 572 q 467 560 453 569 q 488 538 481 550 q 497 510 494 525 q 497 494 497 501 q 494 481 497 488 q 489 466 493 472 q 479 456 485 460 q 468 447 475 450 q 461 444 465 446 q 458 443 460 443 q 454 442 457 442 q 444 447 447 439 q 449 457 443 454 l 450 458 q 451 458 450 458 q 454 460 453 460 q 458 463 456 461 q 465 469 463 465 m 292 142 q 310 353 310 208 q 285 590 310 525 q 270 614 278 606 q 258 624 263 622 q 244 625 253 625 l 244 625 q 231 624 236 625 q 218 614 226 622 q 204 590 210 606 q 182 467 188 549 q 192 449 188 456 q 213 435 200 438 q 215 435 214 435 l 217 433 q 218 433 218 433 q 225 435 222 433 q 238 441 232 436 q 247 453 244 446 q 249 468 250 460 l 249 469 q 253 475 247 474 q 258 471 257 475 q 261 450 263 460 q 253 428 260 438 q 235 411 246 418 q 224 407 229 408 q 219 406 221 406 l 218 406 l 217 406 q 211 406 214 406 q 186 408 197 404 q 179 411 183 410 q 178 353 178 383 q 197 142 178 208 q 244 79 214 79 q 292 142 274 79 z "},"Ô":{"ha":521,"x_min":21,"x_max":499,"o":"m 465 469 q 471 485 471 476 q 471 494 471 489 q 469 504 471 499 q 461 519 465 513 q 447 529 456 526 q 433 532 442 532 q 426 531 429 532 q 418 528 422 531 q 411 524 414 526 q 410 522 411 524 q 408 522 408 522 q 406 519 407 521 q 396 500 400 514 q 422 500 408 504 q 447 485 436 497 q 447 478 451 481 q 440 476 444 474 q 418 486 429 485 q 399 481 407 488 q 389 472 393 478 q 393 353 393 419 q 371 119 393 197 q 244 -4 338 -4 q 117 119 150 -4 q 104 181 110 146 q 82 174 93 175 q 76 174 79 174 l 75 174 l 72 174 q 69 174 72 174 q 57 176 63 174 q 36 189 44 181 q 24 208 28 197 q 24 231 21 218 q 29 235 24 235 q 33 229 33 233 q 38 214 33 221 q 49 204 42 207 q 63 200 56 200 q 68 201 65 200 q 69 201 69 201 l 72 201 q 75 203 74 203 q 93 221 86 208 q 99 240 96 228 q 94 353 94 289 q 126 621 94 542 q 244 708 161 708 q 361 621 328 708 q 379 558 372 594 q 383 561 382 561 q 390 564 389 564 q 405 569 397 567 q 421 572 413 572 q 436 572 429 572 q 467 560 453 569 q 488 538 481 550 q 497 510 494 525 q 497 494 497 501 q 494 481 497 488 q 489 466 493 472 q 479 456 485 460 q 468 447 475 450 q 461 444 465 446 q 458 443 460 443 q 454 442 457 442 q 444 447 447 439 q 449 457 443 454 l 450 458 q 451 458 450 458 q 454 460 453 460 q 458 463 456 461 q 465 469 463 465 m 292 142 q 310 353 310 208 q 285 590 310 525 q 270 614 278 606 q 258 624 263 622 q 244 625 253 625 l 244 625 q 231 624 236 625 q 218 614 226 622 q 204 590 210 606 q 182 467 188 549 q 192 449 188 456 q 213 435 200 438 q 215 435 214 435 l 217 433 q 218 433 218 433 q 225 435 222 433 q 238 441 232 436 q 247 453 244 446 q 249 468 250 460 l 249 469 q 253 475 247 474 q 258 471 257 475 q 261 450 263 460 q 253 428 260 438 q 235 411 246 418 q 224 407 229 408 q 219 406 221 406 l 218 406 l 217 406 q 211 406 214 406 q 186 408 197 404 q 179 411 183 410 q 178 353 178 383 q 197 142 178 208 q 244 79 214 79 q 292 142 274 79 z "},"Õ":{"ha":521,"x_min":21,"x_max":499,"o":"m 465 469 q 471 485 471 476 q 471 494 471 489 q 469 504 471 499 q 461 519 465 513 q 447 529 456 526 q 433 532 442 532 q 426 531 429 532 q 418 528 422 531 q 411 524 414 526 q 410 522 411 524 q 408 522 408 522 q 406 519 407 521 q 396 500 400 514 q 422 500 408 504 q 447 485 436 497 q 447 478 451 481 q 440 476 444 474 q 418 486 429 485 q 399 481 407 488 q 389 472 393 478 q 393 353 393 419 q 371 119 393 197 q 244 -4 338 -4 q 117 119 150 -4 q 104 181 110 146 q 82 174 93 175 q 76 174 79 174 l 75 174 l 72 174 q 69 174 72 174 q 57 176 63 174 q 36 189 44 181 q 24 208 28 197 q 24 231 21 218 q 29 235 24 235 q 33 229 33 233 q 38 214 33 221 q 49 204 42 207 q 63 200 56 200 q 68 201 65 200 q 69 201 69 201 l 72 201 q 75 203 74 203 q 93 221 86 208 q 99 240 96 228 q 94 353 94 289 q 126 621 94 542 q 244 708 161 708 q 361 621 328 708 q 379 558 372 594 q 383 561 382 561 q 390 564 389 564 q 405 569 397 567 q 421 572 413 572 q 436 572 429 572 q 467 560 453 569 q 488 538 481 550 q 497 510 494 525 q 497 494 497 501 q 494 481 497 488 q 489 466 493 472 q 479 456 485 460 q 468 447 475 450 q 461 444 465 446 q 458 443 460 443 q 454 442 457 442 q 444 447 447 439 q 449 457 443 454 l 450 458 q 451 458 450 458 q 454 460 453 460 q 458 463 456 461 q 465 469 463 465 m 292 142 q 310 353 310 208 q 285 590 310 525 q 270 614 278 606 q 258 624 263 622 q 244 625 253 625 l 244 625 q 231 624 236 625 q 218 614 226 622 q 204 590 210 606 q 182 467 188 549 q 192 449 188 456 q 213 435 200 438 q 215 435 214 435 l 217 433 q 218 433 218 433 q 225 435 222 433 q 238 441 232 436 q 247 453 244 446 q 249 468 250 460 l 249 469 q 253 475 247 474 q 258 471 257 475 q 261 450 263 460 q 253 428 260 438 q 235 411 246 418 q 224 407 229 408 q 219 406 221 406 l 218 406 l 217 406 q 211 406 214 406 q 186 408 197 404 q 179 411 183 410 q 178 353 178 383 q 197 142 178 208 q 244 79 214 79 q 292 142 274 79 z "},"Ö":{"ha":521,"x_min":21,"x_max":499,"o":"m 465 469 q 471 485 471 476 q 471 494 471 489 q 469 504 471 499 q 461 519 465 513 q 447 529 456 526 q 433 532 442 532 q 426 531 429 532 q 418 528 422 531 q 411 524 414 526 q 410 522 411 524 q 408 522 408 522 q 406 519 407 521 q 396 500 400 514 q 422 500 408 504 q 447 485 436 497 q 447 478 451 481 q 440 476 444 474 q 418 486 429 485 q 399 481 407 488 q 389 472 393 478 q 393 353 393 419 q 371 119 393 197 q 244 -4 338 -4 q 117 119 150 -4 q 104 181 110 146 q 82 174 93 175 q 76 174 79 174 l 75 174 l 72 174 q 69 174 72 174 q 57 176 63 174 q 36 189 44 181 q 24 208 28 197 q 24 231 21 218 q 29 235 24 235 q 33 229 33 233 q 38 214 33 221 q 49 204 42 207 q 63 200 56 200 q 68 201 65 200 q 69 201 69 201 l 72 201 q 75 203 74 203 q 93 221 86 208 q 99 240 96 228 q 94 353 94 289 q 126 621 94 542 q 244 708 161 708 q 361 621 328 708 q 379 558 372 594 q 383 561 382 561 q 390 564 389 564 q 405 569 397 567 q 421 572 413 572 q 436 572 429 572 q 467 560 453 569 q 488 538 481 550 q 497 510 494 525 q 497 494 497 501 q 494 481 497 488 q 489 466 493 472 q 479 456 485 460 q 468 447 475 450 q 461 444 465 446 q 458 443 460 443 q 454 442 457 442 q 444 447 447 439 q 449 457 443 454 l 450 458 q 451 458 450 458 q 454 460 453 460 q 458 463 456 461 q 465 469 463 465 m 292 142 q 310 353 310 208 q 285 590 310 525 q 270 614 278 606 q 258 624 263 622 q 244 625 253 625 l 244 625 q 231 624 236 625 q 218 614 226 622 q 204 590 210 606 q 182 467 188 549 q 192 449 188 456 q 213 435 200 438 q 215 435 214 435 l 217 433 q 218 433 218 433 q 225 435 222 433 q 238 441 232 436 q 247 453 244 446 q 249 468 250 460 l 249 469 q 253 475 247 474 q 258 471 257 475 q 261 450 263 460 q 253 428 260 438 q 235 411 246 418 q 224 407 229 408 q 219 406 221 406 l 218 406 l 217 406 q 211 406 214 406 q 186 408 197 404 q 179 411 183 410 q 178 353 178 383 q 197 142 178 208 q 244 79 214 79 q 292 142 274 79 z "},"Ø":{"ha":521,"x_min":21,"x_max":499,"o":"m 465 469 q 471 485 471 476 q 471 494 471 489 q 469 504 471 499 q 461 519 465 513 q 447 529 456 526 q 433 532 442 532 q 426 531 429 532 q 418 528 422 531 q 411 524 414 526 q 410 522 411 524 q 408 522 408 522 q 406 519 407 521 q 396 500 400 514 q 422 500 408 504 q 447 485 436 497 q 447 478 451 481 q 440 476 444 474 q 418 486 429 485 q 399 481 407 488 q 389 472 393 478 q 393 353 393 419 q 371 119 393 197 q 244 -4 338 -4 q 117 119 150 -4 q 104 181 110 146 q 82 174 93 175 q 76 174 79 174 l 75 174 l 72 174 q 69 174 72 174 q 57 176 63 174 q 36 189 44 181 q 24 208 28 197 q 24 231 21 218 q 29 235 24 235 q 33 229 33 233 q 38 214 33 221 q 49 204 42 207 q 63 200 56 200 q 68 201 65 200 q 69 201 69 201 l 72 201 q 75 203 74 203 q 93 221 86 208 q 99 240 96 228 q 94 353 94 289 q 126 621 94 542 q 244 708 161 708 q 361 621 328 708 q 379 558 372 594 q 383 561 382 561 q 390 564 389 564 q 405 569 397 567 q 421 572 413 572 q 436 572 429 572 q 467 560 453 569 q 488 538 481 550 q 497 510 494 525 q 497 494 497 501 q 494 481 497 488 q 489 466 493 472 q 479 456 485 460 q 468 447 475 450 q 461 444 465 446 q 458 443 460 443 q 454 442 457 442 q 444 447 447 439 q 449 457 443 454 l 450 458 q 451 458 450 458 q 454 460 453 460 q 458 463 456 461 q 465 469 463 465 m 292 142 q 310 353 310 208 q 285 590 310 525 q 270 614 278 606 q 258 624 263 622 q 244 625 253 625 l 244 625 q 231 624 236 625 q 218 614 226 622 q 204 590 210 606 q 182 467 188 549 q 192 449 188 456 q 213 435 200 438 q 215 435 214 435 l 217 433 q 218 433 218 433 q 225 435 222 433 q 238 441 232 436 q 247 453 244 446 q 249 468 250 460 l 249 469 q 253 475 247 474 q 258 471 257 475 q 261 450 263 460 q 253 428 260 438 q 235 411 246 418 q 224 407 229 408 q 219 406 221 406 l 218 406 l 217 406 q 211 406 214 406 q 186 408 197 404 q 179 411 183 410 q 178 353 178 383 q 197 142 178 208 q 244 79 214 79 q 292 142 274 79 z "},"P":{"ha":432,"x_min":21,"x_max":411,"o":"m 188 714 q 213 702 201 713 q 225 676 224 692 q 268 679 246 679 q 356 649 324 679 q 408 400 410 593 q 375 182 408 244 q 268 122 342 122 q 208 129 232 122 q 211 7 208 54 q 211 1 211 4 q 218 -6 214 -3 q 240 -12 228 -12 q 264 -4 251 -12 q 271 -6 268 -1 q 269 -12 274 -10 q 242 -28 257 -24 q 208 -22 224 -31 q 203 -19 207 -22 q 206 -68 204 -46 q 214 -110 208 -92 q 228 -142 219 -131 q 232 -147 229 -146 q 238 -151 233 -150 q 250 -157 243 -156 q 272 -151 263 -161 q 279 -137 276 -146 q 281 -129 281 -135 q 281 -122 281 -126 q 275 -108 279 -114 q 268 -103 272 -106 q 265 -100 267 -101 q 263 -100 264 -100 l 263 -99 l 261 -99 q 252 -83 249 -96 q 268 -74 256 -71 l 271 -74 l 272 -75 q 276 -76 274 -75 q 283 -79 279 -78 q 296 -87 290 -83 q 313 -114 307 -99 q 315 -129 314 -121 q 314 -144 315 -137 q 304 -174 313 -161 q 279 -197 294 -189 q 246 -204 264 -204 q 214 -196 229 -204 q 199 -187 206 -193 q 188 -176 193 -183 q 169 -153 178 -167 q 158 -128 164 -142 q 143 -79 150 -107 q 142 -76 143 -78 q 142 -74 142 -75 q 138 -82 139 -79 q 103 -110 124 -101 l 101 -111 l 99 -111 q 93 -112 97 -111 q 82 -115 86 -114 q 58 -112 69 -117 q 39 -101 47 -110 q 26 -82 31 -93 q 22 -60 22 -72 q 24 -49 22 -54 q 28 -37 25 -43 q 44 -22 33 -28 q 53 -18 49 -19 q 58 -17 56 -17 q 64 -15 61 -15 q 72 -22 71 -14 q 67 -31 74 -29 q 63 -32 64 -32 q 60 -33 61 -32 q 53 -37 56 -35 q 44 -47 47 -42 q 43 -53 43 -50 q 43 -60 43 -56 q 47 -72 44 -67 q 65 -87 53 -85 q 90 -82 76 -89 q 119 -33 111 -71 q 125 -1 124 -19 q 126 36 126 8 q 126 110 126 44 q 125 228 125 176 q 125 236 124 232 q 138 601 126 424 q 125 606 132 604 q 104 603 114 607 q 88 588 93 597 q 85 563 83 576 q 79 557 85 557 q 74 561 75 557 q 74 592 69 578 q 94 619 79 610 q 94 619 94 619 q 72 633 82 625 q 57 653 64 642 q 51 663 54 657 q 47 675 49 668 q 51 721 42 699 q 65 740 57 732 q 85 753 74 749 q 108 757 96 758 q 131 749 121 756 q 144 732 139 742 q 147 721 146 726 q 149 717 149 719 q 150 711 149 714 q 143 703 150 704 q 135 708 136 703 l 133 710 q 133 713 133 711 q 132 715 132 714 q 128 722 129 719 q 118 731 124 728 q 108 731 114 732 q 96 728 101 731 q 83 708 88 722 q 86 686 81 696 q 88 683 86 685 q 92 678 90 681 q 101 671 96 674 q 125 664 111 665 q 142 664 132 664 q 142 675 142 671 q 156 703 143 692 q 188 714 169 714 m 296 589 q 268 596 289 596 q 221 592 243 596 q 208 235 210 417 q 223 213 211 219 q 268 206 235 206 q 290 208 283 206 q 301 222 296 211 q 325 401 325 265 q 296 589 326 558 z "},"Q":{"ha":528,"x_min":21,"x_max":506,"o":"m 458 -140 q 464 -131 464 -136 q 464 -119 465 -125 q 459 -110 463 -114 q 451 -103 456 -106 q 449 -101 450 -103 q 446 -101 447 -101 q 440 -100 443 -100 q 413 -103 429 -99 q 345 -131 383 -110 q 289 -153 307 -153 q 199 -76 214 -156 q 193 -19 194 -53 q 107 96 132 4 q 85 329 85 174 q 86 382 85 356 q 81 381 83 382 l 79 381 l 78 381 q 74 381 76 381 q 61 382 68 381 q 40 392 50 385 q 25 410 31 400 q 22 432 21 421 q 28 436 22 438 q 32 432 32 436 q 38 417 33 424 q 50 408 43 411 q 64 407 57 406 q 71 407 68 407 q 72 408 71 407 q 72 408 72 408 l 74 408 q 76 410 75 410 q 88 419 83 414 q 117 597 93 538 q 235 685 151 685 q 353 597 318 685 q 383 329 383 517 q 382 264 383 294 q 404 267 393 267 q 411 265 408 265 l 413 265 l 414 265 q 417 264 414 265 q 429 258 424 263 q 446 243 439 253 q 454 221 453 232 q 450 199 456 210 q 444 196 449 194 q 442 201 440 199 q 440 218 443 211 q 431 231 438 225 q 418 236 425 235 q 413 238 415 238 q 411 238 413 238 l 408 236 q 406 236 407 236 q 385 222 393 233 q 381 214 382 219 q 363 96 375 143 q 276 -19 336 4 q 281 -61 278 -44 q 342 -58 285 -83 l 343 -58 q 365 -49 356 -54 q 383 -36 376 -43 q 389 -29 388 -32 q 390 -21 390 -25 q 379 -1 389 -11 q 379 6 375 3 q 386 7 382 10 q 396 -3 392 1 q 404 -17 401 -10 q 406 -24 406 -19 q 406 -33 406 -29 q 400 -46 404 -39 q 402 -46 400 -46 q 404 -46 404 -46 q 429 -44 418 -44 q 456 -50 443 -46 q 468 -57 463 -53 q 475 -61 472 -58 q 481 -65 478 -64 q 497 -87 492 -75 q 504 -117 504 -101 q 497 -144 504 -132 q 479 -165 490 -157 q 474 -168 476 -167 q 467 -171 469 -171 q 453 -175 460 -174 q 426 -167 439 -175 q 418 -158 422 -164 q 414 -154 415 -157 q 411 -149 413 -151 q 414 -139 407 -143 q 422 -139 418 -136 l 424 -140 q 426 -143 426 -143 q 431 -144 428 -144 q 438 -149 433 -147 q 449 -149 444 -150 q 454 -146 451 -147 q 457 -143 454 -144 q 458 -140 458 -142 m 169 329 q 188 118 169 185 q 235 56 204 56 q 282 118 265 56 q 300 329 300 185 q 275 567 300 501 q 260 590 268 582 q 248 600 253 599 q 235 601 243 601 l 235 601 q 222 600 226 601 q 208 590 217 599 q 194 567 200 582 q 169 329 169 501 z "},"R":{"ha":582,"x_min":21,"x_max":561,"o":"m 368 -164 q 344 -132 354 -150 q 318 -62 328 -103 q 308 7 311 -31 q 307 8 308 7 q 307 13 307 11 q 275 185 297 167 q 199 181 261 196 q 200 44 199 93 q 190 15 201 28 q 160 1 178 3 q 158 1 160 1 q 130 13 142 1 q 117 42 118 25 q 117 365 113 165 q 99 367 107 367 q 83 365 90 367 q 68 357 75 363 q 65 353 67 354 l 64 351 q 63 351 64 351 q 63 350 63 350 q 58 343 60 347 q 54 324 54 333 q 60 306 56 314 q 76 290 65 296 q 79 281 82 286 q 71 276 76 275 q 44 290 56 281 q 26 317 32 301 q 22 350 21 333 q 26 367 24 358 q 28 371 26 368 q 29 375 29 374 q 33 382 32 378 q 57 408 43 399 q 89 425 71 419 q 93 425 89 425 q 75 446 82 433 q 71 478 68 461 q 85 504 74 492 q 93 504 89 508 q 93 497 96 501 q 86 475 86 486 q 92 456 85 464 q 108 443 99 447 q 119 442 114 442 q 132 685 124 564 q 147 713 133 701 q 176 724 160 724 q 201 713 190 722 q 214 689 213 703 q 274 694 244 697 q 378 628 351 686 q 393 453 400 579 q 332 342 389 375 q 256 322 299 322 q 200 329 228 322 q 199 267 199 297 q 326 250 292 285 q 360 201 346 231 q 379 142 374 171 q 388 79 385 113 q 390 23 390 46 q 390 -22 390 0 q 389 -44 389 -43 q 415 -129 390 -106 q 474 -151 440 -153 q 481 -150 476 -151 q 482 -140 482 -146 q 478 -121 483 -129 q 461 -107 472 -111 q 439 -106 451 -103 q 432 -101 433 -107 q 436 -96 432 -97 q 465 -93 451 -90 q 493 -110 482 -96 q 506 -137 503 -121 q 513 -129 510 -133 q 521 -83 528 -108 q 508 -62 517 -72 q 486 -46 500 -53 q 481 -26 474 -39 q 499 -21 486 -15 q 529 -40 517 -28 q 553 -72 544 -54 q 560 -112 561 -92 q 548 -151 558 -132 q 519 -182 538 -169 q 507 -190 515 -186 q 517 -210 514 -199 q 515 -254 524 -232 q 489 -286 507 -272 q 478 -285 482 -292 q 478 -274 474 -279 q 493 -247 490 -261 q 488 -221 496 -233 q 469 -203 482 -208 q 465 -201 468 -201 q 440 -200 453 -201 q 421 -196 431 -199 q 411 -193 415 -193 l 407 -190 l 401 -189 q 368 -164 383 -179 m 265 611 q 210 593 235 614 q 201 417 204 504 q 289 414 257 394 q 310 458 308 424 q 303 594 315 564 q 265 611 296 608 z "},"S":{"ha":461,"x_min":21,"x_max":443,"o":"m 324 697 q 388 660 360 686 q 428 597 415 633 q 438 524 442 561 q 411 456 435 485 q 383 431 399 440 q 350 417 368 422 q 283 415 321 410 q 275 425 274 417 q 285 433 276 433 q 343 442 318 432 q 383 475 369 453 q 396 526 397 497 q 385 572 396 550 q 378 553 383 561 q 342 525 365 532 q 297 528 321 519 q 294 533 292 529 q 300 538 296 539 q 336 539 321 533 q 361 563 354 546 q 361 594 368 578 q 358 602 360 599 q 349 614 356 606 q 332 626 342 622 q 305 635 322 631 q 265 633 288 639 q 256 631 260 632 q 221 622 242 628 q 203 607 210 615 q 185 481 176 575 q 194 442 186 458 q 210 418 201 426 q 239 394 219 410 q 277 363 264 375 q 308 322 290 350 q 332 257 325 293 q 342 261 338 260 q 367 264 354 265 q 372 264 369 264 l 374 264 l 376 263 q 379 263 376 263 q 390 257 385 261 q 408 242 401 251 q 417 219 415 231 q 413 197 417 208 q 407 194 411 193 q 403 200 403 196 q 402 217 404 210 q 393 228 400 224 q 381 235 388 233 q 374 235 378 235 q 372 235 374 235 l 371 235 q 368 235 369 235 q 347 221 356 232 q 339 206 343 215 q 338 153 340 181 q 251 33 332 63 q 181 24 221 24 q 156 24 169 24 q 127 38 139 25 q 117 69 115 51 q 131 97 118 86 q 161 107 144 108 q 224 113 200 104 q 254 158 253 124 q 249 246 258 211 q 227 294 239 281 q 188 328 215 307 q 157 354 168 344 q 131 386 146 364 q 108 433 115 408 q 86 424 99 426 q 81 424 83 424 l 79 422 l 78 422 q 74 422 76 422 q 61 424 68 422 q 40 434 50 426 q 25 453 31 442 q 22 474 21 463 q 28 478 22 479 q 32 475 32 478 l 32 474 q 38 459 33 465 q 50 450 43 453 q 64 449 57 447 q 71 450 68 449 q 72 450 72 450 l 74 451 q 76 453 75 451 q 92 472 88 458 q 99 511 99 493 q 144 665 101 622 q 272 707 188 710 q 274 707 272 707 q 282 706 278 707 q 314 700 297 706 q 324 697 319 700 z "},"T":{"ha":482,"x_min":21,"x_max":461,"o":"m 415 708 q 446 697 433 708 q 460 668 458 686 q 450 639 461 651 q 422 625 439 626 q 421 625 421 625 q 310 621 411 624 q 300 178 299 474 q 317 188 308 183 q 326 189 321 188 q 335 190 331 190 q 353 188 344 190 q 369 176 363 183 q 378 160 375 169 q 379 143 381 153 q 378 135 379 138 q 374 126 376 129 q 360 114 368 118 q 353 111 357 113 q 349 111 350 111 q 344 110 346 110 q 336 117 336 110 q 342 125 335 124 q 344 126 343 125 q 344 126 344 126 q 347 128 346 126 q 351 129 350 128 q 357 136 356 132 q 358 139 358 138 q 358 144 358 142 q 356 153 358 149 q 344 163 353 161 q 338 161 342 163 q 333 160 335 161 q 329 158 331 160 q 307 126 315 151 q 303 103 304 115 q 301 92 301 97 q 301 86 301 89 l 301 82 q 301 81 301 81 q 301 79 301 81 q 303 1 301 29 q 291 -29 303 -17 q 261 -42 279 -42 q 231 -30 243 -42 q 219 -1 219 -18 q 217 358 215 179 q 208 357 213 357 q 203 356 206 356 l 201 356 l 200 356 q 197 356 200 356 q 185 356 190 354 q 163 366 172 358 q 149 385 153 374 q 144 407 144 394 q 150 411 146 411 q 154 407 154 411 q 161 392 157 397 q 172 383 165 386 q 188 381 179 381 q 193 382 190 381 q 194 382 193 382 l 196 383 q 200 385 197 383 q 215 404 210 390 q 218 417 217 410 q 226 619 221 539 q 190 619 211 619 q 150 618 169 618 q 111 615 131 618 q 79 604 92 611 q 75 601 78 604 q 74 600 74 601 q 71 597 72 597 q 67 588 68 593 q 67 576 65 582 q 71 567 67 572 q 81 560 75 563 q 83 558 82 560 q 86 558 86 558 q 93 557 90 557 q 103 563 99 558 q 108 569 106 565 q 110 572 110 571 q 111 575 111 574 q 113 576 113 576 l 113 578 q 124 581 117 585 q 128 574 128 579 q 127 568 128 571 q 125 561 126 565 q 121 550 124 556 q 100 532 114 538 q 86 529 93 529 q 79 529 85 529 q 74 529 76 529 q 47 540 58 532 q 29 561 36 549 q 22 590 22 575 q 28 618 22 604 q 31 625 29 621 q 35 632 32 628 q 44 643 39 638 q 65 660 53 651 q 88 669 75 665 q 90 670 89 669 q 92 671 92 671 q 82 681 86 675 q 78 688 79 683 q 75 696 75 692 q 76 711 74 703 q 82 725 78 717 q 89 726 85 729 q 92 721 93 725 q 89 699 88 707 q 94 692 90 694 q 103 688 97 689 q 125 683 111 683 q 150 685 135 683 q 153 685 151 685 q 415 708 229 697 z "},"U":{"ha":539,"x_min":21,"x_max":517,"o":"m 65 276 q 44 286 54 279 q 29 304 35 293 q 26 326 25 315 q 32 331 28 331 q 36 326 36 331 q 42 312 38 318 q 54 303 47 306 q 68 300 61 300 q 75 301 72 301 q 76 303 76 303 l 78 303 q 81 304 79 304 q 96 324 92 311 q 99 329 97 326 q 118 597 101 401 q 121 618 119 599 q 110 633 117 628 q 89 643 101 642 q 65 636 78 643 l 64 636 q 57 639 60 633 q 58 644 56 642 q 89 657 74 656 q 122 649 107 660 q 124 649 122 649 q 124 654 124 650 q 124 661 124 658 q 125 664 124 661 q 125 692 125 679 q 119 735 124 717 q 110 771 117 757 q 106 776 107 774 q 104 779 104 778 q 101 781 103 779 q 90 788 96 786 q 67 783 76 792 q 58 771 61 779 q 56 763 57 767 q 56 756 56 758 q 60 742 56 747 q 65 735 63 738 q 69 732 67 733 q 71 731 69 732 l 72 731 l 72 731 q 81 714 85 726 q 64 706 76 701 l 61 707 l 60 707 q 56 708 58 708 q 50 713 53 711 q 38 722 43 717 q 24 750 26 735 q 22 766 22 758 q 24 781 22 774 q 38 810 28 797 q 64 829 47 824 q 99 833 81 836 q 131 822 115 832 q 138 818 135 819 q 143 811 140 815 q 154 799 149 806 q 168 774 161 789 q 176 749 174 763 q 188 699 183 726 q 188 695 188 697 q 189 692 189 693 q 197 703 193 697 q 233 726 214 721 l 236 728 l 239 729 q 244 729 240 729 q 256 731 250 731 q 278 726 268 731 q 298 713 290 722 q 308 693 306 704 q 310 671 311 682 q 308 660 310 664 q 303 649 306 654 q 285 635 296 640 q 275 632 281 633 q 270 631 272 631 q 265 631 268 631 q 257 638 257 629 q 263 646 256 644 l 264 646 q 267 646 265 646 q 271 647 269 647 q 278 650 275 649 q 286 660 283 654 q 289 665 288 663 q 289 672 289 668 q 286 686 289 679 q 269 701 282 699 q 244 699 258 704 q 210 653 222 689 q 206 639 208 647 q 201 589 203 608 q 186 395 190 456 q 179 259 182 335 q 182 149 176 183 q 203 100 188 114 q 279 88 219 83 q 332 107 315 90 q 358 174 349 124 q 357 626 375 267 q 368 656 357 643 q 397 670 379 669 q 426 659 414 671 q 440 630 439 647 q 442 593 442 613 q 453 599 447 597 q 462 601 457 600 q 471 601 467 601 q 489 599 481 603 q 506 589 499 596 q 514 572 511 582 q 515 556 517 564 q 514 546 515 550 q 510 538 513 542 q 496 526 504 531 q 489 524 493 525 q 485 522 486 522 q 481 522 482 522 q 472 529 472 521 q 478 538 471 535 l 479 538 q 481 538 481 538 q 483 539 482 539 q 488 542 486 540 q 493 547 492 544 q 494 551 494 550 q 494 556 494 553 q 492 565 494 561 q 481 574 489 572 q 474 574 478 575 q 469 572 472 574 q 465 571 467 571 q 444 542 451 564 q 440 158 457 254 q 389 46 426 83 q 286 4 353 10 q 254 3 268 3 q 143 42 181 3 q 94 229 94 90 q 96 278 94 251 q 90 276 93 276 q 85 275 88 275 l 83 275 l 82 275 q 78 275 81 275 q 65 276 72 275 z "},"Ù":{"ha":539,"x_min":21,"x_max":517,"o":"m 65 276 q 44 286 54 279 q 29 304 35 293 q 26 326 25 315 q 32 331 28 331 q 36 326 36 331 q 42 312 38 318 q 54 303 47 306 q 68 300 61 300 q 75 301 72 301 q 76 303 76 303 l 78 303 q 81 304 79 304 q 96 324 92 311 q 99 329 97 326 q 118 597 101 401 q 121 618 119 599 q 110 633 117 628 q 89 643 101 642 q 65 636 78 643 l 64 636 q 57 639 60 633 q 58 644 56 642 q 89 657 74 656 q 122 649 107 660 q 124 649 122 649 q 124 654 124 650 q 124 661 124 658 q 125 664 124 661 q 125 692 125 679 q 119 735 124 717 q 110 771 117 757 q 106 776 107 774 q 104 779 104 778 q 101 781 103 779 q 90 788 96 786 q 67 783 76 792 q 58 771 61 779 q 56 763 57 767 q 56 756 56 758 q 60 742 56 747 q 65 735 63 738 q 69 732 67 733 q 71 731 69 732 l 72 731 l 72 731 q 81 714 85 726 q 64 706 76 701 l 61 707 l 60 707 q 56 708 58 708 q 50 713 53 711 q 38 722 43 717 q 24 750 26 735 q 22 766 22 758 q 24 781 22 774 q 38 810 28 797 q 64 829 47 824 q 99 833 81 836 q 131 822 115 832 q 138 818 135 819 q 143 811 140 815 q 154 799 149 806 q 168 774 161 789 q 176 749 174 763 q 188 699 183 726 q 188 695 188 697 q 189 692 189 693 q 197 703 193 697 q 233 726 214 721 l 236 728 l 239 729 q 244 729 240 729 q 256 731 250 731 q 278 726 268 731 q 298 713 290 722 q 308 693 306 704 q 310 671 311 682 q 308 660 310 664 q 303 649 306 654 q 285 635 296 640 q 275 632 281 633 q 270 631 272 631 q 265 631 268 631 q 257 638 257 629 q 263 646 256 644 l 264 646 q 267 646 265 646 q 271 647 269 647 q 278 650 275 649 q 286 660 283 654 q 289 665 288 663 q 289 672 289 668 q 286 686 289 679 q 269 701 282 699 q 244 699 258 704 q 210 653 222 689 q 206 639 208 647 q 201 589 203 608 q 186 395 190 456 q 179 259 182 335 q 182 149 176 183 q 203 100 188 114 q 279 88 219 83 q 332 107 315 90 q 358 174 349 124 q 357 626 375 267 q 368 656 357 643 q 397 670 379 669 q 426 659 414 671 q 440 630 439 647 q 442 593 442 613 q 453 599 447 597 q 462 601 457 600 q 471 601 467 601 q 489 599 481 603 q 506 589 499 596 q 514 572 511 582 q 515 556 517 564 q 514 546 515 550 q 510 538 513 542 q 496 526 504 531 q 489 524 493 525 q 485 522 486 522 q 481 522 482 522 q 472 529 472 521 q 478 538 471 535 l 479 538 q 481 538 481 538 q 483 539 482 539 q 488 542 486 540 q 493 547 492 544 q 494 551 494 550 q 494 556 494 553 q 492 565 494 561 q 481 574 489 572 q 474 574 478 575 q 469 572 472 574 q 465 571 467 571 q 444 542 451 564 q 440 158 457 254 q 389 46 426 83 q 286 4 353 10 q 254 3 268 3 q 143 42 181 3 q 94 229 94 90 q 96 278 94 251 q 90 276 93 276 q 85 275 88 275 l 83 275 l 82 275 q 78 275 81 275 q 65 276 72 275 z "},"Ú":{"ha":539,"x_min":21,"x_max":517,"o":"m 65 276 q 44 286 54 279 q 29 304 35 293 q 26 326 25 315 q 32 331 28 331 q 36 326 36 331 q 42 312 38 318 q 54 303 47 306 q 68 300 61 300 q 75 301 72 301 q 76 303 76 303 l 78 303 q 81 304 79 304 q 96 324 92 311 q 99 329 97 326 q 118 597 101 401 q 121 618 119 599 q 110 633 117 628 q 89 643 101 642 q 65 636 78 643 l 64 636 q 57 639 60 633 q 58 644 56 642 q 89 657 74 656 q 122 649 107 660 q 124 649 122 649 q 124 654 124 650 q 124 661 124 658 q 125 664 124 661 q 125 692 125 679 q 119 735 124 717 q 110 771 117 757 q 106 776 107 774 q 104 779 104 778 q 101 781 103 779 q 90 788 96 786 q 67 783 76 792 q 58 771 61 779 q 56 763 57 767 q 56 756 56 758 q 60 742 56 747 q 65 735 63 738 q 69 732 67 733 q 71 731 69 732 l 72 731 l 72 731 q 81 714 85 726 q 64 706 76 701 l 61 707 l 60 707 q 56 708 58 708 q 50 713 53 711 q 38 722 43 717 q 24 750 26 735 q 22 766 22 758 q 24 781 22 774 q 38 810 28 797 q 64 829 47 824 q 99 833 81 836 q 131 822 115 832 q 138 818 135 819 q 143 811 140 815 q 154 799 149 806 q 168 774 161 789 q 176 749 174 763 q 188 699 183 726 q 188 695 188 697 q 189 692 189 693 q 197 703 193 697 q 233 726 214 721 l 236 728 l 239 729 q 244 729 240 729 q 256 731 250 731 q 278 726 268 731 q 298 713 290 722 q 308 693 306 704 q 310 671 311 682 q 308 660 310 664 q 303 649 306 654 q 285 635 296 640 q 275 632 281 633 q 270 631 272 631 q 265 631 268 631 q 257 638 257 629 q 263 646 256 644 l 264 646 q 267 646 265 646 q 271 647 269 647 q 278 650 275 649 q 286 660 283 654 q 289 665 288 663 q 289 672 289 668 q 286 686 289 679 q 269 701 282 699 q 244 699 258 704 q 210 653 222 689 q 206 639 208 647 q 201 589 203 608 q 186 395 190 456 q 179 259 182 335 q 182 149 176 183 q 203 100 188 114 q 279 88 219 83 q 332 107 315 90 q 358 174 349 124 q 357 626 375 267 q 368 656 357 643 q 397 670 379 669 q 426 659 414 671 q 440 630 439 647 q 442 593 442 613 q 453 599 447 597 q 462 601 457 600 q 471 601 467 601 q 489 599 481 603 q 506 589 499 596 q 514 572 511 582 q 515 556 517 564 q 514 546 515 550 q 510 538 513 542 q 496 526 504 531 q 489 524 493 525 q 485 522 486 522 q 481 522 482 522 q 472 529 472 521 q 478 538 471 535 l 479 538 q 481 538 481 538 q 483 539 482 539 q 488 542 486 540 q 493 547 492 544 q 494 551 494 550 q 494 556 494 553 q 492 565 494 561 q 481 574 489 572 q 474 574 478 575 q 469 572 472 574 q 465 571 467 571 q 444 542 451 564 q 440 158 457 254 q 389 46 426 83 q 286 4 353 10 q 254 3 268 3 q 143 42 181 3 q 94 229 94 90 q 96 278 94 251 q 90 276 93 276 q 85 275 88 275 l 83 275 l 82 275 q 78 275 81 275 q 65 276 72 275 z "},"Û":{"ha":539,"x_min":21,"x_max":517,"o":"m 65 276 q 44 286 54 279 q 29 304 35 293 q 26 326 25 315 q 32 331 28 331 q 36 326 36 331 q 42 312 38 318 q 54 303 47 306 q 68 300 61 300 q 75 301 72 301 q 76 303 76 303 l 78 303 q 81 304 79 304 q 96 324 92 311 q 99 329 97 326 q 118 597 101 401 q 121 618 119 599 q 110 633 117 628 q 89 643 101 642 q 65 636 78 643 l 64 636 q 57 639 60 633 q 58 644 56 642 q 89 657 74 656 q 122 649 107 660 q 124 649 122 649 q 124 654 124 650 q 124 661 124 658 q 125 664 124 661 q 125 692 125 679 q 119 735 124 717 q 110 771 117 757 q 106 776 107 774 q 104 779 104 778 q 101 781 103 779 q 90 788 96 786 q 67 783 76 792 q 58 771 61 779 q 56 763 57 767 q 56 756 56 758 q 60 742 56 747 q 65 735 63 738 q 69 732 67 733 q 71 731 69 732 l 72 731 l 72 731 q 81 714 85 726 q 64 706 76 701 l 61 707 l 60 707 q 56 708 58 708 q 50 713 53 711 q 38 722 43 717 q 24 750 26 735 q 22 766 22 758 q 24 781 22 774 q 38 810 28 797 q 64 829 47 824 q 99 833 81 836 q 131 822 115 832 q 138 818 135 819 q 143 811 140 815 q 154 799 149 806 q 168 774 161 789 q 176 749 174 763 q 188 699 183 726 q 188 695 188 697 q 189 692 189 693 q 197 703 193 697 q 233 726 214 721 l 236 728 l 239 729 q 244 729 240 729 q 256 731 250 731 q 278 726 268 731 q 298 713 290 722 q 308 693 306 704 q 310 671 311 682 q 308 660 310 664 q 303 649 306 654 q 285 635 296 640 q 275 632 281 633 q 270 631 272 631 q 265 631 268 631 q 257 638 257 629 q 263 646 256 644 l 264 646 q 267 646 265 646 q 271 647 269 647 q 278 650 275 649 q 286 660 283 654 q 289 665 288 663 q 289 672 289 668 q 286 686 289 679 q 269 701 282 699 q 244 699 258 704 q 210 653 222 689 q 206 639 208 647 q 201 589 203 608 q 186 395 190 456 q 179 259 182 335 q 182 149 176 183 q 203 100 188 114 q 279 88 219 83 q 332 107 315 90 q 358 174 349 124 q 357 626 375 267 q 368 656 357 643 q 397 670 379 669 q 426 659 414 671 q 440 630 439 647 q 442 593 442 613 q 453 599 447 597 q 462 601 457 600 q 471 601 467 601 q 489 599 481 603 q 506 589 499 596 q 514 572 511 582 q 515 556 517 564 q 514 546 515 550 q 510 538 513 542 q 496 526 504 531 q 489 524 493 525 q 485 522 486 522 q 481 522 482 522 q 472 529 472 521 q 478 538 471 535 l 479 538 q 481 538 481 538 q 483 539 482 539 q 488 542 486 540 q 493 547 492 544 q 494 551 494 550 q 494 556 494 553 q 492 565 494 561 q 481 574 489 572 q 474 574 478 575 q 469 572 472 574 q 465 571 467 571 q 444 542 451 564 q 440 158 457 254 q 389 46 426 83 q 286 4 353 10 q 254 3 268 3 q 143 42 181 3 q 94 229 94 90 q 96 278 94 251 q 90 276 93 276 q 85 275 88 275 l 83 275 l 82 275 q 78 275 81 275 q 65 276 72 275 z "},"Ü":{"ha":539,"x_min":21,"x_max":517,"o":"m 65 276 q 44 286 54 279 q 29 304 35 293 q 26 326 25 315 q 32 331 28 331 q 36 326 36 331 q 42 312 38 318 q 54 303 47 306 q 68 300 61 300 q 75 301 72 301 q 76 303 76 303 l 78 303 q 81 304 79 304 q 96 324 92 311 q 99 329 97 326 q 118 597 101 401 q 121 618 119 599 q 110 633 117 628 q 89 643 101 642 q 65 636 78 643 l 64 636 q 57 639 60 633 q 58 644 56 642 q 89 657 74 656 q 122 649 107 660 q 124 649 122 649 q 124 654 124 650 q 124 661 124 658 q 125 664 124 661 q 125 692 125 679 q 119 735 124 717 q 110 771 117 757 q 106 776 107 774 q 104 779 104 778 q 101 781 103 779 q 90 788 96 786 q 67 783 76 792 q 58 771 61 779 q 56 763 57 767 q 56 756 56 758 q 60 742 56 747 q 65 735 63 738 q 69 732 67 733 q 71 731 69 732 l 72 731 l 72 731 q 81 714 85 726 q 64 706 76 701 l 61 707 l 60 707 q 56 708 58 708 q 50 713 53 711 q 38 722 43 717 q 24 750 26 735 q 22 766 22 758 q 24 781 22 774 q 38 810 28 797 q 64 829 47 824 q 99 833 81 836 q 131 822 115 832 q 138 818 135 819 q 143 811 140 815 q 154 799 149 806 q 168 774 161 789 q 176 749 174 763 q 188 699 183 726 q 188 695 188 697 q 189 692 189 693 q 197 703 193 697 q 233 726 214 721 l 236 728 l 239 729 q 244 729 240 729 q 256 731 250 731 q 278 726 268 731 q 298 713 290 722 q 308 693 306 704 q 310 671 311 682 q 308 660 310 664 q 303 649 306 654 q 285 635 296 640 q 275 632 281 633 q 270 631 272 631 q 265 631 268 631 q 257 638 257 629 q 263 646 256 644 l 264 646 q 267 646 265 646 q 271 647 269 647 q 278 650 275 649 q 286 660 283 654 q 289 665 288 663 q 289 672 289 668 q 286 686 289 679 q 269 701 282 699 q 244 699 258 704 q 210 653 222 689 q 206 639 208 647 q 201 589 203 608 q 186 395 190 456 q 179 259 182 335 q 182 149 176 183 q 203 100 188 114 q 279 88 219 83 q 332 107 315 90 q 358 174 349 124 q 357 626 375 267 q 368 656 357 643 q 397 670 379 669 q 426 659 414 671 q 440 630 439 647 q 442 593 442 613 q 453 599 447 597 q 462 601 457 600 q 471 601 467 601 q 489 599 481 603 q 506 589 499 596 q 514 572 511 582 q 515 556 517 564 q 514 546 515 550 q 510 538 513 542 q 496 526 504 531 q 489 524 493 525 q 485 522 486 522 q 481 522 482 522 q 472 529 472 521 q 478 538 471 535 l 479 538 q 481 538 481 538 q 483 539 482 539 q 488 542 486 540 q 493 547 492 544 q 494 551 494 550 q 494 556 494 553 q 492 565 494 561 q 481 574 489 572 q 474 574 478 575 q 469 572 472 574 q 465 571 467 571 q 444 542 451 564 q 440 158 457 254 q 389 46 426 83 q 286 4 353 10 q 254 3 268 3 q 143 42 181 3 q 94 229 94 90 q 96 278 94 251 q 90 276 93 276 q 85 275 88 275 l 83 275 l 82 275 q 78 275 81 275 q 65 276 72 275 z "},"V":{"ha":461,"x_min":21,"x_max":440,"o":"m 433 156 q 438 151 438 154 q 435 129 439 139 q 421 110 431 118 q 399 100 411 103 q 386 100 392 99 q 383 100 383 100 l 381 100 l 379 100 q 374 101 376 100 q 350 111 361 104 q 344 115 347 114 q 319 32 331 64 q 281 4 310 4 q 278 4 279 4 q 253 15 264 6 q 239 38 242 24 q 169 411 206 183 q 156 426 163 422 q 151 428 153 426 q 147 429 149 429 q 139 429 143 431 q 128 421 132 428 q 125 411 126 417 q 125 407 125 408 q 126 403 126 406 q 132 397 128 400 q 136 394 135 396 q 139 393 138 394 q 141 393 140 393 q 142 393 142 393 l 143 393 q 147 383 150 390 q 140 378 146 376 q 136 378 138 378 q 132 379 133 378 q 124 382 128 381 q 110 393 115 386 q 106 401 107 397 q 104 411 106 406 q 106 428 104 419 q 115 444 108 438 q 131 454 121 451 q 150 457 139 458 q 158 457 153 457 q 161 456 160 457 q 129 672 144 564 q 129 676 129 675 q 115 694 124 689 q 94 699 107 701 l 93 699 q 88 704 89 699 q 92 710 88 708 q 107 711 100 711 q 124 707 115 711 q 125 707 125 707 q 125 707 125 707 q 108 740 117 729 q 103 746 106 744 q 101 749 103 747 q 99 750 101 749 q 86 754 93 754 q 64 746 72 757 q 58 733 60 742 q 57 724 57 728 q 58 717 57 719 q 65 703 60 708 q 71 699 68 700 q 75 696 74 697 q 76 696 76 696 l 78 694 l 78 694 q 90 680 92 693 q 74 669 88 667 l 72 669 l 69 669 q 67 671 68 671 q 60 674 63 672 q 46 681 51 676 q 26 706 33 690 q 23 722 24 714 q 22 736 22 729 q 31 767 22 753 q 54 792 39 782 q 86 801 68 800 q 119 796 103 801 q 128 792 125 793 q 135 788 132 790 q 147 776 142 783 q 165 754 157 767 q 178 731 172 743 q 183 718 181 725 q 185 718 183 718 q 194 736 189 728 q 225 767 207 757 l 228 768 l 231 769 q 235 772 231 769 q 246 775 242 774 q 269 775 258 776 q 291 765 282 772 q 304 746 300 757 q 310 725 310 736 q 310 714 311 718 q 307 703 310 708 q 292 686 301 692 q 283 681 288 683 q 278 679 281 679 q 272 676 275 678 q 264 683 265 675 q 268 692 261 689 l 269 692 q 272 693 271 693 q 275 696 274 694 q 282 700 279 697 q 289 710 288 704 q 290 715 290 713 q 289 722 290 718 q 285 735 288 731 q 265 749 278 747 q 240 740 253 749 q 215 690 221 728 q 214 678 214 685 q 286 225 244 446 q 331 610 331 425 q 343 640 331 628 q 373 651 356 651 q 402 640 390 651 q 414 610 414 628 q 363 183 414 403 q 363 181 363 182 q 368 149 364 160 q 383 129 372 135 q 386 128 385 128 l 389 126 q 390 126 389 126 q 396 125 393 125 q 410 128 403 125 q 422 136 417 131 q 428 151 426 142 q 433 156 429 156 z "},"W":{"ha":725,"x_min":18,"x_max":707,"o":"m 689 558 q 658 574 674 571 q 631 565 643 575 q 622 556 626 561 q 611 65 625 115 q 558 -3 599 21 q 467 -28 517 -28 q 447 -28 457 -28 q 339 40 367 -19 q 251 17 300 17 q 233 17 242 17 q 151 52 183 22 q 114 126 118 82 q 107 124 110 125 q 83 118 94 118 q 58 122 69 117 q 39 135 47 126 q 24 151 31 142 q 26 163 19 158 q 36 161 32 167 q 65 144 51 147 q 93 150 81 142 q 111 172 104 158 q 120 465 107 267 q 133 668 133 663 q 126 686 132 676 q 110 699 119 696 q 88 696 101 701 q 81 699 83 694 q 83 706 79 703 q 97 711 90 710 q 113 713 104 714 q 128 708 121 713 q 132 707 129 707 q 128 724 131 715 q 117 750 124 740 q 114 754 115 753 l 114 756 l 113 757 q 110 758 113 757 q 101 764 106 763 q 79 764 89 769 q 69 756 74 761 q 64 742 65 750 l 63 740 q 47 732 60 728 q 38 746 38 735 q 42 769 38 758 q 48 781 44 775 q 57 792 51 786 q 81 806 67 801 q 108 808 94 810 q 136 800 122 807 q 142 797 139 799 l 144 796 q 147 793 146 794 q 158 783 153 789 q 172 763 167 774 q 182 740 178 753 q 192 706 188 725 q 192 706 192 706 q 194 706 193 706 q 207 724 200 715 q 243 749 222 742 l 246 749 l 249 750 q 254 750 249 750 q 265 751 260 751 q 288 747 276 751 q 308 734 300 743 q 318 714 315 725 q 319 692 321 703 q 317 681 319 685 q 313 671 315 675 q 294 656 306 661 q 285 653 290 654 q 279 651 282 651 q 274 651 276 651 q 267 658 267 650 q 272 667 265 665 l 274 667 q 276 667 275 667 q 281 668 278 668 q 286 671 283 669 q 296 681 293 675 q 299 686 297 683 q 299 693 299 689 q 296 707 299 700 q 279 722 290 719 q 254 719 268 725 q 219 675 232 710 q 217 663 217 665 q 199 424 210 624 q 196 135 189 224 q 242 100 199 104 q 287 107 265 97 q 315 138 308 117 q 322 311 321 160 q 322 524 321 421 q 324 531 322 526 q 322 635 322 596 q 334 664 322 651 q 363 678 346 676 q 364 678 363 678 q 393 666 381 678 q 406 636 406 654 q 407 379 407 543 q 407 378 407 379 q 439 331 418 342 q 464 328 453 325 q 482 343 476 331 q 485 356 485 349 q 485 363 485 360 q 483 368 485 365 q 474 378 481 374 q 468 381 471 379 q 464 382 465 382 q 461 383 463 382 l 460 383 q 454 393 453 385 q 463 399 456 399 q 468 398 465 399 q 472 397 471 397 q 482 393 478 394 q 500 378 493 388 q 504 367 503 374 q 506 356 506 363 q 503 335 507 344 q 492 315 500 324 q 472 301 483 306 q 449 299 461 297 q 438 300 444 299 q 433 301 433 301 l 431 301 l 428 303 q 406 315 417 307 q 406 313 406 314 q 406 311 406 313 q 413 85 407 163 q 456 56 414 60 q 503 62 481 53 q 531 88 526 71 q 538 334 536 114 q 539 614 540 554 q 551 644 539 632 q 580 657 563 657 q 610 645 597 657 q 622 617 622 633 q 622 594 622 614 q 639 599 631 599 q 664 596 651 600 q 685 585 675 593 q 700 569 693 579 q 699 558 706 564 q 689 558 694 554 z "},"X":{"ha":551,"x_min":21,"x_max":529,"o":"m 496 735 q 515 722 507 731 q 526 701 522 713 q 528 679 529 690 q 525 668 526 672 q 519 657 524 663 q 503 643 514 649 q 493 640 499 642 q 488 639 490 639 q 482 639 485 639 q 474 646 475 638 q 481 654 474 653 q 485 654 483 654 q 488 656 486 656 q 494 658 492 657 q 504 668 501 663 q 506 674 506 671 q 507 681 507 676 q 504 694 507 688 q 486 710 499 707 q 461 707 475 713 q 428 661 440 697 q 426 657 428 661 q 425 501 428 571 q 442 482 432 489 q 469 476 454 474 q 499 494 483 479 q 510 494 504 500 q 511 483 515 489 q 496 467 504 474 q 476 454 488 458 q 451 450 465 450 q 428 456 440 450 q 424 457 426 456 q 415 394 421 414 q 382 343 406 365 q 414 269 410 313 q 422 24 426 122 q 410 -5 422 7 q 381 -17 397 -17 q 379 -17 381 -17 q 351 -3 363 -17 q 339 26 339 10 q 331 261 343 119 q 285 306 326 300 q 272 306 278 306 q 267 306 272 306 q 213 261 222 299 q 206 50 201 218 q 194 19 206 32 q 165 7 182 7 q 135 19 147 7 q 122 47 122 31 q 121 113 121 82 q 101 101 111 106 l 99 100 l 96 100 q 90 99 94 100 q 79 97 83 97 q 56 100 67 96 q 36 113 44 104 q 25 133 28 122 q 22 156 22 143 q 24 167 22 161 q 29 176 26 172 q 46 192 35 186 q 56 196 50 194 q 61 197 58 196 q 67 197 64 197 q 75 190 74 199 q 68 182 75 183 q 64 181 65 182 q 61 179 63 181 q 54 176 57 178 q 46 167 49 172 q 43 161 44 164 q 43 154 43 158 q 46 142 44 147 q 64 126 51 129 q 89 131 75 124 q 121 176 111 140 q 122 177 121 176 q 122 178 122 178 q 131 281 124 250 q 165 343 140 317 q 133 406 139 369 q 128 635 111 557 q 146 661 132 651 q 177 667 160 671 q 203 649 194 664 q 210 618 213 635 q 215 418 196 551 q 264 389 219 393 q 285 389 275 390 q 335 418 328 394 q 343 660 347 461 q 343 667 343 663 q 340 674 342 671 q 324 686 333 683 q 301 683 314 689 q 294 686 296 681 q 297 693 293 690 q 310 699 304 697 q 326 700 318 701 q 342 696 335 700 q 344 694 343 694 q 342 711 343 703 q 331 738 338 728 q 328 742 329 740 l 326 743 q 324 746 325 744 q 314 751 319 750 q 293 751 303 757 q 283 743 288 749 q 276 729 279 738 l 276 728 q 260 719 272 715 q 251 733 250 722 q 256 757 251 746 q 262 768 258 763 q 271 778 265 774 q 294 793 281 789 q 322 796 307 797 q 349 788 336 794 q 356 785 353 786 l 358 783 q 361 781 358 782 q 372 771 367 776 q 386 749 379 761 q 396 728 392 740 q 404 697 401 714 q 415 711 410 706 q 451 735 431 729 l 454 736 l 456 738 q 461 738 457 738 q 472 739 468 739 q 496 735 485 739 z "},"Y":{"ha":538,"x_min":21,"x_max":517,"o":"m 507 310 q 514 288 511 300 q 507 278 515 281 q 497 283 500 276 q 478 311 490 303 q 450 317 465 319 q 433 308 442 315 q 413 281 425 293 q 324 240 379 244 l 324 0 q 324 -3 324 0 q 332 -24 326 -15 q 349 -42 339 -37 q 372 -40 358 -47 q 379 -43 378 -39 q 378 -50 382 -47 q 363 -57 369 -56 q 344 -56 353 -58 q 328 -47 336 -54 q 324 -43 328 -47 q 328 -64 325 -54 q 339 -90 332 -81 q 342 -94 340 -93 l 343 -96 l 343 -97 q 346 -99 344 -97 q 356 -104 350 -103 q 376 -104 367 -110 q 386 -96 382 -101 q 393 -82 390 -90 q 410 -72 397 -69 q 418 -86 419 -75 q 414 -110 418 -99 q 408 -121 411 -115 q 399 -132 404 -126 q 375 -146 389 -142 q 347 -149 361 -150 q 321 -140 333 -147 q 314 -137 317 -139 l 311 -136 q 308 -133 311 -135 q 297 -124 303 -129 q 283 -103 290 -114 q 274 -81 278 -93 q 263 -44 268 -65 q 249 -64 257 -56 q 213 -89 233 -82 l 210 -89 l 207 -90 q 203 -92 207 -90 q 192 -92 196 -92 q 168 -87 179 -92 q 149 -74 157 -83 q 138 -54 142 -65 q 136 -32 135 -43 q 139 -21 138 -26 q 144 -11 140 -15 q 161 4 150 -1 q 171 7 165 6 q 176 8 174 7 q 182 8 179 8 q 190 1 189 10 q 183 -7 190 -6 q 179 -8 181 -7 q 176 -8 178 -8 q 169 -12 172 -10 q 160 -21 163 -15 q 158 -26 158 -24 q 157 -33 157 -29 q 160 -47 157 -40 q 178 -62 165 -60 q 203 -60 189 -65 q 236 -15 224 -50 q 240 1 240 -3 q 244 90 244 28 q 243 200 244 151 l 240 247 q 156 300 186 263 q 115 420 121 343 q 122 597 108 497 q 122 598 122 597 q 121 599 121 599 q 89 644 111 635 q 64 649 75 651 q 46 633 51 646 q 43 621 44 628 q 43 614 43 617 q 46 608 44 611 q 54 599 49 603 q 61 594 57 597 q 64 594 63 594 q 68 593 65 593 q 75 583 76 592 q 67 578 72 576 q 61 578 64 578 q 56 579 58 579 q 46 583 50 581 q 29 599 35 589 q 24 608 26 603 q 22 619 22 614 q 25 642 22 632 q 36 662 28 653 q 56 675 44 671 q 79 678 67 678 q 90 676 83 678 q 96 675 94 675 l 99 674 l 101 674 q 128 656 115 668 q 128 657 128 657 q 144 685 131 674 q 174 694 157 696 q 202 678 192 692 q 211 647 213 665 q 199 518 201 567 q 200 422 196 469 q 221 353 204 374 q 287 324 239 329 q 351 338 335 318 q 340 683 397 388 q 347 715 338 700 q 373 733 356 729 q 404 726 390 736 q 422 700 418 717 q 447 347 472 443 q 449 347 447 347 q 472 342 461 347 q 493 329 485 338 q 507 310 501 321 z "},"Ý":{"ha":538,"x_min":21,"x_max":517,"o":"m 507 310 q 514 288 511 300 q 507 278 515 281 q 497 283 500 276 q 478 311 490 303 q 450 317 465 319 q 433 308 442 315 q 413 281 425 293 q 324 240 379 244 l 324 0 q 324 -3 324 0 q 332 -24 326 -15 q 349 -42 339 -37 q 372 -40 358 -47 q 379 -43 378 -39 q 378 -50 382 -47 q 363 -57 369 -56 q 344 -56 353 -58 q 328 -47 336 -54 q 324 -43 328 -47 q 328 -64 325 -54 q 339 -90 332 -81 q 342 -94 340 -93 l 343 -96 l 343 -97 q 346 -99 344 -97 q 356 -104 350 -103 q 376 -104 367 -110 q 386 -96 382 -101 q 393 -82 390 -90 q 410 -72 397 -69 q 418 -86 419 -75 q 414 -110 418 -99 q 408 -121 411 -115 q 399 -132 404 -126 q 375 -146 389 -142 q 347 -149 361 -150 q 321 -140 333 -147 q 314 -137 317 -139 l 311 -136 q 308 -133 311 -135 q 297 -124 303 -129 q 283 -103 290 -114 q 274 -81 278 -93 q 263 -44 268 -65 q 249 -64 257 -56 q 213 -89 233 -82 l 210 -89 l 207 -90 q 203 -92 207 -90 q 192 -92 196 -92 q 168 -87 179 -92 q 149 -74 157 -83 q 138 -54 142 -65 q 136 -32 135 -43 q 139 -21 138 -26 q 144 -11 140 -15 q 161 4 150 -1 q 171 7 165 6 q 176 8 174 7 q 182 8 179 8 q 190 1 189 10 q 183 -7 190 -6 q 179 -8 181 -7 q 176 -8 178 -8 q 169 -12 172 -10 q 160 -21 163 -15 q 158 -26 158 -24 q 157 -33 157 -29 q 160 -47 157 -40 q 178 -62 165 -60 q 203 -60 189 -65 q 236 -15 224 -50 q 240 1 240 -3 q 244 90 244 28 q 243 200 244 151 l 240 247 q 156 300 186 263 q 115 420 121 343 q 122 597 108 497 q 122 598 122 597 q 121 599 121 599 q 89 644 111 635 q 64 649 75 651 q 46 633 51 646 q 43 621 44 628 q 43 614 43 617 q 46 608 44 611 q 54 599 49 603 q 61 594 57 597 q 64 594 63 594 q 68 593 65 593 q 75 583 76 592 q 67 578 72 576 q 61 578 64 578 q 56 579 58 579 q 46 583 50 581 q 29 599 35 589 q 24 608 26 603 q 22 619 22 614 q 25 642 22 632 q 36 662 28 653 q 56 675 44 671 q 79 678 67 678 q 90 676 83 678 q 96 675 94 675 l 99 674 l 101 674 q 128 656 115 668 q 128 657 128 657 q 144 685 131 674 q 174 694 157 696 q 202 678 192 692 q 211 647 213 665 q 199 518 201 567 q 200 422 196 469 q 221 353 204 374 q 287 324 239 329 q 351 338 335 318 q 340 683 397 388 q 347 715 338 700 q 373 733 356 729 q 404 726 390 736 q 422 700 418 717 q 447 347 472 443 q 449 347 447 347 q 472 342 461 347 q 493 329 485 338 q 507 310 501 321 z "},"Ÿ":{"ha":538,"x_min":21,"x_max":517,"o":"m 507 310 q 514 288 511 300 q 507 278 515 281 q 497 283 500 276 q 478 311 490 303 q 450 317 465 319 q 433 308 442 315 q 413 281 425 293 q 324 240 379 244 l 324 0 q 324 -3 324 0 q 332 -24 326 -15 q 349 -42 339 -37 q 372 -40 358 -47 q 379 -43 378 -39 q 378 -50 382 -47 q 363 -57 369 -56 q 344 -56 353 -58 q 328 -47 336 -54 q 324 -43 328 -47 q 328 -64 325 -54 q 339 -90 332 -81 q 342 -94 340 -93 l 343 -96 l 343 -97 q 346 -99 344 -97 q 356 -104 350 -103 q 376 -104 367 -110 q 386 -96 382 -101 q 393 -82 390 -90 q 410 -72 397 -69 q 418 -86 419 -75 q 414 -110 418 -99 q 408 -121 411 -115 q 399 -132 404 -126 q 375 -146 389 -142 q 347 -149 361 -150 q 321 -140 333 -147 q 314 -137 317 -139 l 311 -136 q 308 -133 311 -135 q 297 -124 303 -129 q 283 -103 290 -114 q 274 -81 278 -93 q 263 -44 268 -65 q 249 -64 257 -56 q 213 -89 233 -82 l 210 -89 l 207 -90 q 203 -92 207 -90 q 192 -92 196 -92 q 168 -87 179 -92 q 149 -74 157 -83 q 138 -54 142 -65 q 136 -32 135 -43 q 139 -21 138 -26 q 144 -11 140 -15 q 161 4 150 -1 q 171 7 165 6 q 176 8 174 7 q 182 8 179 8 q 190 1 189 10 q 183 -7 190 -6 q 179 -8 181 -7 q 176 -8 178 -8 q 169 -12 172 -10 q 160 -21 163 -15 q 158 -26 158 -24 q 157 -33 157 -29 q 160 -47 157 -40 q 178 -62 165 -60 q 203 -60 189 -65 q 236 -15 224 -50 q 240 1 240 -3 q 244 90 244 28 q 243 200 244 151 l 240 247 q 156 300 186 263 q 115 420 121 343 q 122 597 108 497 q 122 598 122 597 q 121 599 121 599 q 89 644 111 635 q 64 649 75 651 q 46 633 51 646 q 43 621 44 628 q 43 614 43 617 q 46 608 44 611 q 54 599 49 603 q 61 594 57 597 q 64 594 63 594 q 68 593 65 593 q 75 583 76 592 q 67 578 72 576 q 61 578 64 578 q 56 579 58 579 q 46 583 50 581 q 29 599 35 589 q 24 608 26 603 q 22 619 22 614 q 25 642 22 632 q 36 662 28 653 q 56 675 44 671 q 79 678 67 678 q 90 676 83 678 q 96 675 94 675 l 99 674 l 101 674 q 128 656 115 668 q 128 657 128 657 q 144 685 131 674 q 174 694 157 696 q 202 678 192 692 q 211 647 213 665 q 199 518 201 567 q 200 422 196 469 q 221 353 204 374 q 287 324 239 329 q 351 338 335 318 q 340 683 397 388 q 347 715 338 700 q 373 733 356 729 q 404 726 390 736 q 422 700 418 717 q 447 347 472 443 q 449 347 447 347 q 472 342 461 347 q 493 329 485 338 q 507 310 501 321 z "},"Z":{"ha":428,"x_min":21,"x_max":410,"o":"m 390 538 q 404 519 397 529 q 401 508 408 513 q 390 510 396 504 q 363 528 376 525 q 335 524 347 532 q 319 510 326 518 l 210 79 l 343 60 q 370 43 360 57 q 378 11 381 29 q 363 -14 375 -4 q 336 -24 351 -24 q 331 -24 333 -24 l 151 4 q 123 22 133 7 q 118 56 113 38 l 138 135 q 124 132 129 132 q 99 136 110 132 q 79 149 88 140 q 64 165 71 156 q 67 178 60 172 q 76 176 72 181 q 106 158 92 161 q 133 165 121 156 q 150 185 143 172 l 158 218 q 158 219 158 219 q 161 229 160 224 l 265 633 l 156 628 q 147 629 151 628 q 142 625 144 626 q 131 607 132 617 q 136 585 129 597 q 135 578 139 581 q 128 579 131 576 q 119 592 122 586 q 117 607 117 600 q 119 624 117 615 q 121 628 119 625 q 104 622 113 625 q 79 608 88 617 q 75 606 76 607 l 75 604 l 74 603 q 72 601 74 603 q 67 590 68 596 q 69 569 64 579 q 79 560 74 564 q 93 556 85 557 l 94 556 q 104 540 107 553 q 93 529 103 531 q 68 532 79 529 q 56 537 63 533 q 44 544 50 540 q 28 567 35 553 q 22 593 22 579 q 26 621 22 608 q 29 628 29 625 l 31 631 q 33 635 32 632 q 42 646 38 640 q 61 663 50 654 q 82 674 71 668 q 117 689 97 682 q 96 700 106 694 q 68 733 76 714 l 67 736 l 65 739 q 64 744 65 740 q 61 756 63 750 q 63 778 60 767 q 74 799 67 790 q 93 813 82 807 q 115 817 103 815 q 126 815 121 817 q 138 811 132 814 q 153 796 147 806 q 158 786 156 792 q 160 781 158 783 q 161 775 160 778 q 154 767 161 768 q 146 772 147 765 l 144 772 q 144 776 144 775 q 143 779 143 778 q 139 786 140 783 q 129 793 135 792 q 122 796 126 794 q 117 794 119 796 q 103 790 108 794 q 89 772 90 785 q 94 747 88 761 q 143 718 107 726 q 175 714 158 715 q 192 714 183 714 q 199 714 194 714 l 207 714 l 208 714 l 318 719 q 352 705 339 721 q 360 668 365 689 l 331 554 q 347 556 339 557 q 371 550 360 556 q 390 538 382 546 z "},"[":{"ha":315,"x_min":26,"x_max":288,"o":"m 244 54 q 274 42 261 54 q 286 12 286 29 q 274 -18 286 -6 q 244 -31 261 -31 l 144 -31 q 115 -18 128 -31 q 103 13 103 -6 l 103 429 q 78 426 90 425 q 72 428 75 426 l 71 428 l 68 428 q 65 429 68 428 q 54 433 60 431 q 36 450 43 440 q 28 472 29 460 q 32 493 26 483 q 38 496 33 499 q 42 492 42 494 l 42 490 q 42 475 40 482 q 51 463 44 468 q 64 457 57 458 q 71 456 67 456 q 72 456 71 456 l 74 456 q 76 457 75 456 q 97 471 89 458 q 103 479 100 474 l 103 672 q 115 702 103 690 q 144 714 128 714 l 244 714 q 274 702 261 714 q 286 673 286 690 q 274 643 286 656 q 244 631 261 631 l 186 631 l 186 246 q 200 254 193 251 q 239 253 219 260 q 268 232 256 247 q 267 222 272 226 q 260 224 263 219 l 258 224 q 233 236 247 233 q 210 232 221 239 q 192 214 199 226 q 186 183 188 206 l 186 54 l 244 54 z "},"\\":{"ha":449,"x_min":26,"x_max":426,"o":"m 418 307 q 413 265 425 285 q 398 251 407 257 q 381 242 389 244 q 340 240 360 235 q 333 242 338 242 q 390 25 369 119 q 385 -4 393 10 q 361 -24 376 -18 q 357 -24 360 -24 q 326 -18 340 -28 q 308 8 311 -8 q 138 579 265 214 l 136 581 q 132 593 133 588 q 124 618 126 606 q 122 621 122 619 q 122 624 122 622 q 90 646 107 642 q 64 643 75 649 q 51 625 53 638 q 51 611 50 618 q 53 604 51 607 q 56 599 54 601 q 67 592 60 594 q 74 590 69 592 q 78 590 76 590 q 81 590 79 590 l 82 590 q 90 582 90 590 q 83 575 90 575 q 78 574 81 574 q 72 574 75 574 q 63 575 67 574 q 42 586 50 578 q 35 594 38 590 q 31 606 33 599 q 28 626 28 617 q 35 649 29 639 q 50 667 40 660 q 72 675 60 672 q 83 676 76 676 q 89 676 88 676 l 92 676 l 94 676 q 111 672 103 675 q 113 725 108 701 q 121 754 115 742 q 139 782 128 769 q 144 787 140 783 q 150 792 149 790 q 163 801 156 797 q 193 811 178 810 q 226 808 211 814 q 254 792 243 804 q 272 767 265 782 q 276 753 275 760 q 279 738 279 744 q 277 722 279 729 q 271 707 275 714 q 261 694 267 700 q 256 690 258 692 q 253 688 254 689 l 250 686 l 249 685 q 231 689 238 678 q 235 707 224 700 l 236 708 q 238 710 236 710 q 240 714 239 711 q 244 721 243 717 q 246 735 247 728 q 244 743 246 739 q 240 751 242 747 q 229 763 235 758 q 203 767 217 772 q 189 760 196 765 q 183 754 186 757 q 181 751 183 754 q 179 749 179 749 q 169 718 171 736 q 174 681 168 701 q 188 642 179 663 q 196 624 192 633 q 197 621 197 622 q 206 606 201 617 l 207 606 l 207 604 q 210 597 208 601 q 314 307 253 501 q 329 286 321 294 q 350 272 339 276 q 360 269 356 271 q 372 271 367 269 q 392 281 385 272 q 396 290 394 285 q 397 296 396 292 q 397 299 397 297 q 397 300 397 299 q 396 301 396 301 q 392 313 396 307 q 385 322 389 318 q 374 326 381 325 q 368 326 372 326 q 365 325 367 326 q 364 325 365 325 l 363 325 l 358 325 q 351 332 351 325 q 356 339 351 338 q 358 340 357 339 q 361 340 358 340 q 365 342 363 342 q 375 343 371 343 q 394 338 386 343 q 410 324 403 333 q 418 307 415 317 z "},"]":{"ha":315,"x_min":28,"x_max":288,"o":"m 282 493 q 286 472 288 483 q 278 450 285 460 q 260 433 271 440 q 249 429 254 431 q 246 428 246 428 l 243 428 l 242 428 q 236 426 239 426 q 211 429 224 425 l 211 13 q 199 -18 211 -6 q 169 -31 186 -31 l 69 -31 q 40 -18 53 -31 q 28 12 28 -6 q 40 42 28 29 q 69 54 53 54 l 128 54 l 128 183 q 128 189 128 183 q 126 202 128 194 q 122 214 125 210 q 104 232 114 228 q 81 236 93 239 q 56 224 67 233 q 46 224 50 219 q 46 232 43 228 q 75 253 58 247 q 114 254 94 260 q 128 246 121 251 l 128 631 l 69 631 q 40 643 53 631 q 28 673 28 656 q 40 702 28 690 q 69 714 53 714 l 169 714 q 199 702 186 714 q 211 672 211 690 l 211 479 q 217 471 214 474 q 238 457 225 458 q 240 456 239 456 l 242 456 q 243 456 243 456 q 250 457 247 456 q 263 463 257 458 q 272 475 269 468 q 272 490 274 482 l 272 492 q 278 497 272 496 q 282 493 281 497 z "},"^":{"ha":293,"x_min":28,"x_max":269,"o":"m 261 454 q 263 422 268 438 q 241 398 257 406 q 209 397 225 390 q 185 418 193 403 l 151 490 q 108 415 114 428 q 69 389 97 389 q 40 401 53 389 q 28 431 28 414 q 40 464 28 442 q 121 600 51 486 q 158 621 133 622 q 194 596 183 619 l 261 454 z "},"_":{"ha":482,"x_min":28,"x_max":454,"o":"m 411 -33 q 440 -46 428 -33 q 453 -75 453 -58 q 440 -104 453 -92 q 411 -117 428 -117 l 69 -117 q 40 -104 53 -117 q 28 -75 28 -92 q 40 -46 28 -58 q 69 -33 53 -33 l 411 -33 z "},"a":{"ha":403,"x_min":21,"x_max":381,"o":"m 374 507 q 381 475 381 492 q 378 458 381 467 q 377 453 378 457 q 375 449 376 450 q 372 442 374 446 q 358 421 367 431 q 371 401 367 413 q 371 367 378 383 q 353 342 367 353 q 342 342 347 336 q 342 351 339 347 q 351 372 350 361 q 347 390 353 382 q 333 401 342 397 q 321 394 326 397 q 299 389 311 392 q 281 6 296 214 q 267 -21 279 -10 q 239 -32 256 -32 q 236 -32 238 -32 q 208 -19 219 -32 q 197 10 197 -7 q 157 0 175 0 q 39 85 71 0 q 22 235 22 132 q 39 383 22 336 q 154 468 69 463 q 210 465 183 471 q 214 522 211 497 q 186 635 222 613 q 182 636 183 636 q 161 644 172 642 q 140 644 150 646 q 128 628 132 639 q 129 607 125 618 q 144 589 133 597 q 146 582 149 586 q 139 581 143 579 q 117 600 124 588 q 110 632 107 614 q 110 635 110 633 q 89 611 96 626 q 86 569 78 590 q 118 536 94 549 q 124 518 131 529 q 106 511 118 507 q 92 518 99 515 q 78 528 83 524 q 56 556 64 540 q 47 590 47 572 q 51 626 46 608 q 65 650 57 639 q 49 660 56 654 q 28 697 31 675 q 32 739 24 717 q 42 743 35 744 q 46 735 47 740 q 47 703 43 717 q 65 681 53 689 q 90 675 76 675 q 97 681 94 678 q 132 693 114 689 q 168 694 149 696 q 194 689 181 693 q 276 624 251 675 q 281 614 278 618 q 296 547 293 585 q 297 531 296 540 q 297 526 297 528 q 299 451 299 493 q 306 451 303 451 q 321 454 315 451 q 335 464 329 457 q 339 468 338 467 l 339 469 q 340 471 340 469 q 344 479 343 475 q 346 499 347 489 q 339 517 344 508 q 322 531 332 525 l 321 531 q 318 539 315 533 q 325 543 321 544 q 353 532 342 542 q 374 507 367 522 m 199 111 q 206 396 200 278 q 160 392 186 397 q 117 355 129 385 q 106 235 106 325 q 113 134 106 168 q 129 92 119 100 q 157 83 139 83 q 199 111 178 86 z "},"à":{"ha":403,"x_min":21,"x_max":381,"o":"m 374 507 q 381 475 381 492 q 378 458 381 467 q 377 453 378 457 q 375 449 376 450 q 372 442 374 446 q 358 421 367 431 q 371 401 367 413 q 371 367 378 383 q 353 342 367 353 q 342 342 347 336 q 342 351 339 347 q 351 372 350 361 q 347 390 353 382 q 333 401 342 397 q 321 394 326 397 q 299 389 311 392 q 281 6 296 214 q 267 -21 279 -10 q 239 -32 256 -32 q 236 -32 238 -32 q 208 -19 219 -32 q 197 10 197 -7 q 157 0 175 0 q 39 85 71 0 q 22 235 22 132 q 39 383 22 336 q 154 468 69 463 q 210 465 183 471 q 214 522 211 497 q 186 635 222 613 q 182 636 183 636 q 161 644 172 642 q 140 644 150 646 q 128 628 132 639 q 129 607 125 618 q 144 589 133 597 q 146 582 149 586 q 139 581 143 579 q 117 600 124 588 q 110 632 107 614 q 110 635 110 633 q 89 611 96 626 q 86 569 78 590 q 118 536 94 549 q 124 518 131 529 q 106 511 118 507 q 92 518 99 515 q 78 528 83 524 q 56 556 64 540 q 47 590 47 572 q 51 626 46 608 q 65 650 57 639 q 49 660 56 654 q 28 697 31 675 q 32 739 24 717 q 42 743 35 744 q 46 735 47 740 q 47 703 43 717 q 65 681 53 689 q 90 675 76 675 q 97 681 94 678 q 132 693 114 689 q 168 694 149 696 q 194 689 181 693 q 276 624 251 675 q 281 614 278 618 q 296 547 293 585 q 297 531 296 540 q 297 526 297 528 q 299 451 299 493 q 306 451 303 451 q 321 454 315 451 q 335 464 329 457 q 339 468 338 467 l 339 469 q 340 471 340 469 q 344 479 343 475 q 346 499 347 489 q 339 517 344 508 q 322 531 332 525 l 321 531 q 318 539 315 533 q 325 543 321 544 q 353 532 342 542 q 374 507 367 522 m 199 111 q 206 396 200 278 q 160 392 186 397 q 117 355 129 385 q 106 235 106 325 q 113 134 106 168 q 129 92 119 100 q 157 83 139 83 q 199 111 178 86 z "},"á":{"ha":403,"x_min":21,"x_max":381,"o":"m 374 507 q 381 475 381 492 q 378 458 381 467 q 377 453 378 457 q 375 449 376 450 q 372 442 374 446 q 358 421 367 431 q 371 401 367 413 q 371 367 378 383 q 353 342 367 353 q 342 342 347 336 q 342 351 339 347 q 351 372 350 361 q 347 390 353 382 q 333 401 342 397 q 321 394 326 397 q 299 389 311 392 q 281 6 296 214 q 267 -21 279 -10 q 239 -32 256 -32 q 236 -32 238 -32 q 208 -19 219 -32 q 197 10 197 -7 q 157 0 175 0 q 39 85 71 0 q 22 235 22 132 q 39 383 22 336 q 154 468 69 463 q 210 465 183 471 q 214 522 211 497 q 186 635 222 613 q 182 636 183 636 q 161 644 172 642 q 140 644 150 646 q 128 628 132 639 q 129 607 125 618 q 144 589 133 597 q 146 582 149 586 q 139 581 143 579 q 117 600 124 588 q 110 632 107 614 q 110 635 110 633 q 89 611 96 626 q 86 569 78 590 q 118 536 94 549 q 124 518 131 529 q 106 511 118 507 q 92 518 99 515 q 78 528 83 524 q 56 556 64 540 q 47 590 47 572 q 51 626 46 608 q 65 650 57 639 q 49 660 56 654 q 28 697 31 675 q 32 739 24 717 q 42 743 35 744 q 46 735 47 740 q 47 703 43 717 q 65 681 53 689 q 90 675 76 675 q 97 681 94 678 q 132 693 114 689 q 168 694 149 696 q 194 689 181 693 q 276 624 251 675 q 281 614 278 618 q 296 547 293 585 q 297 531 296 540 q 297 526 297 528 q 299 451 299 493 q 306 451 303 451 q 321 454 315 451 q 335 464 329 457 q 339 468 338 467 l 339 469 q 340 471 340 469 q 344 479 343 475 q 346 499 347 489 q 339 517 344 508 q 322 531 332 525 l 321 531 q 318 539 315 533 q 325 543 321 544 q 353 532 342 542 q 374 507 367 522 m 199 111 q 206 396 200 278 q 160 392 186 397 q 117 355 129 385 q 106 235 106 325 q 113 134 106 168 q 129 92 119 100 q 157 83 139 83 q 199 111 178 86 z "},"â":{"ha":403,"x_min":21,"x_max":381,"o":"m 374 507 q 381 475 381 492 q 378 458 381 467 q 377 453 378 457 q 375 449 376 450 q 372 442 374 446 q 358 421 367 431 q 371 401 367 413 q 371 367 378 383 q 353 342 367 353 q 342 342 347 336 q 342 351 339 347 q 351 372 350 361 q 347 390 353 382 q 333 401 342 397 q 321 394 326 397 q 299 389 311 392 q 281 6 296 214 q 267 -21 279 -10 q 239 -32 256 -32 q 236 -32 238 -32 q 208 -19 219 -32 q 197 10 197 -7 q 157 0 175 0 q 39 85 71 0 q 22 235 22 132 q 39 383 22 336 q 154 468 69 463 q 210 465 183 471 q 214 522 211 497 q 186 635 222 613 q 182 636 183 636 q 161 644 172 642 q 140 644 150 646 q 128 628 132 639 q 129 607 125 618 q 144 589 133 597 q 146 582 149 586 q 139 581 143 579 q 117 600 124 588 q 110 632 107 614 q 110 635 110 633 q 89 611 96 626 q 86 569 78 590 q 118 536 94 549 q 124 518 131 529 q 106 511 118 507 q 92 518 99 515 q 78 528 83 524 q 56 556 64 540 q 47 590 47 572 q 51 626 46 608 q 65 650 57 639 q 49 660 56 654 q 28 697 31 675 q 32 739 24 717 q 42 743 35 744 q 46 735 47 740 q 47 703 43 717 q 65 681 53 689 q 90 675 76 675 q 97 681 94 678 q 132 693 114 689 q 168 694 149 696 q 194 689 181 693 q 276 624 251 675 q 281 614 278 618 q 296 547 293 585 q 297 531 296 540 q 297 526 297 528 q 299 451 299 493 q 306 451 303 451 q 321 454 315 451 q 335 464 329 457 q 339 468 338 467 l 339 469 q 340 471 340 469 q 344 479 343 475 q 346 499 347 489 q 339 517 344 508 q 322 531 332 525 l 321 531 q 318 539 315 533 q 325 543 321 544 q 353 532 342 542 q 374 507 367 522 m 199 111 q 206 396 200 278 q 160 392 186 397 q 117 355 129 385 q 106 235 106 325 q 113 134 106 168 q 129 92 119 100 q 157 83 139 83 q 199 111 178 86 z "},"ã":{"ha":403,"x_min":21,"x_max":381,"o":"m 374 507 q 381 475 381 492 q 378 458 381 467 q 377 453 378 457 q 375 449 376 450 q 372 442 374 446 q 358 421 367 431 q 371 401 367 413 q 371 367 378 383 q 353 342 367 353 q 342 342 347 336 q 342 351 339 347 q 351 372 350 361 q 347 390 353 382 q 333 401 342 397 q 321 394 326 397 q 299 389 311 392 q 281 6 296 214 q 267 -21 279 -10 q 239 -32 256 -32 q 236 -32 238 -32 q 208 -19 219 -32 q 197 10 197 -7 q 157 0 175 0 q 39 85 71 0 q 22 235 22 132 q 39 383 22 336 q 154 468 69 463 q 210 465 183 471 q 214 522 211 497 q 186 635 222 613 q 182 636 183 636 q 161 644 172 642 q 140 644 150 646 q 128 628 132 639 q 129 607 125 618 q 144 589 133 597 q 146 582 149 586 q 139 581 143 579 q 117 600 124 588 q 110 632 107 614 q 110 635 110 633 q 89 611 96 626 q 86 569 78 590 q 118 536 94 549 q 124 518 131 529 q 106 511 118 507 q 92 518 99 515 q 78 528 83 524 q 56 556 64 540 q 47 590 47 572 q 51 626 46 608 q 65 650 57 639 q 49 660 56 654 q 28 697 31 675 q 32 739 24 717 q 42 743 35 744 q 46 735 47 740 q 47 703 43 717 q 65 681 53 689 q 90 675 76 675 q 97 681 94 678 q 132 693 114 689 q 168 694 149 696 q 194 689 181 693 q 276 624 251 675 q 281 614 278 618 q 296 547 293 585 q 297 531 296 540 q 297 526 297 528 q 299 451 299 493 q 306 451 303 451 q 321 454 315 451 q 335 464 329 457 q 339 468 338 467 l 339 469 q 340 471 340 469 q 344 479 343 475 q 346 499 347 489 q 339 517 344 508 q 322 531 332 525 l 321 531 q 318 539 315 533 q 325 543 321 544 q 353 532 342 542 q 374 507 367 522 m 199 111 q 206 396 200 278 q 160 392 186 397 q 117 355 129 385 q 106 235 106 325 q 113 134 106 168 q 129 92 119 100 q 157 83 139 83 q 199 111 178 86 z "},"ä":{"ha":403,"x_min":21,"x_max":381,"o":"m 374 507 q 381 475 381 492 q 378 458 381 467 q 377 453 378 457 q 375 449 376 450 q 372 442 374 446 q 358 421 367 431 q 371 401 367 413 q 371 367 378 383 q 353 342 367 353 q 342 342 347 336 q 342 351 339 347 q 351 372 350 361 q 347 390 353 382 q 333 401 342 397 q 321 394 326 397 q 299 389 311 392 q 281 6 296 214 q 267 -21 279 -10 q 239 -32 256 -32 q 236 -32 238 -32 q 208 -19 219 -32 q 197 10 197 -7 q 157 0 175 0 q 39 85 71 0 q 22 235 22 132 q 39 383 22 336 q 154 468 69 463 q 210 465 183 471 q 214 522 211 497 q 186 635 222 613 q 182 636 183 636 q 161 644 172 642 q 140 644 150 646 q 128 628 132 639 q 129 607 125 618 q 144 589 133 597 q 146 582 149 586 q 139 581 143 579 q 117 600 124 588 q 110 632 107 614 q 110 635 110 633 q 89 611 96 626 q 86 569 78 590 q 118 536 94 549 q 124 518 131 529 q 106 511 118 507 q 92 518 99 515 q 78 528 83 524 q 56 556 64 540 q 47 590 47 572 q 51 626 46 608 q 65 650 57 639 q 49 660 56 654 q 28 697 31 675 q 32 739 24 717 q 42 743 35 744 q 46 735 47 740 q 47 703 43 717 q 65 681 53 689 q 90 675 76 675 q 97 681 94 678 q 132 693 114 689 q 168 694 149 696 q 194 689 181 693 q 276 624 251 675 q 281 614 278 618 q 296 547 293 585 q 297 531 296 540 q 297 526 297 528 q 299 451 299 493 q 306 451 303 451 q 321 454 315 451 q 335 464 329 457 q 339 468 338 467 l 339 469 q 340 471 340 469 q 344 479 343 475 q 346 499 347 489 q 339 517 344 508 q 322 531 332 525 l 321 531 q 318 539 315 533 q 325 543 321 544 q 353 532 342 542 q 374 507 367 522 m 199 111 q 206 396 200 278 q 160 392 186 397 q 117 355 129 385 q 106 235 106 325 q 113 134 106 168 q 129 92 119 100 q 157 83 139 83 q 199 111 178 86 z "},"å":{"ha":403,"x_min":21,"x_max":381,"o":"m 374 507 q 381 475 381 492 q 378 458 381 467 q 377 453 378 457 q 375 449 376 450 q 372 442 374 446 q 358 421 367 431 q 371 401 367 413 q 371 367 378 383 q 353 342 367 353 q 342 342 347 336 q 342 351 339 347 q 351 372 350 361 q 347 390 353 382 q 333 401 342 397 q 321 394 326 397 q 299 389 311 392 q 281 6 296 214 q 267 -21 279 -10 q 239 -32 256 -32 q 236 -32 238 -32 q 208 -19 219 -32 q 197 10 197 -7 q 157 0 175 0 q 39 85 71 0 q 22 235 22 132 q 39 383 22 336 q 154 468 69 463 q 210 465 183 471 q 214 522 211 497 q 186 635 222 613 q 182 636 183 636 q 161 644 172 642 q 140 644 150 646 q 128 628 132 639 q 129 607 125 618 q 144 589 133 597 q 146 582 149 586 q 139 581 143 579 q 117 600 124 588 q 110 632 107 614 q 110 635 110 633 q 89 611 96 626 q 86 569 78 590 q 118 536 94 549 q 124 518 131 529 q 106 511 118 507 q 92 518 99 515 q 78 528 83 524 q 56 556 64 540 q 47 590 47 572 q 51 626 46 608 q 65 650 57 639 q 49 660 56 654 q 28 697 31 675 q 32 739 24 717 q 42 743 35 744 q 46 735 47 740 q 47 703 43 717 q 65 681 53 689 q 90 675 76 675 q 97 681 94 678 q 132 693 114 689 q 168 694 149 696 q 194 689 181 693 q 276 624 251 675 q 281 614 278 618 q 296 547 293 585 q 297 531 296 540 q 297 526 297 528 q 299 451 299 493 q 306 451 303 451 q 321 454 315 451 q 335 464 329 457 q 339 468 338 467 l 339 469 q 340 471 340 469 q 344 479 343 475 q 346 499 347 489 q 339 517 344 508 q 322 531 332 525 l 321 531 q 318 539 315 533 q 325 543 321 544 q 353 532 342 542 q 374 507 367 522 m 199 111 q 206 396 200 278 q 160 392 186 397 q 117 355 129 385 q 106 235 106 325 q 113 134 106 168 q 129 92 119 100 q 157 83 139 83 q 199 111 178 86 z "},"b":{"ha":392,"x_min":21,"x_max":374,"o":"m 229 565 q 311 531 278 565 q 363 282 372 467 q 340 90 354 133 q 229 8 314 8 q 181 18 203 8 q 181 15 181 17 q 181 13 181 14 q 171 -17 182 -4 q 143 -32 160 -31 q 139 -32 142 -32 q 112 -22 124 -32 q 99 6 100 -11 q 93 197 92 85 q 93 203 92 200 q 104 475 94 325 q 97 475 100 475 q 82 472 89 475 q 68 464 74 469 q 64 460 65 461 l 63 458 q 63 457 63 458 q 58 449 60 453 q 56 429 54 439 q 63 411 57 419 q 79 397 68 403 q 82 388 85 393 q 74 383 79 382 q 47 396 58 386 q 28 422 35 406 q 22 454 22 438 q 25 471 22 463 q 26 476 25 472 q 28 481 28 479 q 32 488 29 483 q 53 515 40 504 q 85 532 67 526 q 90 533 86 532 q 71 553 78 540 q 64 585 61 568 q 78 611 67 599 q 85 613 81 615 q 86 606 88 610 q 79 583 79 593 q 86 563 79 572 q 104 553 93 556 q 110 551 107 551 q 136 735 122 706 q 154 767 143 753 q 181 792 165 782 q 214 808 197 803 q 249 815 231 814 q 274 815 261 817 q 279 818 276 815 q 299 836 292 824 q 303 863 306 849 q 289 889 300 876 q 289 901 283 896 q 300 901 294 906 q 325 869 318 888 q 328 824 335 847 q 315 801 324 813 q 317 801 315 801 q 318 800 318 801 q 364 746 351 782 q 369 711 369 729 q 360 676 368 692 q 338 649 351 660 q 324 639 332 643 q 310 632 318 635 q 292 639 297 626 q 297 657 286 651 q 329 690 322 669 q 326 732 338 711 q 317 746 324 739 q 304 721 314 732 q 276 704 293 707 q 247 707 263 701 q 244 714 242 710 q 250 718 246 718 q 274 718 264 715 q 289 732 283 722 q 294 751 294 742 q 292 763 293 757 q 254 764 274 768 q 244 761 250 764 q 243 761 243 761 q 224 747 232 757 q 213 722 217 738 q 208 698 210 707 q 204 672 206 689 q 203 654 203 654 q 196 564 200 622 q 229 565 207 565 m 279 286 q 251 474 288 435 q 229 482 243 482 q 189 479 203 482 q 176 199 178 322 q 229 92 185 92 q 251 96 244 92 q 261 115 257 100 q 279 286 272 149 z "},"c":{"ha":382,"x_min":21,"x_max":360,"o":"m 294 147 q 302 150 294 147 q 326 149 310 154 q 351 128 343 143 q 353 96 358 113 q 242 -21 314 -21 q 129 67 165 -21 q 100 211 107 121 q 92 224 96 218 q 71 238 83 235 q 68 239 69 238 l 67 239 q 65 239 65 239 q 58 238 61 239 q 46 232 51 236 q 37 219 39 226 q 36 203 35 213 q 31 197 36 199 q 26 200 28 197 q 22 222 21 211 q 31 244 24 233 q 49 261 38 254 q 60 265 54 264 q 63 267 63 267 l 65 267 l 67 267 q 72 268 69 267 q 96 265 85 268 q 96 318 96 292 q 107 525 96 471 q 121 567 113 547 q 139 597 129 583 q 165 624 151 613 q 232 650 193 646 q 263 651 247 653 q 269 653 267 651 q 288 671 282 660 q 292 697 294 683 q 278 725 290 711 q 278 738 272 732 q 289 738 283 742 q 315 706 307 724 q 317 660 324 683 q 304 638 313 649 q 351 585 339 619 q 358 549 358 567 q 350 513 358 529 q 328 485 342 497 q 299 468 315 475 q 281 475 286 463 q 286 493 276 488 l 288 493 q 319 526 311 506 q 315 569 326 547 q 306 582 311 576 q 294 557 303 568 q 267 540 283 543 q 236 543 253 538 q 233 550 232 544 q 239 553 235 554 q 263 554 253 551 q 279 568 274 558 q 283 588 283 578 q 281 599 283 593 q 240 600 263 604 q 207 585 221 594 q 178 418 178 550 q 182 407 179 411 q 199 389 188 394 q 224 385 211 382 q 249 399 236 388 q 257 397 253 403 q 258 389 261 393 q 229 368 244 374 q 190 368 210 361 q 178 374 185 369 q 179 318 179 338 q 206 99 179 165 q 240 63 221 64 q 274 122 257 72 q 294 147 279 139 z "},"ç":{"ha":382,"x_min":21,"x_max":360,"o":"m 294 147 q 302 150 294 147 q 326 149 310 154 q 351 128 343 143 q 353 96 358 113 q 242 -21 314 -21 q 129 67 165 -21 q 100 211 107 121 q 92 224 96 218 q 71 238 83 235 q 68 239 69 238 l 67 239 q 65 239 65 239 q 58 238 61 239 q 46 232 51 236 q 37 219 39 226 q 36 203 35 213 q 31 197 36 199 q 26 200 28 197 q 22 222 21 211 q 31 244 24 233 q 49 261 38 254 q 60 265 54 264 q 63 267 63 267 l 65 267 l 67 267 q 72 268 69 267 q 96 265 85 268 q 96 318 96 292 q 107 525 96 471 q 121 567 113 547 q 139 597 129 583 q 165 624 151 613 q 232 650 193 646 q 263 651 247 653 q 269 653 267 651 q 288 671 282 660 q 292 697 294 683 q 278 725 290 711 q 278 738 272 732 q 289 738 283 742 q 315 706 307 724 q 317 660 324 683 q 304 638 313 649 q 351 585 339 619 q 358 549 358 567 q 350 513 358 529 q 328 485 342 497 q 299 468 315 475 q 281 475 286 463 q 286 493 276 488 l 288 493 q 319 526 311 506 q 315 569 326 547 q 306 582 311 576 q 294 557 303 568 q 267 540 283 543 q 236 543 253 538 q 233 550 232 544 q 239 553 235 554 q 263 554 253 551 q 279 568 274 558 q 283 588 283 578 q 281 599 283 593 q 240 600 263 604 q 207 585 221 594 q 178 418 178 550 q 182 407 179 411 q 199 389 188 394 q 224 385 211 382 q 249 399 236 388 q 257 397 253 403 q 258 389 261 393 q 229 368 244 374 q 190 368 210 361 q 178 374 185 369 q 179 318 179 338 q 206 99 179 165 q 240 63 221 64 q 274 122 257 72 q 294 147 279 139 z "},"d":{"ha":476,"x_min":22,"x_max":461,"o":"m 444 774 q 449 714 460 746 q 433 689 443 700 q 410 674 424 679 q 396 681 400 671 q 400 693 393 688 q 421 722 418 703 q 414 754 425 742 q 388 764 404 765 q 371 761 379 764 q 365 760 368 761 q 364 758 364 760 q 375 753 369 757 q 385 740 382 747 q 389 726 389 735 q 388 701 392 715 q 381 697 386 696 q 376 703 376 699 q 375 724 378 715 q 364 736 372 733 q 350 738 358 740 q 344 733 347 736 q 336 710 339 724 q 333 688 333 697 q 331 667 332 679 q 329 651 329 654 q 297 96 296 324 q 304 97 303 96 q 342 117 329 103 q 351 133 349 124 q 353 144 353 139 q 353 154 354 150 q 344 175 351 165 q 324 186 336 183 l 322 186 q 317 194 315 188 q 324 201 318 200 q 358 194 342 204 q 388 168 376 186 q 394 149 392 158 q 396 129 396 139 q 383 89 394 108 q 358 58 375 72 q 325 39 344 47 q 299 29 313 33 q 301 -22 300 1 q 292 -52 303 -39 q 264 -67 281 -65 q 260 -67 263 -67 q 233 -56 244 -67 q 219 -29 221 -46 q 215 15 217 -8 q 163 11 193 11 q 56 85 93 11 q 22 265 22 150 q 44 443 22 390 q 163 519 76 519 q 233 513 200 519 q 249 661 243 621 q 251 676 250 668 q 256 694 253 686 q 253 706 254 700 q 239 721 249 715 q 219 726 231 726 q 197 717 208 725 l 197 715 q 186 717 192 711 q 188 726 183 722 q 214 746 199 740 q 250 744 232 751 q 268 735 260 742 q 283 763 275 750 q 304 785 293 776 q 332 801 317 796 q 339 804 333 803 q 346 806 346 806 q 360 808 353 807 q 390 808 376 811 q 421 797 408 806 q 444 774 436 789 m 214 96 q 228 428 213 235 q 163 436 196 436 q 141 433 149 436 q 124 416 133 431 q 110 364 114 401 q 106 265 106 326 q 122 139 106 183 q 163 94 139 94 q 214 96 196 94 z "},"e":{"ha":428,"x_min":21,"x_max":407,"o":"m 401 174 q 406 138 406 157 q 397 104 404 121 q 360 46 386 69 q 296 13 332 19 q 283 10 290 11 q 190 27 232 3 q 135 99 149 51 q 118 193 124 135 q 116 192 118 193 q 114 192 114 192 q 90 185 101 189 q 74 174 79 179 q 64 158 67 167 q 64 142 61 150 q 75 131 68 133 q 83 131 79 129 q 85 131 83 131 q 88 132 88 132 q 90 133 89 133 q 93 142 93 136 q 93 147 93 144 q 93 150 93 149 q 92 151 92 150 q 92 153 92 153 l 92 154 q 97 164 89 161 q 106 160 103 165 q 108 156 107 158 q 110 151 108 154 q 113 143 111 147 q 113 133 113 138 q 109 122 111 126 q 103 114 107 117 q 98 110 100 111 q 93 107 96 108 q 72 103 83 101 q 35 122 50 104 q 22 163 21 139 q 35 201 24 183 q 61 229 44 217 q 92 249 75 240 q 93 249 92 249 q 90 250 92 250 q 72 278 76 261 q 75 310 69 293 q 82 314 76 315 q 86 307 88 311 q 89 283 85 293 q 103 269 93 274 q 114 267 108 267 q 114 331 114 296 q 143 585 114 515 q 254 656 174 656 q 336 625 307 656 q 371 411 383 575 q 366 357 368 375 q 356 315 364 339 q 335 272 349 290 q 200 206 299 226 q 214 124 204 153 q 239 76 224 92 q 286 61 254 60 q 288 61 286 61 q 325 74 308 63 q 326 74 326 74 q 328 75 328 75 q 343 89 338 81 q 347 108 349 99 q 339 128 346 119 q 318 139 332 136 q 314 146 313 140 q 319 150 315 150 q 348 139 336 147 q 365 117 360 131 q 365 117 365 117 q 375 167 378 142 q 366 191 372 181 q 349 208 360 201 l 347 208 q 346 222 340 214 q 358 226 350 229 q 385 204 374 218 q 401 174 396 192 m 197 331 q 197 290 197 308 q 269 324 254 304 q 288 418 282 340 q 275 568 297 544 q 254 572 271 572 q 232 569 239 572 q 219 551 225 565 q 197 331 197 499 z "},"è":{"ha":428,"x_min":21,"x_max":407,"o":"m 401 174 q 406 138 406 157 q 397 104 404 121 q 360 46 386 69 q 296 13 332 19 q 283 10 290 11 q 190 27 232 3 q 135 99 149 51 q 118 193 124 135 q 116 192 118 193 q 114 192 114 192 q 90 185 101 189 q 74 174 79 179 q 64 158 67 167 q 64 142 61 150 q 75 131 68 133 q 83 131 79 129 q 85 131 83 131 q 88 132 88 132 q 90 133 89 133 q 93 142 93 136 q 93 147 93 144 q 93 150 93 149 q 92 151 92 150 q 92 153 92 153 l 92 154 q 97 164 89 161 q 106 160 103 165 q 108 156 107 158 q 110 151 108 154 q 113 143 111 147 q 113 133 113 138 q 109 122 111 126 q 103 114 107 117 q 98 110 100 111 q 93 107 96 108 q 72 103 83 101 q 35 122 50 104 q 22 163 21 139 q 35 201 24 183 q 61 229 44 217 q 92 249 75 240 q 93 249 92 249 q 90 250 92 250 q 72 278 76 261 q 75 310 69 293 q 82 314 76 315 q 86 307 88 311 q 89 283 85 293 q 103 269 93 274 q 114 267 108 267 q 114 331 114 296 q 143 585 114 515 q 254 656 174 656 q 336 625 307 656 q 371 411 383 575 q 366 357 368 375 q 356 315 364 339 q 335 272 349 290 q 200 206 299 226 q 214 124 204 153 q 239 76 224 92 q 286 61 254 60 q 288 61 286 61 q 325 74 308 63 q 326 74 326 74 q 328 75 328 75 q 343 89 338 81 q 347 108 349 99 q 339 128 346 119 q 318 139 332 136 q 314 146 313 140 q 319 150 315 150 q 348 139 336 147 q 365 117 360 131 q 365 117 365 117 q 375 167 378 142 q 366 191 372 181 q 349 208 360 201 l 347 208 q 346 222 340 214 q 358 226 350 229 q 385 204 374 218 q 401 174 396 192 m 197 331 q 197 290 197 308 q 269 324 254 304 q 288 418 282 340 q 275 568 297 544 q 254 572 271 572 q 232 569 239 572 q 219 551 225 565 q 197 331 197 499 z "},"é":{"ha":428,"x_min":21,"x_max":407,"o":"m 401 174 q 406 138 406 157 q 397 104 404 121 q 360 46 386 69 q 296 13 332 19 q 283 10 290 11 q 190 27 232 3 q 135 99 149 51 q 118 193 124 135 q 116 192 118 193 q 114 192 114 192 q 90 185 101 189 q 74 174 79 179 q 64 158 67 167 q 64 142 61 150 q 75 131 68 133 q 83 131 79 129 q 85 131 83 131 q 88 132 88 132 q 90 133 89 133 q 93 142 93 136 q 93 147 93 144 q 93 150 93 149 q 92 151 92 150 q 92 153 92 153 l 92 154 q 97 164 89 161 q 106 160 103 165 q 108 156 107 158 q 110 151 108 154 q 113 143 111 147 q 113 133 113 138 q 109 122 111 126 q 103 114 107 117 q 98 110 100 111 q 93 107 96 108 q 72 103 83 101 q 35 122 50 104 q 22 163 21 139 q 35 201 24 183 q 61 229 44 217 q 92 249 75 240 q 93 249 92 249 q 90 250 92 250 q 72 278 76 261 q 75 310 69 293 q 82 314 76 315 q 86 307 88 311 q 89 283 85 293 q 103 269 93 274 q 114 267 108 267 q 114 331 114 296 q 143 585 114 515 q 254 656 174 656 q 336 625 307 656 q 371 411 383 575 q 366 357 368 375 q 356 315 364 339 q 335 272 349 290 q 200 206 299 226 q 214 124 204 153 q 239 76 224 92 q 286 61 254 60 q 288 61 286 61 q 325 74 308 63 q 326 74 326 74 q 328 75 328 75 q 343 89 338 81 q 347 108 349 99 q 339 128 346 119 q 318 139 332 136 q 314 146 313 140 q 319 150 315 150 q 348 139 336 147 q 365 117 360 131 q 365 117 365 117 q 375 167 378 142 q 366 191 372 181 q 349 208 360 201 l 347 208 q 346 222 340 214 q 358 226 350 229 q 385 204 374 218 q 401 174 396 192 m 197 331 q 197 290 197 308 q 269 324 254 304 q 288 418 282 340 q 275 568 297 544 q 254 572 271 572 q 232 569 239 572 q 219 551 225 565 q 197 331 197 499 z "},"ê":{"ha":428,"x_min":21,"x_max":407,"o":"m 401 174 q 406 138 406 157 q 397 104 404 121 q 360 46 386 69 q 296 13 332 19 q 283 10 290 11 q 190 27 232 3 q 135 99 149 51 q 118 193 124 135 q 116 192 118 193 q 114 192 114 192 q 90 185 101 189 q 74 174 79 179 q 64 158 67 167 q 64 142 61 150 q 75 131 68 133 q 83 131 79 129 q 85 131 83 131 q 88 132 88 132 q 90 133 89 133 q 93 142 93 136 q 93 147 93 144 q 93 150 93 149 q 92 151 92 150 q 92 153 92 153 l 92 154 q 97 164 89 161 q 106 160 103 165 q 108 156 107 158 q 110 151 108 154 q 113 143 111 147 q 113 133 113 138 q 109 122 111 126 q 103 114 107 117 q 98 110 100 111 q 93 107 96 108 q 72 103 83 101 q 35 122 50 104 q 22 163 21 139 q 35 201 24 183 q 61 229 44 217 q 92 249 75 240 q 93 249 92 249 q 90 250 92 250 q 72 278 76 261 q 75 310 69 293 q 82 314 76 315 q 86 307 88 311 q 89 283 85 293 q 103 269 93 274 q 114 267 108 267 q 114 331 114 296 q 143 585 114 515 q 254 656 174 656 q 336 625 307 656 q 371 411 383 575 q 366 357 368 375 q 356 315 364 339 q 335 272 349 290 q 200 206 299 226 q 214 124 204 153 q 239 76 224 92 q 286 61 254 60 q 288 61 286 61 q 325 74 308 63 q 326 74 326 74 q 328 75 328 75 q 343 89 338 81 q 347 108 349 99 q 339 128 346 119 q 318 139 332 136 q 314 146 313 140 q 319 150 315 150 q 348 139 336 147 q 365 117 360 131 q 365 117 365 117 q 375 167 378 142 q 366 191 372 181 q 349 208 360 201 l 347 208 q 346 222 340 214 q 358 226 350 229 q 385 204 374 218 q 401 174 396 192 m 197 331 q 197 290 197 308 q 269 324 254 304 q 288 418 282 340 q 275 568 297 544 q 254 572 271 572 q 232 569 239 572 q 219 551 225 565 q 197 331 197 499 z "},"ë":{"ha":428,"x_min":21,"x_max":407,"o":"m 401 174 q 406 138 406 157 q 397 104 404 121 q 360 46 386 69 q 296 13 332 19 q 283 10 290 11 q 190 27 232 3 q 135 99 149 51 q 118 193 124 135 q 116 192 118 193 q 114 192 114 192 q 90 185 101 189 q 74 174 79 179 q 64 158 67 167 q 64 142 61 150 q 75 131 68 133 q 83 131 79 129 q 85 131 83 131 q 88 132 88 132 q 90 133 89 133 q 93 142 93 136 q 93 147 93 144 q 93 150 93 149 q 92 151 92 150 q 92 153 92 153 l 92 154 q 97 164 89 161 q 106 160 103 165 q 108 156 107 158 q 110 151 108 154 q 113 143 111 147 q 113 133 113 138 q 109 122 111 126 q 103 114 107 117 q 98 110 100 111 q 93 107 96 108 q 72 103 83 101 q 35 122 50 104 q 22 163 21 139 q 35 201 24 183 q 61 229 44 217 q 92 249 75 240 q 93 249 92 249 q 90 250 92 250 q 72 278 76 261 q 75 310 69 293 q 82 314 76 315 q 86 307 88 311 q 89 283 85 293 q 103 269 93 274 q 114 267 108 267 q 114 331 114 296 q 143 585 114 515 q 254 656 174 656 q 336 625 307 656 q 371 411 383 575 q 366 357 368 375 q 356 315 364 339 q 335 272 349 290 q 200 206 299 226 q 214 124 204 153 q 239 76 224 92 q 286 61 254 60 q 288 61 286 61 q 325 74 308 63 q 326 74 326 74 q 328 75 328 75 q 343 89 338 81 q 347 108 349 99 q 339 128 346 119 q 318 139 332 136 q 314 146 313 140 q 319 150 315 150 q 348 139 336 147 q 365 117 360 131 q 365 117 365 117 q 375 167 378 142 q 366 191 372 181 q 349 208 360 201 l 347 208 q 346 222 340 214 q 358 226 350 229 q 385 204 374 218 q 401 174 396 192 m 197 331 q 197 290 197 308 q 269 324 254 304 q 288 418 282 340 q 275 568 297 544 q 254 572 271 572 q 232 569 239 572 q 219 551 225 565 q 197 331 197 499 z "},"f":{"ha":390,"x_min":21,"x_max":369,"o":"m 363 601 q 368 565 368 583 q 358 531 367 547 q 336 503 350 515 q 322 493 331 499 q 308 486 315 490 q 290 493 294 481 q 296 511 285 506 q 328 544 319 524 q 325 586 336 565 q 294 615 315 606 q 253 619 276 624 q 242 615 247 618 q 247 613 246 614 q 269 589 263 604 q 272 558 275 575 q 267 554 271 554 q 261 560 261 556 q 256 582 261 574 q 240 596 250 592 q 219 596 229 599 q 218 596 219 596 q 217 596 217 596 q 204 558 210 581 q 197 508 199 536 q 195 460 196 479 q 195 413 194 442 q 196 383 196 385 q 199 240 196 311 l 247 240 q 276 228 264 240 q 289 198 289 215 q 276 169 289 181 q 247 157 264 157 l 201 157 q 213 -10 207 50 q 204 -41 215 -28 q 176 -56 193 -54 q 171 -57 174 -57 q 144 -46 156 -57 q 131 -19 132 -35 q 118 161 122 49 q 97 163 106 163 q 82 160 89 163 q 68 150 74 157 q 64 146 65 149 l 63 144 q 63 143 63 143 q 58 136 60 140 q 56 117 54 126 q 63 99 57 107 q 79 85 68 90 l 79 83 q 82 74 85 81 q 74 71 79 69 q 47 83 58 74 q 28 108 35 93 q 22 142 22 124 q 25 158 22 150 q 26 163 25 160 q 28 167 28 165 q 32 174 29 171 q 53 201 40 190 q 85 219 67 213 q 90 221 86 219 q 71 239 78 228 q 64 271 61 254 q 78 299 67 285 q 85 299 81 303 q 86 292 88 296 q 79 269 79 281 q 86 250 79 258 q 104 239 93 242 q 115 238 108 238 q 113 383 113 310 q 118 517 113 471 q 118 519 118 517 q 118 524 118 522 q 133 589 121 560 q 140 603 136 596 q 201 658 160 640 q 207 661 204 660 q 213 663 211 663 q 246 669 229 668 q 272 669 258 671 q 278 672 275 671 q 297 690 290 678 q 301 717 304 703 q 288 743 299 731 l 288 744 q 288 756 282 750 q 299 756 293 760 q 324 724 317 742 q 325 679 333 701 q 314 656 322 667 q 315 656 314 656 q 317 656 315 656 q 363 601 350 636 z "},"g":{"ha":450,"x_min":21,"x_max":429,"o":"m 428 313 q 426 296 428 304 q 426 292 426 294 q 425 288 425 289 q 422 279 424 283 q 404 249 417 263 q 381 231 394 239 q 389 222 385 226 q 399 192 400 208 q 389 163 399 176 q 382 161 386 158 q 381 168 379 164 q 385 190 386 181 q 375 210 382 201 q 356 218 367 217 q 350 218 353 218 q 344 217 347 217 q 342 216 344 217 q 339 215 340 215 q 247 -71 321 -3 q 217 -92 233 -83 q 200 -100 207 -96 q 179 -106 190 -103 q 136 -107 158 -110 q 97 -93 117 -104 q 40 -39 63 -75 q 26 -3 31 -22 q 22 36 21 17 q 33 74 24 57 q 61 101 44 90 q 75 99 69 107 q 72 86 79 92 l 72 85 q 56 63 61 76 q 51 35 50 50 q 72 -19 53 7 q 75 -22 72 -19 q 75 -21 75 -21 q 90 7 78 -4 q 117 21 100 17 q 124 17 122 22 q 119 11 124 13 q 100 -3 107 6 q 94 -22 94 -11 q 101 -42 94 -33 q 111 -51 104 -47 q 115 -53 114 -53 q 167 -54 142 -62 q 178 -50 174 -53 q 189 -43 183 -47 q 203 -29 196 -37 q 256 150 242 22 q 257 154 256 153 q 260 183 258 168 q 217 181 242 181 q 110 246 144 181 q 76 426 76 311 q 100 606 76 551 q 217 682 132 682 q 285 672 256 682 q 292 674 289 674 q 323 664 310 675 q 336 636 336 653 q 338 629 338 633 l 338 628 q 343 282 351 438 q 356 282 350 282 q 371 288 364 283 q 383 299 378 290 q 386 303 385 300 l 388 304 q 389 306 388 306 q 392 314 390 310 q 392 333 393 324 q 382 350 389 343 q 364 363 375 358 q 360 372 357 365 q 367 376 361 376 q 396 368 382 375 q 418 344 410 360 q 428 313 425 331 m 264 271 q 256 594 268 407 q 217 599 242 599 q 196 595 203 599 q 179 577 189 592 q 165 525 169 563 q 160 426 160 488 q 176 305 160 346 q 217 264 193 264 q 264 271 236 264 z "},"h":{"ha":425,"x_min":18,"x_max":407,"o":"m 351 447 q 396 330 386 411 q 400 51 406 249 q 388 23 400 35 q 358 11 375 11 q 357 11 358 11 q 328 24 340 11 q 317 54 317 36 q 292 389 326 354 q 239 400 281 400 q 215 397 225 400 q 213 13 200 151 q 203 -17 214 -4 q 175 -32 192 -31 q 171 -32 172 -32 q 142 -22 154 -32 q 129 6 131 -11 q 131 404 117 151 q 129 404 129 404 q 104 411 115 410 q 81 410 90 413 q 71 406 76 408 q 67 403 69 404 q 64 400 65 401 q 58 379 57 392 q 65 360 58 367 q 74 353 69 356 q 85 353 79 351 q 94 358 89 354 q 99 364 97 361 q 101 367 100 365 q 103 369 101 367 l 104 371 q 114 372 107 376 q 118 364 119 369 q 116 359 117 361 q 114 354 115 357 q 108 346 111 350 q 92 332 101 338 q 69 329 82 328 q 49 338 58 331 q 32 354 39 344 q 24 375 26 364 q 29 419 19 399 q 35 431 32 425 q 43 439 39 435 q 61 453 51 447 q 94 464 76 461 q 82 478 86 469 q 76 510 74 493 q 89 536 78 524 q 96 538 93 540 q 97 531 100 535 q 90 508 90 519 q 99 489 90 497 q 115 478 104 481 q 135 478 125 475 q 136 478 135 478 q 150 651 143 576 q 151 668 150 660 q 167 735 154 706 q 185 767 175 753 q 213 792 197 782 q 246 808 228 803 q 279 815 263 814 q 304 815 292 817 q 311 818 308 817 q 331 836 324 824 q 335 863 338 849 q 319 889 332 876 q 321 901 314 896 q 331 901 325 906 q 357 869 350 888 q 358 825 365 847 q 347 801 354 813 q 349 801 347 801 q 394 746 382 782 q 400 711 401 729 q 392 676 400 693 q 369 649 383 660 q 356 639 363 643 q 340 632 349 635 q 322 639 328 626 q 329 657 318 651 q 361 690 353 669 q 358 732 368 711 q 347 747 354 740 q 336 721 344 732 q 308 704 325 707 q 278 707 294 701 q 275 714 274 710 q 281 718 276 718 q 304 719 294 715 q 321 732 315 722 q 325 753 326 742 q 322 763 325 757 q 286 764 306 768 q 269 760 278 763 q 256 747 263 756 q 247 730 250 739 q 241 708 243 721 q 238 687 239 694 q 235 667 236 679 q 235 654 235 656 q 219 482 226 581 q 239 483 231 483 q 351 447 315 483 z "},"i":{"ha":324,"x_min":21,"x_max":301,"o":"m 199 597 q 193 592 199 597 q 172 586 188 586 q 146 597 157 586 q 135 625 135 608 q 146 653 135 642 q 172 665 157 665 q 199 653 188 665 q 210 625 210 642 q 199 597 210 608 m 297 450 q 300 429 300 440 q 299 418 300 422 q 294 407 297 413 q 279 392 289 397 q 269 388 275 389 q 264 385 267 386 q 258 385 261 385 q 250 390 251 383 q 256 400 249 397 l 257 400 q 260 401 258 400 q 264 403 261 401 q 269 406 267 404 q 278 415 275 410 q 279 422 279 418 q 279 428 279 424 q 275 442 279 436 q 257 456 269 454 q 232 450 246 458 q 211 428 219 444 q 207 394 208 413 q 207 392 207 394 q 207 389 207 389 q 207 386 207 388 q 207 383 207 385 q 221 56 203 300 q 210 25 222 38 q 182 11 199 13 q 179 11 181 11 q 151 22 163 11 q 138 50 139 33 q 132 183 135 115 q 124 181 128 182 q 85 181 104 174 q 56 201 68 186 q 57 211 51 207 q 65 211 61 214 l 65 210 q 90 197 78 200 q 115 201 103 194 q 132 218 125 207 q 131 313 131 258 q 130 394 131 367 q 128 453 129 422 q 123 500 126 483 q 114 526 119 517 q 111 528 111 528 q 104 531 108 529 q 89 535 96 535 q 65 522 75 535 q 58 508 61 517 q 56 499 57 503 q 57 492 56 494 q 63 478 57 483 q 68 472 65 474 q 72 469 69 471 q 74 468 74 469 l 75 468 l 75 468 q 85 451 88 464 q 68 443 82 439 l 67 443 l 64 443 q 61 444 63 444 q 54 449 57 446 q 42 457 47 451 q 32 469 36 463 q 25 483 28 476 q 22 499 22 492 q 22 514 22 506 q 32 543 25 531 q 54 567 40 557 q 85 579 67 576 q 117 578 100 582 q 132 574 125 576 q 139 569 135 572 q 146 567 143 568 q 171 546 160 558 q 188 521 181 535 q 204 469 199 499 q 219 478 211 475 l 222 479 l 225 481 q 229 482 225 481 q 240 483 236 483 q 264 482 253 485 q 285 469 276 478 q 297 450 293 461 z "},"ì":{"ha":324,"x_min":21,"x_max":301,"o":"m 199 597 q 193 592 199 597 q 172 586 188 586 q 146 597 157 586 q 135 625 135 608 q 146 653 135 642 q 172 665 157 665 q 199 653 188 665 q 210 625 210 642 q 199 597 210 608 m 297 450 q 300 429 300 440 q 299 418 300 422 q 294 407 297 413 q 279 392 289 397 q 269 388 275 389 q 264 385 267 386 q 258 385 261 385 q 250 390 251 383 q 256 400 249 397 l 257 400 q 260 401 258 400 q 264 403 261 401 q 269 406 267 404 q 278 415 275 410 q 279 422 279 418 q 279 428 279 424 q 275 442 279 436 q 257 456 269 454 q 232 450 246 458 q 211 428 219 444 q 207 394 208 413 q 207 392 207 394 q 207 389 207 389 q 207 386 207 388 q 207 383 207 385 q 221 56 203 300 q 210 25 222 38 q 182 11 199 13 q 179 11 181 11 q 151 22 163 11 q 138 50 139 33 q 132 183 135 115 q 124 181 128 182 q 85 181 104 174 q 56 201 68 186 q 57 211 51 207 q 65 211 61 214 l 65 210 q 90 197 78 200 q 115 201 103 194 q 132 218 125 207 q 131 313 131 258 q 130 394 131 367 q 128 453 129 422 q 123 500 126 483 q 114 526 119 517 q 111 528 111 528 q 104 531 108 529 q 89 535 96 535 q 65 522 75 535 q 58 508 61 517 q 56 499 57 503 q 57 492 56 494 q 63 478 57 483 q 68 472 65 474 q 72 469 69 471 q 74 468 74 469 l 75 468 l 75 468 q 85 451 88 464 q 68 443 82 439 l 67 443 l 64 443 q 61 444 63 444 q 54 449 57 446 q 42 457 47 451 q 32 469 36 463 q 25 483 28 476 q 22 499 22 492 q 22 514 22 506 q 32 543 25 531 q 54 567 40 557 q 85 579 67 576 q 117 578 100 582 q 132 574 125 576 q 139 569 135 572 q 146 567 143 568 q 171 546 160 558 q 188 521 181 535 q 204 469 199 499 q 219 478 211 475 l 222 479 l 225 481 q 229 482 225 481 q 240 483 236 483 q 264 482 253 485 q 285 469 276 478 q 297 450 293 461 z "},"í":{"ha":324,"x_min":21,"x_max":301,"o":"m 199 597 q 193 592 199 597 q 172 586 188 586 q 146 597 157 586 q 135 625 135 608 q 146 653 135 642 q 172 665 157 665 q 199 653 188 665 q 210 625 210 642 q 199 597 210 608 m 297 450 q 300 429 300 440 q 299 418 300 422 q 294 407 297 413 q 279 392 289 397 q 269 388 275 389 q 264 385 267 386 q 258 385 261 385 q 250 390 251 383 q 256 400 249 397 l 257 400 q 260 401 258 400 q 264 403 261 401 q 269 406 267 404 q 278 415 275 410 q 279 422 279 418 q 279 428 279 424 q 275 442 279 436 q 257 456 269 454 q 232 450 246 458 q 211 428 219 444 q 207 394 208 413 q 207 392 207 394 q 207 389 207 389 q 207 386 207 388 q 207 383 207 385 q 221 56 203 300 q 210 25 222 38 q 182 11 199 13 q 179 11 181 11 q 151 22 163 11 q 138 50 139 33 q 132 183 135 115 q 124 181 128 182 q 85 181 104 174 q 56 201 68 186 q 57 211 51 207 q 65 211 61 214 l 65 210 q 90 197 78 200 q 115 201 103 194 q 132 218 125 207 q 131 313 131 258 q 130 394 131 367 q 128 453 129 422 q 123 500 126 483 q 114 526 119 517 q 111 528 111 528 q 104 531 108 529 q 89 535 96 535 q 65 522 75 535 q 58 508 61 517 q 56 499 57 503 q 57 492 56 494 q 63 478 57 483 q 68 472 65 474 q 72 469 69 471 q 74 468 74 469 l 75 468 l 75 468 q 85 451 88 464 q 68 443 82 439 l 67 443 l 64 443 q 61 444 63 444 q 54 449 57 446 q 42 457 47 451 q 32 469 36 463 q 25 483 28 476 q 22 499 22 492 q 22 514 22 506 q 32 543 25 531 q 54 567 40 557 q 85 579 67 576 q 117 578 100 582 q 132 574 125 576 q 139 569 135 572 q 146 567 143 568 q 171 546 160 558 q 188 521 181 535 q 204 469 199 499 q 219 478 211 475 l 222 479 l 225 481 q 229 482 225 481 q 240 483 236 483 q 264 482 253 485 q 285 469 276 478 q 297 450 293 461 z "},"î":{"ha":324,"x_min":21,"x_max":301,"o":"m 199 597 q 193 592 199 597 q 172 586 188 586 q 146 597 157 586 q 135 625 135 608 q 146 653 135 642 q 172 665 157 665 q 199 653 188 665 q 210 625 210 642 q 199 597 210 608 m 297 450 q 300 429 300 440 q 299 418 300 422 q 294 407 297 413 q 279 392 289 397 q 269 388 275 389 q 264 385 267 386 q 258 385 261 385 q 250 390 251 383 q 256 400 249 397 l 257 400 q 260 401 258 400 q 264 403 261 401 q 269 406 267 404 q 278 415 275 410 q 279 422 279 418 q 279 428 279 424 q 275 442 279 436 q 257 456 269 454 q 232 450 246 458 q 211 428 219 444 q 207 394 208 413 q 207 392 207 394 q 207 389 207 389 q 207 386 207 388 q 207 383 207 385 q 221 56 203 300 q 210 25 222 38 q 182 11 199 13 q 179 11 181 11 q 151 22 163 11 q 138 50 139 33 q 132 183 135 115 q 124 181 128 182 q 85 181 104 174 q 56 201 68 186 q 57 211 51 207 q 65 211 61 214 l 65 210 q 90 197 78 200 q 115 201 103 194 q 132 218 125 207 q 131 313 131 258 q 130 394 131 367 q 128 453 129 422 q 123 500 126 483 q 114 526 119 517 q 111 528 111 528 q 104 531 108 529 q 89 535 96 535 q 65 522 75 535 q 58 508 61 517 q 56 499 57 503 q 57 492 56 494 q 63 478 57 483 q 68 472 65 474 q 72 469 69 471 q 74 468 74 469 l 75 468 l 75 468 q 85 451 88 464 q 68 443 82 439 l 67 443 l 64 443 q 61 444 63 444 q 54 449 57 446 q 42 457 47 451 q 32 469 36 463 q 25 483 28 476 q 22 499 22 492 q 22 514 22 506 q 32 543 25 531 q 54 567 40 557 q 85 579 67 576 q 117 578 100 582 q 132 574 125 576 q 139 569 135 572 q 146 567 143 568 q 171 546 160 558 q 188 521 181 535 q 204 469 199 499 q 219 478 211 475 l 222 479 l 225 481 q 229 482 225 481 q 240 483 236 483 q 264 482 253 485 q 285 469 276 478 q 297 450 293 461 z "}}}
